{
.appVersion = "3525";
.formatVersion = 3;
axes = (
{
name = Slant;
tag = slnt;
}
);
customParameters = (
{
name = panose;
value = (
2,
11,
6,
9,
3,
8,
4,
2,
2,
4
);
},
{
name = unicodeRanges;
value = (
0,
1,
2,
3,
5,
7,
31,
33,
35,
38,
45,
60
);
},
{
name = fsType;
value = (
);
},
{
name = glyphOrder;
value = (
.notdef,
.null,
CR,
space,
exclam,
quotedbl,
numbersign,
dollar,
percent,
ampersand,
quotesingle,
parenleft,
parenright,
asterisk,
plus,
comma,
hyphen,
period,
slash,
zero,
one,
two,
three,
four,
five,
six,
seven,
eight,
nine,
colon,
semicolon,
less,
equal,
greater,
question,
at,
A,
B,
C,
D,
E,
F,
G,
H,
I,
J,
K,
L,
M,
N,
O,
P,
Q,
R,
S,
T,
U,
V,
W,
X,
Y,
Z,
bracketleft,
backslash,
bracketright,
asciicircum,
underscore,
grave,
a,
b,
c,
d,
e,
f,
g,
h,
i,
j,
k,
l,
m,
n,
o,
p,
q,
r,
s,
t,
u,
v,
w,
x,
y,
z,
braceleft,
bar,
braceright,
asciitilde,
Adieresis,
Aring,
Ccedilla,
Eacute,
Ntilde,
Odieresis,
Udieresis,
aacute,
agrave,
acircumflex,
adieresis,
atilde,
aring,
ccedilla,
eacute,
egrave,
ecircumflex,
edieresis,
iacute,
igrave,
icircumflex,
idieresis,
ntilde,
oacute,
ograve,
ocircumflex,
odieresis,
otilde,
uacute,
ugrave,
ucircumflex,
udieresis,
dagger,
degree,
cent,
sterling,
section,
bullet,
paragraph,
germandbls,
registered,
copyright,
trademark,
acute,
dieresis,
notequal,
AE,
Oslash,
infinity,
plusminus,
lessequal,
greaterequal,
yen,
mu,
partialdiff,
summation,
product,
pi,
integral,
ordfeminine,
ordmasculine,
Omega,
ae,
oslash,
questiondown,
exclamdown,
logicalnot,
radical,
florin,
approxequal,
Delta,
guillemotleft,
guillemotright,
ellipsis,
nonbreakingspace,
Agrave,
Atilde,
Otilde,
OE,
oe,
endash,
emdash,
quotedblleft,
quotedblright,
quoteleft,
quoteright,
divide,
lozenge,
ydieresis,
Ydieresis,
fraction,
currency,
guilsinglleft,
guilsinglright,
fi,
fl,
daggerdbl,
periodcentered,
quotesinglbase,
quotedblbase,
perthousand,
Acircumflex,
Ecircumflex,
Aacute,
Edieresis,
Egrave,
Iacute,
Icircumflex,
Idieresis,
Igrave,
Oacute,
Ocircumflex,
Ograve,
Uacute,

glyphs = (
{
glyphname = .notdef;
lastChange = "2026-05-20 11:40:44 +0000";
layers = (
{
layerId = m01;
shapes = (
{
closed = 1;
nodes = (
(1128,1444,l),
(104,1444,l),
(104,-362,l),
(1128,-362,l),
(1128,-362,l)
);
},
{
closed = 1;
nodes = (
(1014,1329,l),
(1014,-248,l),
(219,-248,l),
(219,1329,l),
(219,1329,l)
);
}
);
userData = {
assembly = "PUSHW[ ]	/* 5 values pushed */
4 276 0 6 276
PUSHB[ ]	/* 7 values pushed */
1 8 5 131 2 4 0
MDAP[1]	/* MoveDirectAbsPt */
MDRP[00100]	/* MoveDirectRelPt */
MDRP[10100]	/* MoveDirectRelPt */
MIRP[01100]	/* MoveIndirectRelPt */
IUP[1]	/* InterpolateUntPts */
SVTCA[0]	/* SetFreedomAndProjectionVectorToAxis */
SRP0[ ]	/* SetRefPoint0 */
MDRP[10100]	/* MoveDirectRelPt */
MIRP[01100]	/* MoveIndirectRelPt */
MDRP[10100]	/* MoveDirectRelPt */
MIRP[01100]	/* MoveIndirectRelPt */
IUP[0]	/* InterpolateUntPts */";
};
width = 1233;
},
{
layerId = "281C21A4-45D9-482C-B928-385594A59359";
shapes = (
{
closed = 1;
nodes = (
(1128,1444,l),
(104,1444,l),
(104,-362,l),
(1128,-362,l),
(1128,-362,l)
);
},
{
closed = 1;
nodes = (
(1014,1329,l),
(1014,-248,l),
(219,-248,l),
(219,1329,l),
(219,1329,l)
);
}
);
userData = {
assembly = "NPUSHB[ ]	/* 12 values pushed */
4 219 0 6 219 1 8 5 79 2 4 0
MDAP[1]	/* MoveDirectAbsPt */
MDRP[00100]	/* MoveDirectRelPt */
MDRP[10100]	/* MoveDirectRelPt */
MIRP[01100]	/* MoveIndirectRelPt */
IUP[1]	/* InterpolateUntPts */
SVTCA[0]	/* SetFreedomAndProjectionVectorToAxis */
SRP0[ ]	/* SetRefPoint0 */
MDRP[10100]	/* MoveDirectRelPt */
MIRP[01100]	/* MoveIndirectRelPt */
MDRP[10100]	/* MoveDirectRelPt */
MIRP[01100]	/* MoveIndirectRelPt */
IUP[0]	/* InterpolateUntPts */";
};
width = 1233;
}
);
note = .notdef;
},
{
glyphname = exclam;
lastChange = "2026-05-20 11:40:44 +0000";
layers = (
{
layerId = m01;
shapes = (
{
closed = 1;
nodes = (
(536,481,l),
(697,481,l),
(718,838,l),
(718,1493,l),
(515,1493,l),
(515,838,l),
(515,838,l)
);
},
{
closed = 1;
nodes = (
(718,0,l),
(718,254,l),
(515,254,l),
(515,0,l),
(515,0,l)
);
}
);
userData = {
assembly = "NPUSHB[ ]	/* 15 values pushed */
3 135 6 134 0 136 8 4 3 7 1 3 6 0 10
SRP0[ ]	/* SetRefPoint0 */
MDRP[10100]	/* MoveDirectRelPt */
ALIGNRP[ ]	/* AlignRelativePt */
MIRP[01100]	/* MoveIndirectRelPt */
SHP[0]	/* ShiftPointByLastPoint */
IP[ ]	/* InterpolatePts */
IP[ ]	/* InterpolatePts */
IUP[1]	/* InterpolateUntPts */
SVTCA[0]	/* SetFreedomAndProjectionVectorToAxis */
MDAP[1]	/* MoveDirectAbsPt */
MIRP[00100]	/* MoveIndirectRelPt */
MIRP[11100]	/* MoveIndirectRelPt */
MIRP[01100]	/* MoveIndirectRelPt */
IUP[0]	/* InterpolateUntPts */";
};
width = 1233;
},
{
layerId = "281C21A4-45D9-482C-B928-385594A59359";
shapes = (
{
closed = 1;
nodes = (
(520,481,l),
(682,481,l),
(770,838,l),
(899,1493,l),
(697,1493,l),
(570,838,l),
(570,838,l)
);
},
{
closed = 1;
nodes = (
(608,0,l),
(658,254,l),
(455,254,l),
(406,0,l),
(406,0,l)
);
}
);
userData = {
assembly = "NPUSHB[ ]	/* 46 values pushed */
4 3 2 5 2 5 5 0 5 1 5 0 0 5 8 5 9 6 9 7 5 6 9 58 3 84 6 83 0 81 8 4 6 8 7 3 3 5 1 5 0 1 6 2 9 10
SRP0[ ]	/* SetRefPoint0 */
MDRP[10100]	/* MoveDirectRelPt */
MIRP[00100]	/* MoveIndirectRelPt */
MIRP[10100]	/* MoveIndirectRelPt */
MDRP[00100]	/* MoveDirectRelPt */
MDRP[00000]	/* MoveDirectRelPt */
SRP2[ ]	/* SetRefPoint2 */
SLOOP[ ]	/* SetLoopVariable */
IP[ ]	/* InterpolatePts */
SRP1[ ]	/* SetRefPoint1 */
IP[ ]	/* InterpolatePts */
IUP[1]	/* InterpolateUntPts */
SVTCA[0]	/* SetFreedomAndProjectionVectorToAxis */
MDAP[1]	/* MoveDirectAbsPt */
MIRP[00100]	/* MoveIndirectRelPt */
MIRP[11100]	/* MoveIndirectRelPt */
MIRP[01100]	/* MoveIndirectRelPt */
IUP[0]	/* InterpolateUntPts */
MPPEM[ ]	/* MeasurePixelPerEm */
GTEQ[ ]	/* GreaterThanOrEqual */
IF[ ]	/* If */
SPVTL[1]	/* SetPVectorToLine */
SFVTCA[1]	/* SetFVectorToAxis */
MIRP[01101]	/* MoveIndirectRelPt */
SPVTL[1]	/* SetPVectorToLine */
SRP0[ ]	/* SetRefPoint0 */
SFVTCA[1]	/* SetFVectorToAxis */
MIRP[01101]	/* MoveIndirectRelPt */
SPVTL[1]	/* SetPVectorToLine */
SRP0[ ]	/* SetRefPoint0 */
SFVTCA[1]	/* SetFVectorToAxis */
MIRP[01101]	/* MoveIndirectRelPt */
SPVTL[1]	/* SetPVectorToLine */
SRP0[ ]	/* SetRefPoint0 */
SFVTCA[1]	/* SetFVectorToAxis */
MIRP[01101]	/* MoveIndirectRelPt */
SRP1[ ]	/* SetRefPoint1 */
SLOOP[ ]	/* SetLoopVariable */
IP[ ]	/* InterpolatePts */
EIF[ ]	/* EndIf */
CLEAR[ ]	/* ClearStack */";
};
width = 1233;
}
);
note = exclam;
unicode = 33;
},
{
glyphname = quotedbl;
lastChange = "2026-05-20 11:40:44 +0000";
layers = (
{
layerId = m01;
shapes = (
{
closed = 1;
nodes = (
(731,938,l),
(915,938,l),
(915,1493,l),
(731,1493,l),
(731,1493,l)
);
},
{
closed = 1;
nodes = (
(318,938,l),
(502,938,l),
(502,1493,l),
(318,1493,l),
(318,1493,l)
);
}
);
userData = {
assembly = "NPUSHB[ ]	/* 14 values pushed */
5 1 137 4 0 136 8 0 4 2 6 4 4 8
SRP0[ ]	/* SetRefPoint0 */
MDRP[10100]	/* MoveDirectRelPt */
MIRP[01100]	/* MoveIndirectRelPt */
MDRP[11100]	/* MoveDirectRelPt */
MIRP[01100]	/* MoveIndirectRelPt */
IUP[1]	/* InterpolateUntPts */
SVTCA[0]	/* SetFreedomAndProjectionVectorToAxis */
SRP0[ ]	/* SetRefPoint0 */
MIRP[10100]	/* MoveIndirectRelPt */
ALIGNRP[ ]	/* AlignRelativePt */
MIRP[01100]	/* MoveIndirectRelPt */
SHP[0]	/* ShiftPointByLastPoint */
IUP[0]	/* InterpolateUntPts */";
};
width = 1233;
},
{
layerId = "281C21A4-45D9-482C-B928-385594A59359";
shapes = (
{
closed = 1;
nodes = (
(731,938,l),
(915,938,l),
(915,1493,l),
(731,1493,l),
(731,1493,l)
);
},
{
closed = 1;
nodes = (
(318,938,l),
(502,938,l),
(502,1493,l),
(318,1493,l),
(318,1493,l)
);
}
);
userData = {
assembly = "NPUSHB[ ]	/* 14 values pushed */
5 1 85 4 0 81 8 0 6 2 6 6 4 8
SRP0[ ]	/* SetRefPoint0 */
MDRP[10100]	/* MoveDirectRelPt */
MIRP[01100]	/* MoveIndirectRelPt */
MDRP[11100]	/* MoveDirectRelPt */
MIRP[01100]	/* MoveIndirectRelPt */
IUP[1]	/* InterpolateUntPts */
SVTCA[0]	/* SetFreedomAndProjectionVectorToAxis */
SRP0[ ]	/* SetRefPoint0 */
MIRP[10100]	/* MoveIndirectRelPt */
ALIGNRP[ ]	/* AlignRelativePt */
MIRP[01100]	/* MoveIndirectRelPt */
SHP[0]	/* ShiftPointByLastPoint */
IUP[0]	/* InterpolateUntPts */";
};
width = 1233;
}
);
note = quotedbl;
unicode = 34;
},
{
glyphname = numbersign;
lastChange = "2026-05-20 11:40:44 +0000";
layers = (
{
layerId = m01;
shapes = (
{
closed = 1;
nodes = (
(421,1055,l),
(118,1055,l),
(118,901,l),
(384,901,l),
(300,567,l),
(3,567,l),
(3,414,l),
(261,414,l),
(157,0,l),
(316,0,l),
(421,414,l),
(667,414,l),
(562,0,l),
(722,0,l),
(826,414,l),
(1115,414,l),
(1115,567,l),
(865,567,l),
(949,901,l),
(1230,901,l),
(1230,1055,l),
(986,1055,l),
(1091,1470,l),
(931,1470,l),
(826,1055,l),
(581,1055,l),
(685,1470,l),
(525,1470,l),
(525,1470,l)
);
},
{
closed = 1;
nodes = (
(460,567,l),
(544,901,l),
(789,901,l),
(706,567,l),
(706,567,l)
);
}
);
userData = {
assembly = "NPUSHB[ ]	/* 48 values pushed */
28 23 7 140 3 0 25 5 1 30 21 9 140 19 15 11 17 13 31 30 29 28 27 26 24 23 22 19 18 17 16 15 14 13 12 10 9 8 5 4 3 2 1 0 26 6 20 32
SRP0[ ]	/* SetRefPoint0 */
MDRP[10100]	/* MoveDirectRelPt */
MDRP[01100]	/* MoveDirectRelPt */
SLOOP[ ]	/* SetLoopVariable */
IP[ ]	/* InterpolatePts */
IUP[1]	/* InterpolateUntPts */
SVTCA[0]	/* SetFreedomAndProjectionVectorToAxis */
MDAP[1]	/* MoveDirectAbsPt */
ALIGNRP[ ]	/* AlignRelativePt */
MDRP[10100]	/* MoveDirectRelPt */
ALIGNRP[ ]	/* AlignRelativePt */
ALIGNRP[ ]	/* AlignRelativePt */
MIRP[11100]	/* MoveIndirectRelPt */
ALIGNRP[ ]	/* AlignRelativePt */
ALIGNRP[ ]	/* AlignRelativePt */
MDRP[10100]	/* MoveDirectRelPt */
ALIGNRP[ ]	/* AlignRelativePt */
ALIGNRP[ ]	/* AlignRelativePt */
MDRP[00100]	/* MoveDirectRelPt */
SHP[0]	/* ShiftPointByLastPoint */
MIRP[01100]	/* MoveIndirectRelPt */
SHP[0]	/* ShiftPointByLastPoint */
SHP[0]	/* ShiftPointByLastPoint */
IUP[0]	/* InterpolateUntPts */";
};
width = 1233;
},
{
layerId = "281C21A4-45D9-482C-B928-385594A59359";
shapes = (
{
closed = 1;
nodes = (
(421,1055,l),
(118,1055,l),
(118,901,l),
(384,901,l),
(300,567,l),
(3,567,l),
(3,414,l),
(261,414,l),
(157,0,l),
(316,0,l),
(421,414,l),
(667,414,l),
(562,0,l),
(722,0,l),
(826,414,l),
(1115,414,l),
(1115,567,l),
(865,567,l),
(949,901,l),
(1230,901,l),
(1230,1055,l),
(986,1055,l),
(1091,1470,l),
(931,1470,l),
(826,1055,l),
(581,1055,l),
(685,1470,l),
(525,1470,l),
(525,1470,l)
);
},
{
closed = 1;
nodes = (
(460,567,l),
(544,901,l),
(789,901,l),
(706,567,l),
(706,567,l)
);
}
);
userData = {
assembly = "NPUSHB[ ]	/* 53 values pushed */
27 11 0 88 29 9 5 23 19 15 88 25 13 2 7 4 21 17 31 30 29 28 27 26 25 23 22 21 20 19 18 17 16 15 14 13 12 11 9 8 7 6 5 4 3 2 1 0 30 32 10 24 32
SRP0[ ]	/* SetRefPoint0 */
MDRP[10100]	/* MoveDirectRelPt */
MDRP[01100]	/* MoveDirectRelPt */
SRP1[ ]	/* SetRefPoint1 */
SLOOP[ ]	/* SetLoopVariable */
IP[ ]	/* InterpolatePts */
IUP[1]	/* InterpolateUntPts */
SVTCA[0]	/* SetFreedomAndProjectionVectorToAxis */
MDAP[1]	/* MoveDirectAbsPt */
ALIGNRP[ ]	/* AlignRelativePt */
MDRP[00100]	/* MoveDirectRelPt */
SHP[0]	/* ShiftPointByLastPoint */
MDRP[10100]	/* MoveDirectRelPt */
ALIGNRP[ ]	/* AlignRelativePt */
ALIGNRP[ ]	/* AlignRelativePt */
MIRP[01100]	/* MoveIndirectRelPt */
SHP[0]	/* ShiftPointByLastPoint */
SHP[0]	/* ShiftPointByLastPoint */
MDRP[10100]	/* MoveDirectRelPt */
ALIGNRP[ ]	/* AlignRelativePt */
ALIGNRP[ ]	/* AlignRelativePt */
MIRP[01100]	/* MoveIndirectRelPt */
SHP[0]	/* ShiftPointByLastPoint */
SHP[0]	/* ShiftPointByLastPoint */
IUP[0]	/* InterpolateUntPts */";
};
width = 1233;
}
);
note = numbersign;
unicode = 35;
},
{
glyphname = dollar;
lastChange = "2026-05-20 11:40:44 +0000";
layers = (
{
layerId = m01;
shapes = (
{
closed = 1;
nodes = (
(854.667,554.667,o),
(926,489,o),
(926,365,cs),
(926,231.667,o),
(838.667,150,o),
(692,146,c),
(692,580,l),
(692,580,l)
);
},
{
closed = 1;
nodes = (
(442.667,792.667,o),
(371,858.333,o),
(371,973,cs),
(371,1098.333,o),
(453.333,1177.667,o),
(592,1183,c),
(592,770,l),
(592,770,l)
);
},
{
closed = 1;
nodes = (
(943.667,14,o),
(1114,165.667,o),
(1114,371,cs),
(1114,576.333,o),
(966.667,708.667,o),
(692,750,c),
(692,1181,l),
(798.667,1175.667,o),
(904.667,1144.333,o),
(1018,1087,c),
(1018,1260,l),
(906,1294.667,o),
(798.333,1314.333,o),
(693,1321,c),
(692,1556,l),
(592,1556,l),
(592,1321,l),
(337.333,1302.333,o),
(190,1172.333,o),
(190,963,cs),
(190,763,o),
(325.333,641.333,o),
(592,600,c),
(592,142,l),
(460,144.667,o),
(323.333,189.333,o),
(190,272,c),
(190,92,l),
(320.667,37.333,o),
(455,6.667,o),
(591,0,c),
(592,-301,l),
(692,-301,l),
(693,2,l),
(693,2,l)
);
}
);
userData = {
assembly = "NPUSHB[ ]	/* 57 values pushed */
8 40 36 0 7 41 24 4 37 20 47 16 23 19 1 37 139 36 142 31 40 143 30 20 139 19 142 1 143 14 33 30 16 4 6 36 8 44 5 0 11 6 27 19 5 40 32 14 3 0 7 30 23 15 3 7 48
SRP0[ ]	/* SetRefPoint0 */
MDRP[10100]	/* MoveDirectRelPt */
SLOOP[ ]	/* SetLoopVariable */
ALIGNRP[ ]	/* AlignRelativePt */
MIRP[01100]	/* MoveIndirectRelPt */
SLOOP[ ]	/* SetLoopVariable */
SHP[0]	/* ShiftPointByLastPoint */
MIRP[11100]	/* MoveIndirectRelPt */
ALIGNRP[ ]	/* AlignRelativePt */
MIRP[01100]	/* MoveIndirectRelPt */
SRP0[ ]	/* SetRefPoint0 */
MIRP[11100]	/* MoveIndirectRelPt */
MIRP[00100]	/* MoveIndirectRelPt */
MIRP[01110]	/* MoveIndirectRelPt */
IUP[1]	/* InterpolateUntPts */
SVTCA[0]	/* SetFreedomAndProjectionVectorToAxis */
MDAP[1]	/* MoveDirectAbsPt */
MDRP[00110]	/* MoveDirectRelPt */
SHP[0]	/* ShiftPointByLastPoint */
MDRP[00100]	/* MoveDirectRelPt */
MIRP[01110]	/* MoveIndirectRelPt */
MIRP[10110]	/* MoveIndirectRelPt */
MIRP[01110]	/* MoveIndirectRelPt */
SRP0[ ]	/* SetRefPoint0 */
MIRP[01110]	/* MoveIndirectRelPt */
MDRP[00110]	/* MoveDirectRelPt */
MIRP[10110]	/* MoveIndirectRelPt */
MIRP[01110]	/* MoveIndirectRelPt */
SRP1[ ]	/* SetRefPoint1 */
SRP2[ ]	/* SetRefPoint2 */
IP[ ]	/* InterpolatePts */
SRP1[ ]	/* SetRefPoint1 */
IP[ ]	/* InterpolatePts */
SRP1[ ]	/* SetRefPoint1 */
SRP2[ ]	/* SetRefPoint2 */
SLOOP[ ]	/* SetLoopVariable */
IP[ ]	/* InterpolatePts */
SRP1[ ]	/* SetRefPoint1 */
SRP2[ ]	/* SetRefPoint2 */
IP[ ]	/* InterpolatePts */
IUP[0]	/* InterpolateUntPts */";
};
width = 1233;
},
{
layerId = "281C21A4-45D9-482C-B928-385594A59359";
shapes = (
{
closed = 1;
nodes = (
(846,562.667,o),
(904,510,o),
(904,406,cs),
(904,251.333,o),
(788,145,o),
(616,145,c),
(702,588,l),
(702,588,l)
);
},
{
closed = 1;
nodes = (
(494.667,804.667,o),
(446,848,o),
(446,940,cs),
(446,1072,o),
(557.333,1173.333,o),
(716,1184,c),
(636,774,l),
(636,774,l)
);
},
{
closed = 1;
nodes = (
(597,2,ls),
(885,2,o),
(1087,180.667,o),
(1087,426,cs),
(1087,599.333,o),
(967,710.667,o),
(735,756,c),
(816,1182,l),
(934.667,1171.333,o),
(1037.333,1140.333,o),
(1124,1087,c),
(1156,1260,l),
(1060,1292,o),
(956.333,1313,o),
(843,1321,c),
(890,1556,l),
(790,1556,l),
(742,1321,l),
(463.333,1311.667,o),
(268,1141.667,o),
(268,911,cs),
(268,744.333,o),
(368.333,652.667,o),
(603,606,c),
(513,141,l),
(374.333,147.667,o),
(247,192,o),
(139,272,c),
(104,92,l),
(230.667,34.667,o),
(359.333,4,o),
(486,0,c),
(427,-301,l),
(528,-301,l),
(587,2,l),
(587,2,l)
);
}
);
userData = {
assembly = "NPUSHB[ ]	/* 64 values pushed */
40 8 0 7 41 24 4 37 20 47 48 16 23 19 1 37 87 36 90 31 8 88 30 20 87 19 90 1 88 14 33 30 16 15 27 48 32 31 14 8 7 1 0 8 23 24 30 33 40 41 47 16 8 11 4 37 36 4 7 44 11 7 27 49
SRP0[ ]	/* SetRefPoint0 */
MDRP[10100]	/* MoveDirectRelPt */
MIRP[01100]	/* MoveIndirectRelPt */
MDRP[10100]	/* MoveDirectRelPt */
MIRP[01100]	/* MoveIndirectRelPt */
MDRP[00000]	/* MoveDirectRelPt */
MDRP[00000]	/* MoveDirectRelPt */
SRP1[ ]	/* SetRefPoint1 */
SRP2[ ]	/* SetRefPoint2 */
SLOOP[ ]	/* SetLoopVariable */
IP[ ]	/* InterpolatePts */
SLOOP[ ]	/* SetLoopVariable */
IP[ ]	/* InterpolatePts */
SRP1[ ]	/* SetRefPoint1 */
IP[ ]	/* InterpolatePts */
IUP[1]	/* InterpolateUntPts */
SVTCA[0]	/* SetFreedomAndProjectionVectorToAxis */
MDAP[1]	/* MoveDirectAbsPt */
MDRP[00100]	/* MoveDirectRelPt */
SHP[0]	/* ShiftPointByLastPoint */
MDRP[00100]	/* MoveDirectRelPt */
MIRP[01100]	/* MoveIndirectRelPt */
MIRP[10100]	/* MoveIndirectRelPt */
MIRP[01100]	/* MoveIndirectRelPt */
SRP0[ ]	/* SetRefPoint0 */
MIRP[01110]	/* MoveIndirectRelPt */
MDRP[00110]	/* MoveDirectRelPt */
MIRP[10110]	/* MoveIndirectRelPt */
MIRP[01110]	/* MoveIndirectRelPt */
SRP1[ ]	/* SetRefPoint1 */
SRP2[ ]	/* SetRefPoint2 */
IP[ ]	/* InterpolatePts */
SRP1[ ]	/* SetRefPoint1 */
IP[ ]	/* InterpolatePts */
IP[ ]	/* InterpolatePts */
SRP1[ ]	/* SetRefPoint1 */
SRP2[ ]	/* SetRefPoint2 */
SLOOP[ ]	/* SetLoopVariable */
IP[ ]	/* InterpolatePts */
SRP1[ ]	/* SetRefPoint1 */
IP[ ]	/* InterpolatePts */
IUP[0]	/* InterpolateUntPts */";
};
width = 1233;
}
);
note = dollar;
unicode = 36;
},
{
glyphname = percent;
lastChange = "2026-05-20 11:40:44 +0000";
layers = (
{
guides = (
{
angle = 225.9995;
pos = (560,828);
},
{
angle = 46.0681;
pos = (675,729);
}
);
layerId = m01;
shapes = (
{
closed = 1;
nodes = (
(696,424.333,o),
(775,504,o),
(879,504,cs),
(980.333,504,o),
(1063,421.667,o),
(1063,319,cs),
(1063,216.333,o),
(981.667,135,o),
(879,135,cs),
(775,135,o),
(696,215,o),
(696,319,cs)
);
},
{
closed = 1;
nodes = (
(561,137.667,o),
(697.667,0,o),
(879,0,cs),
(1059,0,o),
(1200,141.667,o),
(1200,319,cs),
(1200,403,o),
(1165.333,482.333,o),
(1104,545,cs),
(1042.667,606.333,o),
(964.333,639,o),
(879,639,cs),
(700.333,639,o),
(561,499,o),
(561,319,cs)
);
},
{
closed = 1;
nodes = (
(1128,979,l),
(86,561,l),
(121,465,l),
(1169,883,l),
(1169,883,l)
);
},
{
closed = 1;
nodes = (
(168,1216,o),
(249.333,1296,o),
(352,1296,cs),
(454.667,1296,o),
(537,1214.667,o),
(537,1112,cs),
(537,1009.333,o),
(454.667,928,o),
(352,928,cs),
(246.667,928,o),
(168,1006.667,o),
(168,1112,cs)
);
},
{
closed = 1;
nodes = (
(33,932,o),
(172,793,o),
(352,793,cs),
(530.667,793,o),
(672,933.333,o),
(672,1112,cs),
(672,1198.667,o),
(638,1279,o),
(578,1339,cs),
(518,1399,o),
(437.333,1432,o),
(352,1432,cs),
(172,1432,o),
(33,1292,o),
(33,1112,cs)
);
}
);
userData = {
assembly = "NPUSHB[ ]	/* 47 values pushed */
30 55 29 40 34 28 15 27 3 9 146 15 34 146 55 147 40 146 46 145 15 147 3 146 24 28 27 43 31 30 29 6 10 21 11 0 10 12 37 10 52 11 31 10 43 12 58
SRP0[ ]	/* SetRefPoint0 */
MDRP[00100]	/* MoveDirectRelPt */
MDRP[10100]	/* MoveDirectRelPt */
MIRP[01100]	/* MoveIndirectRelPt */
MIRP[11100]	/* MoveIndirectRelPt */
MIRP[01100]	/* MoveIndirectRelPt */
SRP0[ ]	/* SetRefPoint0 */
MIRP[01110]	/* MoveIndirectRelPt */
MIRP[11110]	/* MoveIndirectRelPt */
MIRP[01110]	/* MoveIndirectRelPt */
IP[ ]	/* InterpolatePts */
IP[ ]	/* InterpolatePts */
SRP1[ ]	/* SetRefPoint1 */
SRP2[ ]	/* SetRefPoint2 */
IP[ ]	/* InterpolatePts */
IP[ ]	/* InterpolatePts */
IUP[1]	/* InterpolateUntPts */
SVTCA[0]	/* SetFreedomAndProjectionVectorToAxis */
MDAP[1]	/* MoveDirectAbsPt */
MIRP[01110]	/* MoveIndirectRelPt */
MIRP[01110]	/* MoveIndirectRelPt */
MIRP[10110]	/* MoveIndirectRelPt */
MIRP[01110]	/* MoveIndirectRelPt */
MIRP[11110]	/* MoveIndirectRelPt */
MIRP[01110]	/* MoveIndirectRelPt */
SRP0[ ]	/* SetRefPoint0 */
MIRP[01110]	/* MoveIndirectRelPt */
SRP1[ ]	/* SetRefPoint1 */
IP[ ]	/* InterpolatePts */
SRP1[ ]	/* SetRefPoint1 */
IP[ ]	/* InterpolatePts */
SRP1[ ]	/* SetRefPoint1 */
SRP2[ ]	/* SetRefPoint2 */
IP[ ]	/* InterpolatePts */
SRP2[ ]	/* SetRefPoint2 */
IP[ ]	/* InterpolatePts */
IUP[0]	/* InterpolateUntPts */";
};
width = 1233;
},
{
layerId = "281C21A4-45D9-482C-B928-385594A59359";
shapes = (
{
closed = 1;
nodes = (
(696,424.333,o),
(775,504,o),
(879,504,cs),
(980.333,504,o),
(1063,421.667,o),
(1063,319,cs),
(1063,216.333,o),
(981.667,135,o),
(879,135,cs),
(775,135,o),
(696,215,o),
(696,319,cs)
);
},
{
closed = 1;
nodes = (
(561,137.667,o),
(697.667,0,o),
(879,0,cs),
(1059,0,o),
(1200,141.667,o),
(1200,319,cs),
(1200,403,o),
(1165.333,482.333,o),
(1104,545,cs),
(1042.667,606.333,o),
(964.333,639,o),
(879,639,cs),
(700.333,639,o),
(561,499,o),
(561,319,cs)
);
},
{
closed = 1;
nodes = (
(1128,979,l),
(86,561,l),
(121,465,l),
(1169,883,l),
(1169,883,l)
);
},
{
closed = 1;
nodes = (
(168,1216,o),
(249.333,1296,o),
(352,1296,cs),
(454.667,1296,o),
(537,1214.667,o),
(537,1112,cs),
(537,1009.333,o),
(454.667,928,o),
(352,928,cs),
(246.667,928,o),
(168,1006.667,o),
(168,1112,cs)
);
},
{
closed = 1;
nodes = (
(33,932,o),
(172,793,o),
(352,793,cs),
(530.667,793,o),
(672,933.333,o),
(672,1112,cs),
(672,1198.667,o),
(638,1279,o),
(578,1339,cs),
(518,1399,o),
(437.333,1432,o),
(352,1432,cs),
(172,1432,o),
(33,1292,o),
(33,1112,cs)
);
}
);
userData = {
assembly = "NPUSHB[ ]	/* 47 values pushed */
30 55 29 40 34 28 15 27 3 9 93 15 34 93 55 94 40 93 46 92 15 94 3 93 24 28 27 43 31 30 29 6 9 21 10 0 9 12 37 9 52 10 31 9 43 12 58
SRP0[ ]	/* SetRefPoint0 */
MDRP[00100]	/* MoveDirectRelPt */
MDRP[10100]	/* MoveDirectRelPt */
MIRP[01100]	/* MoveIndirectRelPt */
MIRP[11100]	/* MoveIndirectRelPt */
MIRP[01100]	/* MoveIndirectRelPt */
SRP0[ ]	/* SetRefPoint0 */
MIRP[01110]	/* MoveIndirectRelPt */
MIRP[11110]	/* MoveIndirectRelPt */
MIRP[01110]	/* MoveIndirectRelPt */
IP[ ]	/* InterpolatePts */
IP[ ]	/* InterpolatePts */
SRP1[ ]	/* SetRefPoint1 */
SRP2[ ]	/* SetRefPoint2 */
IP[ ]	/* InterpolatePts */
IP[ ]	/* InterpolatePts */
IUP[1]	/* InterpolateUntPts */
SVTCA[0]	/* SetFreedomAndProjectionVectorToAxis */
MDAP[1]	/* MoveDirectAbsPt */
MIRP[01110]	/* MoveIndirectRelPt */
MIRP[01110]	/* MoveIndirectRelPt */
MIRP[10110]	/* MoveIndirectRelPt */
MIRP[01110]	/* MoveIndirectRelPt */
MIRP[11110]	/* MoveIndirectRelPt */
MIRP[01110]	/* MoveIndirectRelPt */
SRP0[ ]	/* SetRefPoint0 */
MIRP[01110]	/* MoveIndirectRelPt */
SRP1[ ]	/* SetRefPoint1 */
IP[ ]	/* InterpolatePts */
SRP1[ ]	/* SetRefPoint1 */
IP[ ]	/* InterpolatePts */
SRP1[ ]	/* SetRefPoint1 */
SRP2[ ]	/* SetRefPoint2 */
IP[ ]	/* InterpolatePts */
SRP2[ ]	/* SetRefPoint2 */
IP[ ]	/* InterpolatePts */
IUP[0]	/* InterpolateUntPts */";
};
width = 1233;
}
);
note = percent;
unicode = 37;
},
{
glyphname = ampersand;
lastChange = "2026-05-20 11:40:44 +0000";
layers = (
{
layerId = m01;
shapes = (
{
closed = 1;
nodes = (
(444.333,1044.333,o),
(412,1119.333,o),
(412,1198,cs),
(412,1300.667,o),
(491.667,1366,o),
(621,1366,cs),
(713,1366,o),
(795.333,1342,o),
(874,1290,c),
(874,1473,l),
(780.667,1503.667,o),
(694.667,1520,o),
(608,1520,cs),
(377.333,1520,o),
(236,1396,o),
(236,1196,cs),
(236,1101.333,o),
(267.333,1011,o),
(334,915,c),
(148.667,781.667,o),
(57,626.667,o),
(57,444,cs),
(57,172,o),
(267,-29,o),
(555,-29,cs),
(696.333,-29,o),
(819.333,15.667,o),
(930,109,c),
(1008,0,l),
(1221,0,l),
(1051,229,l),
(1151,346.333,o),
(1200,506.333,o),
(1200,721,cs),
(1200,760,l),
(1036,760,l),
(1037,753,ls),
(1039,706.333,o),
(1040,672.333,o),
(1040,651,cs),
(1040,512.333,o),
(1015,413.333,o),
(963,348,c),
(547,907,l),
(547,907,l)
);
},
{
closed = 1;
nodes = (
(822.667,205.667,o),
(802,192,o),
(766,172,cs),
(707.333,141.333,o),
(644,125,o),
(588,125,cs),
(381.333,125,o),
(233,273.667,o),
(233,475,cs),
(233,597.667,o),
(293.333,705.667,o),
(416,803,c),
(844,223,l),
(844,223,l)
);
}
);
userData = {
assembly = "NPUSHB[ ]	/* 98 values pushed */
17 16 2 18 15 23 12 13 12 14 23 13 13 12 45 44 2 46 43 23 0 1 0 50 51 52 53 54 5 49 55 23 1 1 0 66 55 12 9 6 1 5 7 15 49 13 24 0 43 3 34 7 49 151 18 34 33 37 151 30 150 18 153 7 13 0 40 1 7 6 3 33 12 8 4 55 43 33 24 40 27 15 33 4 19 8 40 18 33 27 8 13 16 27 46 18 21 56
SRP0[ ]	/* SetRefPoint0 */
MDRP[11100]	/* MoveDirectRelPt */
MIRP[01100]	/* MoveIndirectRelPt */
MDRP[00100]	/* MoveDirectRelPt */
MIRP[11100]	/* MoveIndirectRelPt */
MDRP[00100]	/* MoveDirectRelPt */
SRP0[ ]	/* SetRefPoint0 */
MDRP[00110]	/* MoveDirectRelPt */
MIRP[01110]	/* MoveIndirectRelPt */
SRP0[ ]	/* SetRefPoint0 */
MIRP[01110]	/* MoveIndirectRelPt */
SRP1[ ]	/* SetRefPoint1 */
IP[ ]	/* InterpolatePts */
SRP1[ ]	/* SetRefPoint1 */
SRP2[ ]	/* SetRefPoint2 */
IP[ ]	/* InterpolatePts */
SRP1[ ]	/* SetRefPoint1 */
IP[ ]	/* InterpolatePts */
IP[ ]	/* InterpolatePts */
SRP1[ ]	/* SetRefPoint1 */
SRP2[ ]	/* SetRefPoint2 */
IP[ ]	/* InterpolatePts */
SRP2[ ]	/* SetRefPoint2 */
SLOOP[ ]	/* SetLoopVariable */
IP[ ]	/* InterpolatePts */
SRP1[ ]	/* SetRefPoint1 */
IP[ ]	/* InterpolatePts */
IUP[1]	/* InterpolateUntPts */
SVTCA[0]	/* SetFreedomAndProjectionVectorToAxis */
MDAP[1]	/* MoveDirectAbsPt */
MDRP[00110]	/* MoveDirectRelPt */
MIRP[00100]	/* MoveIndirectRelPt */
MIRP[10110]	/* MoveIndirectRelPt */
MIRP[01110]	/* MoveIndirectRelPt */
MDRP[10110]	/* MoveDirectRelPt */
MDRP[01110]	/* MoveDirectRelPt */
SRP0[ ]	/* SetRefPoint0 */
MIRP[01110]	/* MoveIndirectRelPt */
SRP1[ ]	/* SetRefPoint1 */
SRP2[ ]	/* SetRefPoint2 */
SLOOP[ ]	/* SetLoopVariable */
IP[ ]	/* InterpolatePts */
SRP1[ ]	/* SetRefPoint1 */
SRP2[ ]	/* SetRefPoint2 */
IP[ ]	/* InterpolatePts */
SRP1[ ]	/* SetRefPoint1 */
SLOOP[ ]	/* SetLoopVariable */
IP[ ]	/* InterpolatePts */
IUP[0]	/* InterpolateUntPts */
MPPEM[ ]	/* MeasurePixelPerEm */
GTEQ[ ]	/* GreaterThanOrEqual */
IF[ ]	/* If */
SPVTL[1]	/* SetPVectorToLine */
SRP0[ ]	/* SetRefPoint0 */
SFVTPV[ ]	/* SetFVectorToPVector */
MIRP[01101]	/* MoveIndirectRelPt */
SRP1[ ]	/* SetRefPoint1 */
SLOOP[ ]	/* SetLoopVariable */
IP[ ]	/* InterpolatePts */
SPVTL[1]	/* SetPVectorToLine */
SRP0[ ]	/* SetRefPoint0 */
SFVTPV[ ]	/* SetFVectorToPVector */
MIRP[01101]	/* MoveIndirectRelPt */
SRP1[ ]	/* SetRefPoint1 */
SLOOP[ ]	/* SetLoopVariable */
IP[ ]	/* InterpolatePts */
SPVTL[1]	/* SetPVectorToLine */
SRP0[ ]	/* SetRefPoint0 */
SFVTCA[1]	/* SetFVectorToAxis */
MIRP[01101]	/* MoveIndirectRelPt */
SPVTL[1]	/* SetPVectorToLine */
SRP0[ ]	/* SetRefPoint0 */
SFVTCA[1]	/* SetFVectorToAxis */
MIRP[01101]	/* MoveIndirectRelPt */
SRP1[ ]	/* SetRefPoint1 */
SLOOP[ ]	/* SetLoopVariable */
IP[ ]	/* InterpolatePts */
EIF[ ]	/* EndIf */
CLEAR[ ]	/* ClearStack */";
};
width = 1233;
},
{
layerId = "281C21A4-45D9-482C-B928-385594A59359";
shapes = (
{
closed = 1;
nodes = (
(558.667,1003,o),
(528,1094.333,o),
(528,1157,cs),
(528,1282.333,o),
(627.333,1366,o),
(778,1366,cs),
(879.333,1366,o),
(962,1340.667,o),
(1018,1290,c),
(1053,1473,l),
(977,1503.667,o),
(893.667,1520,o),
(807,1520,cs),
(531,1520,o),
(354,1367,o),
(354,1135,cs),
(354,1061.667,o),
(373.333,989.333,o),
(412,920,c),
(161.333,782.667,o),
(25,584,o),
(25,360,cs),
(25,126.667,o),
(195,-29,o),
(455,-29,cs),
(593.667,-29,o),
(727.333,18.333,o),
(854,113,c),
(913,0,l),
(1112,0,l),
(989,221,l),
(1131.667,357,o),
(1212.333,536,o),
(1235,760,c),
(1067,760,l),
(1051,574.667,o),
(1001.667,438,o),
(919,350,c),
(612,907,l),
(612,907,l)
);
},
{
closed = 1;
nodes = (
(691.333,168,o),
(590.667,129,o),
(504,129,cs),
(332,129,o),
(203,249.333,o),
(203,408,cs),
(203,564,o),
(297,697.667,o),
(477,795,c),
(786,240,l),
(786,240,l)
);
}
);
userData = {
assembly = "NPUSHB[ ]	/* 97 values pushed */
41 1 42 40 19 20 19 39 48 39 20 20 19 12 1 13 11 4 8 9 8 10 4 9 9 8 47 1 46 48 4 1 1 0 40 1 41 39 4 0 1 0 58 48 39 8 4 1 5 0 20 30 11 9 45 99 14 30 87 29 98 33 99 26 97 14 101 9 30 10 0 3 36 29 9 5 4 1 8 11 48 4 29 20 39 36 4 23 29 4 4 5 42 4 23 17 49
SRP0[ ]	/* SetRefPoint0 */
MDRP[10100]	/* MoveDirectRelPt */
MDRP[00100]	/* MoveDirectRelPt */
MIRP[01100]	/* MoveIndirectRelPt */
MDRP[10100]	/* MoveDirectRelPt */
MIRP[11100]	/* MoveIndirectRelPt */
MDRP[00100]	/* MoveDirectRelPt */
SRP0[ ]	/* SetRefPoint0 */
MIRP[01110]	/* MoveIndirectRelPt */
IP[ ]	/* InterpolatePts */
IP[ ]	/* InterpolatePts */
SRP1[ ]	/* SetRefPoint1 */
SLOOP[ ]	/* SetLoopVariable */
IP[ ]	/* InterpolatePts */
SRP1[ ]	/* SetRefPoint1 */
SRP2[ ]	/* SetRefPoint2 */
IP[ ]	/* InterpolatePts */
SRP1[ ]	/* SetRefPoint1 */
SRP2[ ]	/* SetRefPoint2 */
SLOOP[ ]	/* SetLoopVariable */
IP[ ]	/* InterpolatePts */
IUP[1]	/* InterpolateUntPts */
SVTCA[0]	/* SetFreedomAndProjectionVectorToAxis */
MDAP[1]	/* MoveDirectAbsPt */
MIRP[00100]	/* MoveIndirectRelPt */
MIRP[10110]	/* MoveIndirectRelPt */
MIRP[01110]	/* MoveIndirectRelPt */
MIRP[10110]	/* MoveIndirectRelPt */
MIRP[01110]	/* MoveIndirectRelPt */
SRP0[ ]	/* SetRefPoint0 */
MIRP[01110]	/* MoveIndirectRelPt */
SRP1[ ]	/* SetRefPoint1 */
IP[ ]	/* InterpolatePts */
SRP1[ ]	/* SetRefPoint1 */
IP[ ]	/* InterpolatePts */
IP[ ]	/* InterpolatePts */
SLOOP[ ]	/* SetLoopVariable */
IP[ ]	/* InterpolatePts */
IUP[0]	/* InterpolateUntPts */
MPPEM[ ]	/* MeasurePixelPerEm */
GTEQ[ ]	/* GreaterThanOrEqual */
IF[ ]	/* If */
SPVTL[1]	/* SetPVectorToLine */
SRP0[ ]	/* SetRefPoint0 */
SFVTPV[ ]	/* SetFVectorToPVector */
MIRP[01101]	/* MoveIndirectRelPt */
SRP1[ ]	/* SetRefPoint1 */
SLOOP[ ]	/* SetLoopVariable */
IP[ ]	/* InterpolatePts */
SPVTL[1]	/* SetPVectorToLine */
SRP0[ ]	/* SetRefPoint0 */
SFVTPV[ ]	/* SetFVectorToPVector */
MIRP[01101]	/* MoveIndirectRelPt */
SRP1[ ]	/* SetRefPoint1 */
SLOOP[ ]	/* SetLoopVariable */
IP[ ]	/* InterpolatePts */
SPVTL[1]	/* SetPVectorToLine */
SRP0[ ]	/* SetRefPoint0 */
SFVTCA[1]	/* SetFVectorToAxis */
MIRP[01101]	/* MoveIndirectRelPt */
SPVTL[1]	/* SetPVectorToLine */
SRP0[ ]	/* SetRefPoint0 */
SFVTPV[ ]	/* SetFVectorToPVector */
MIRP[01101]	/* MoveIndirectRelPt */
SRP1[ ]	/* SetRefPoint1 */
SLOOP[ ]	/* SetLoopVariable */
IP[ ]	/* InterpolatePts */
SPVTL[1]	/* SetPVectorToLine */
SRP0[ ]	/* SetRefPoint0 */
SFVTL[0]	/* SetFVectorToLine */
MDRP[01001]	/* MoveDirectRelPt */
SPVTL[1]	/* SetPVectorToLine */
SRP0[ ]	/* SetRefPoint0 */
SFVTCA[0]	/* SetFVectorToAxis */
MDRP[01001]	/* MoveDirectRelPt */
SRP1[ ]	/* SetRefPoint1 */
SLOOP[ ]	/* SetLoopVariable */
IP[ ]	/* InterpolatePts */
EIF[ ]	/* EndIf */
CLEAR[ ]	/* ClearStack */";
};
width = 1233;
}
);
note = ampersand;
unicode = 38;
},
{
glyphname = quotesingle;
lastChange = "2026-05-20 11:40:44 +0000";
layers = (
{
layerId = m01;
shapes = (
{
closed = 1;
nodes = (
(524,938,l),
(708,938,l),
(708,1493,l),
(524,1493,l),
(524,1493,l)
);
}
);
userData = {
assembly = "PUSHB[ ]	/* 8 values pushed */
1 0 136 4 0 4 2 4
SRP0[ ]	/* SetRefPoint0 */
MDRP[10100]	/* MoveDirectRelPt */
MIRP[01100]	/* MoveIndirectRelPt */
IUP[1]	/* InterpolateUntPts */
SVTCA[0]	/* SetFreedomAndProjectionVectorToAxis */
SRP0[ ]	/* SetRefPoint0 */
MIRP[10100]	/* MoveIndirectRelPt */
MDRP[00100]	/* MoveDirectRelPt */
IUP[0]	/* InterpolateUntPts */";
};
width = 1233;
},
{
layerId = "281C21A4-45D9-482C-B928-385594A59359";
shapes = (
{
closed = 1;
nodes = (
(524,938,l),
(708,938,l),
(708,1493,l),
(524,1493,l),
(524,1493,l)
);
}
);
userData = {
assembly = "PUSHB[ ]	/* 8 values pushed */
1 0 81 4 0 6 2 4
SRP0[ ]	/* SetRefPoint0 */
MDRP[10100]	/* MoveDirectRelPt */
MIRP[01100]	/* MoveIndirectRelPt */
IUP[1]	/* InterpolateUntPts */
SVTCA[0]	/* SetFreedomAndProjectionVectorToAxis */
SRP0[ ]	/* SetRefPoint0 */
MIRP[10100]	/* MoveIndirectRelPt */
MDRP[00100]	/* MoveDirectRelPt */
IUP[0]	/* InterpolateUntPts */";
};
width = 1233;
}
);
note = quotesingle;
unicode = 39;
},
{
glyphname = parenleft;
lastChange = "2026-05-20 11:40:44 +0000";
layers = (
{
layerId = m01;
shapes = (
{
closed = 1;
nodes = (
(523.667,1239.333,o),
(426,940.333,o),
(426,643,cs),
(426,344.333,o),
(523.667,47.333,o),
(725,-270,c),
(885,-270,l),
(707.667,36.667,o),
(621,337.667,o),
(621,643,cs),
(621,949.667,o),
(707.667,1250,o),
(885,1554,c),
(725,1554,l),
(725,1554,l)
);
}
);
userData = {
assembly = "NPUSHB[ ]	/* 15 values pushed */
6 156 0 155 14 13 7 0 3 18 6 0 24 10 14
SRP0[ ]	/* SetRefPoint0 */
MDRP[10100]	/* MoveDirectRelPt */
MIRP[01100]	/* MoveIndirectRelPt */
SHP[0]	/* ShiftPointByLastPoint */
MIRP[01100]	/* MoveIndirectRelPt */
SRP1[ ]	/* SetRefPoint1 */
IP[ ]	/* InterpolatePts */
IP[ ]	/* InterpolatePts */
IUP[1]	/* InterpolateUntPts */
SVTCA[0]	/* SetFreedomAndProjectionVectorToAxis */
SRP0[ ]	/* SetRefPoint0 */
MIRP[11100]	/* MoveIndirectRelPt */
MIRP[01100]	/* MoveIndirectRelPt */
IUP[0]	/* InterpolateUntPts */";
};
width = 1233;
},
{
layerId = "281C21A4-45D9-482C-B928-385594A59359";
shapes = (
{
closed = 1;
nodes = (
(583,1184.667,o),
(409,779,o),
(409,375,cs),
(409,185.667,o),
(456.667,-18,o),
(562,-270,c),
(722,-270,l),
(642,-54,o),
(603,145.333,o),
(603,340,cs),
(603,742.667,o),
(763.333,1152.667,o),
(1078,1554,c),
(919,1554,l),
(919,1554,l)
);
}
);
userData = {
assembly = "NPUSHB[ ]	/* 14 values pushed */
6 104 0 103 14 7 10 6 13 0 3 11 10 14
SRP0[ ]	/* SetRefPoint0 */
MDRP[10100]	/* MoveDirectRelPt */
MIRP[11100]	/* MoveIndirectRelPt */
MDRP[00100]	/* MoveDirectRelPt */
IP[ ]	/* InterpolatePts */
IP[ ]	/* InterpolatePts */
SRP2[ ]	/* SetRefPoint2 */
IP[ ]	/* InterpolatePts */
IUP[1]	/* InterpolateUntPts */
SVTCA[0]	/* SetFreedomAndProjectionVectorToAxis */
SRP0[ ]	/* SetRefPoint0 */
MIRP[11100]	/* MoveIndirectRelPt */
MIRP[01100]	/* MoveIndirectRelPt */
IUP[0]	/* InterpolateUntPts */";
};
width = 1233;
}
);
note = parenleft;
unicode = 40;
},
{
glyphname = parenright;
lastChange = "2026-05-20 11:40:44 +0000";
layers = (
{
layerId = m01;
shapes = (
{
closed = 1;
nodes = (
(525.333,1248.667,o),
(612,947,o),
(612,643,cs),
(612,340.333,o),
(525.333,39.333,o),
(348,-270,c),
(508,-270,l),
(709.333,44.667,o),
(807,343,o),
(807,643,cs),
(807,940.333,o),
(709.333,1239.333,o),
(508,1554,c),
(348,1554,l),
(348,1554,l)
);
}
);
userData = {
assembly = "NPUSHB[ ]	/* 15 values pushed */
7 156 0 155 14 7 1 11 8 0 24 4 18 11 14
SRP0[ ]	/* SetRefPoint0 */
MDRP[10100]	/* MoveDirectRelPt */
MIRP[11100]	/* MoveIndirectRelPt */
MIRP[01100]	/* MoveIndirectRelPt */
SHP[0]	/* ShiftPointByLastPoint */
SRP1[ ]	/* SetRefPoint1 */
IP[ ]	/* InterpolatePts */
IP[ ]	/* InterpolatePts */
IUP[1]	/* InterpolateUntPts */
SVTCA[0]	/* SetFreedomAndProjectionVectorToAxis */
SRP0[ ]	/* SetRefPoint0 */
MIRP[11100]	/* MoveIndirectRelPt */
MIRP[01100]	/* MoveIndirectRelPt */
IUP[0]	/* InterpolateUntPts */";
};
width = 1233;
},
{
layerId = "281C21A4-45D9-482C-B928-385594A59359";
shapes = (
{
closed = 1;
nodes = (
(682,99.333,o),
(856,505,o),
(856,909,cs),
(856,1098.333,o),
(807,1303.333,o),
(703,1554,c),
(543,1554,l),
(623,1338,o),
(662,1138.667,o),
(662,944,cs),
(662,540,o),
(501.667,130,o),
(187,-270,c),
(346,-270,l),
(346,-270,l)
);
}
);
userData = {
assembly = "NPUSHB[ ]	/* 15 values pushed */
0 104 6 103 14 7 10 6 13 0 10 11 0 3 14
SRP0[ ]	/* SetRefPoint0 */
MDRP[10100]	/* MoveDirectRelPt */
MDRP[00100]	/* MoveDirectRelPt */
MIRP[01100]	/* MoveIndirectRelPt */
SRP2[ ]	/* SetRefPoint2 */
IP[ ]	/* InterpolatePts */
IP[ ]	/* InterpolatePts */
SRP2[ ]	/* SetRefPoint2 */
IP[ ]	/* InterpolatePts */
IUP[1]	/* InterpolateUntPts */
SVTCA[0]	/* SetFreedomAndProjectionVectorToAxis */
SRP0[ ]	/* SetRefPoint0 */
MIRP[11100]	/* MoveIndirectRelPt */
MIRP[01100]	/* MoveIndirectRelPt */
IUP[0]	/* InterpolateUntPts */";
};
width = 1233;
}
);
note = parenright;
unicode = 41;
},
{
glyphname = asterisk;
lastChange = "2026-05-20 11:40:44 +0000";
layers = (
{
layerId = m01;
shapes = (
{
closed = 1;
nodes = (
(684,748,l),
(684,1190,l),
(549,1190,l),
(549,748,l),
(155,986,l),
(88,870,l),
(508,642,l),
(88,413,l),
(155,298,l),
(549,536,l),
(549,94,l),
(684,94,l),
(684,536,l),
(1078,298,l),
(1145,413,l),
(725,642,l),
(1145,870,l),
(1078,986,l),
(1078,986,l)
);
}
);
userData = {
assembly = "NPUSHB[ ]	/* 44 values pushed */
16 13 11 0 4 12 9 7 4 2 4 8 3 157 5 17 12 157 10 1 14 150 18 8 12 10 3 9 6 17 3 1 3 2 0 25 15 4 11 9 25 13 6 18
SRP0[ ]	/* SetRefPoint0 */
MDRP[10100]	/* MoveDirectRelPt */
ALIGNRP[ ]	/* AlignRelativePt */
MIRP[01100]	/* MoveIndirectRelPt */
SHP[0]	/* ShiftPointByLastPoint */
MDRP[11100]	/* MoveDirectRelPt */
ALIGNRP[ ]	/* AlignRelativePt */
MIRP[01100]	/* MoveIndirectRelPt */
SHP[0]	/* ShiftPointByLastPoint */
SLOOP[ ]	/* SetLoopVariable */
IP[ ]	/* InterpolatePts */
SRP1[ ]	/* SetRefPoint1 */
SRP2[ ]	/* SetRefPoint2 */
SLOOP[ ]	/* SetLoopVariable */
IP[ ]	/* InterpolatePts */
IUP[1]	/* InterpolateUntPts */
SVTCA[0]	/* SetFreedomAndProjectionVectorToAxis */
SRP0[ ]	/* SetRefPoint0 */
MIRP[10100]	/* MoveIndirectRelPt */
MDRP[10100]	/* MoveDirectRelPt */
ALIGNRP[ ]	/* AlignRelativePt */
MIRP[01100]	/* MoveIndirectRelPt */
SHP[0]	/* ShiftPointByLastPoint */
MDRP[00100]	/* MoveDirectRelPt */
MIRP[01100]	/* MoveIndirectRelPt */
SHP[0]	/* ShiftPointByLastPoint */
SLOOP[ ]	/* SetLoopVariable */
IP[ ]	/* InterpolatePts */
SRP2[ ]	/* SetRefPoint2 */
SLOOP[ ]	/* SetLoopVariable */
IP[ ]	/* InterpolatePts */
IUP[0]	/* InterpolateUntPts */";
};
width = 1233;
},
{
layerId = "281C21A4-45D9-482C-B928-385594A59359";
shapes = (
{
closed = 1;
nodes = (
(684,748,l),
(684,1190,l),
(549,1190,l),
(549,748,l),
(155,986,l),
(88,870,l),
(508,642,l),
(88,413,l),
(155,298,l),
(549,536,l),
(549,94,l),
(684,94,l),
(684,536,l),
(1078,298,l),
(1145,413,l),
(725,642,l),
(1145,870,l),
(1078,986,l),
(1078,986,l)
);
}
);
userData = {
assembly = "NPUSHB[ ]	/* 44 values pushed */
16 13 11 0 4 12 9 7 4 2 4 8 3 105 5 17 12 105 10 1 14 97 18 8 12 10 3 9 6 17 3 1 3 2 0 12 15 4 11 9 12 13 6 18
SRP0[ ]	/* SetRefPoint0 */
MDRP[10100]	/* MoveDirectRelPt */
ALIGNRP[ ]	/* AlignRelativePt */
MIRP[01100]	/* MoveIndirectRelPt */
SHP[0]	/* ShiftPointByLastPoint */
MDRP[11100]	/* MoveDirectRelPt */
ALIGNRP[ ]	/* AlignRelativePt */
MIRP[01100]	/* MoveIndirectRelPt */
SHP[0]	/* ShiftPointByLastPoint */
SLOOP[ ]	/* SetLoopVariable */
IP[ ]	/* InterpolatePts */
SRP1[ ]	/* SetRefPoint1 */
SRP2[ ]	/* SetRefPoint2 */
SLOOP[ ]	/* SetLoopVariable */
IP[ ]	/* InterpolatePts */
IUP[1]	/* InterpolateUntPts */
SVTCA[0]	/* SetFreedomAndProjectionVectorToAxis */
SRP0[ ]	/* SetRefPoint0 */
MIRP[10100]	/* MoveIndirectRelPt */
MDRP[10100]	/* MoveDirectRelPt */
ALIGNRP[ ]	/* AlignRelativePt */
MIRP[01100]	/* MoveIndirectRelPt */
SHP[0]	/* ShiftPointByLastPoint */
MDRP[00100]	/* MoveDirectRelPt */
MIRP[01100]	/* MoveIndirectRelPt */
SHP[0]	/* ShiftPointByLastPoint */
SLOOP[ ]	/* SetLoopVariable */
IP[ ]	/* InterpolatePts */
SRP2[ ]	/* SetRefPoint2 */
SLOOP[ ]	/* SetLoopVariable */
IP[ ]	/* InterpolatePts */
IUP[0]	/* InterpolateUntPts */";
};
width = 1233;
}
);
note = asterisk;
unicode = 42;
},
{
glyphname = plus;
lastChange = "2026-05-20 11:40:44 +0000";
layers = (
{
layerId = m01;
shapes = (
{
closed = 1;
nodes = (
(532,732,l),
(88,732,l),
(88,552,l),
(532,552,l),
(532,108,l),
(701,108,l),
(701,552,l),
(1145,552,l),
(1145,732,l),
(701,732,l),
(701,1176,l),
(532,1176,l),
(532,1176,l)
);
}
);
userData = {
assembly = "NPUSHB[ ]	/* 20 values pushed */
0 161 9 1 160 5 161 7 3 12 2 26 4 0 28 8 26 10 6 12
SRP0[ ]	/* SetRefPoint0 */
MDRP[10100]	/* MoveDirectRelPt */
ALIGNRP[ ]	/* AlignRelativePt */
MIRP[01100]	/* MoveIndirectRelPt */
MIRP[11100]	/* MoveIndirectRelPt */
ALIGNRP[ ]	/* AlignRelativePt */
MIRP[01100]	/* MoveIndirectRelPt */
IUP[1]	/* InterpolateUntPts */
SVTCA[0]	/* SetFreedomAndProjectionVectorToAxis */
SRP0[ ]	/* SetRefPoint0 */
MDRP[10100]	/* MoveDirectRelPt */
ALIGNRP[ ]	/* AlignRelativePt */
MIRP[01100]	/* MoveIndirectRelPt */
MIRP[11100]	/* MoveIndirectRelPt */
ALIGNRP[ ]	/* AlignRelativePt */
MIRP[01100]	/* MoveIndirectRelPt */
IUP[0]	/* InterpolateUntPts */";
};
width = 1233;
},
{
layerId = "281C21A4-45D9-482C-B928-385594A59359";
shapes = (
{
closed = 1;
nodes = (
(532,732,l),
(88,732,l),
(88,552,l),
(532,552,l),
(532,108,l),
(701,108,l),
(701,552,l),
(1145,552,l),
(1145,732,l),
(701,732,l),
(701,1176,l),
(532,1176,l),
(532,1176,l)
);
}
);
userData = {
assembly = "NPUSHB[ ]	/* 20 values pushed */
0 109 9 1 108 5 109 7 3 12 2 13 4 0 15 8 13 10 6 12
SRP0[ ]	/* SetRefPoint0 */
MDRP[10100]	/* MoveDirectRelPt */
ALIGNRP[ ]	/* AlignRelativePt */
MIRP[01100]	/* MoveIndirectRelPt */
MIRP[11100]	/* MoveIndirectRelPt */
ALIGNRP[ ]	/* AlignRelativePt */
MIRP[01100]	/* MoveIndirectRelPt */
IUP[1]	/* InterpolateUntPts */
SVTCA[0]	/* SetFreedomAndProjectionVectorToAxis */
SRP0[ ]	/* SetRefPoint0 */
MDRP[10100]	/* MoveDirectRelPt */
ALIGNRP[ ]	/* AlignRelativePt */
MIRP[01100]	/* MoveIndirectRelPt */
MIRP[11100]	/* MoveIndirectRelPt */
ALIGNRP[ ]	/* AlignRelativePt */
MIRP[01100]	/* MoveIndirectRelPt */
IUP[0]	/* InterpolateUntPts */";
};
width = 1233;
}
);
note = plus;
unicode = 43;
},
{
glyphname = comma;
lastChange = "2026-05-20 11:40:44 +0000";
layers = (
{
layerId = m01;
shapes = (
{
closed = 1;
nodes = (
(382,-287,l),
(536,-287,l),
(751,96,l),
(751,324,l),
(481,324,l),
(481,96,l),
(481,96,l)
);
}
);
userData = {
assembly = "NPUSHB[ ]	/* 11 values pushed */
3 163 0 162 6 3 4 1 29 0 6
SRP0[ ]	/* SetRefPoint0 */
MDRP[10100]	/* MoveDirectRelPt */
MIRP[01100]	/* MoveIndirectRelPt */
MDRP[10100]	/* MoveDirectRelPt */
MDRP[01100]	/* MoveDirectRelPt */
IUP[1]	/* InterpolateUntPts */
SVTCA[0]	/* SetFreedomAndProjectionVectorToAxis */
SRP0[ ]	/* SetRefPoint0 */
MIRP[11100]	/* MoveIndirectRelPt */
MIRP[01100]	/* MoveIndirectRelPt */
IUP[0]	/* InterpolateUntPts */";
};
width = 1233;
},
{
guides = (
{
angle = 78.6561;
pos = (862,562);
},
{
angle = 258.6561;
pos = (592,562);
}
);
layerId = "281C21A4-45D9-482C-B928-385594A59359";
shapes = (
{
closed = 1;
nodes = (
(322,-287,l),
(475,-287,l),
(761,96,l),
(806,324,l),
(536,324,l),
(491,96,l),
(491,96,l)
);
}
);
userData = {
assembly = "NPUSHB[ ]	/* 25 values pushed */
4 3 2 5 2 16 5 0 5 1 16 0 5 58 3 111 0 110 6 1 5 2 4 0 6
SRP0[ ]	/* SetRefPoint0 */
MDRP[10100]	/* MoveDirectRelPt */
MDRP[00100]	/* MoveDirectRelPt */
MIRP[00100]	/* MoveIndirectRelPt */
MDRP[00000]	/* MoveDirectRelPt */
IUP[1]	/* InterpolateUntPts */
SVTCA[0]	/* SetFreedomAndProjectionVectorToAxis */
SRP0[ ]	/* SetRefPoint0 */
MIRP[11100]	/* MoveIndirectRelPt */
MIRP[01100]	/* MoveIndirectRelPt */
IUP[0]	/* InterpolateUntPts */
MPPEM[ ]	/* MeasurePixelPerEm */
GTEQ[ ]	/* GreaterThanOrEqual */
IF[ ]	/* If */
SPVTL[1]	/* SetPVectorToLine */
SFVTCA[1]	/* SetFVectorToAxis */
MIRP[01101]	/* MoveIndirectRelPt */
SPVTL[1]	/* SetPVectorToLine */
SRP0[ ]	/* SetRefPoint0 */
SFVTCA[1]	/* SetFVectorToAxis */
MIRP[01101]	/* MoveIndirectRelPt */
SRP1[ ]	/* SetRefPoint1 */
SLOOP[ ]	/* SetLoopVariable */
IP[ ]	/* InterpolatePts */
EIF[ ]	/* EndIf */
CLEAR[ ]	/* ClearStack */";
};
width = 1233;
}
);
note = comma;
unicode = 44;
},
{
glyphname = hyphen;
lastChange = "2026-05-20 11:40:44 +0000";
layers = (
{
layerId = m01;
shapes = (
{
closed = 1;
nodes = (
(1145,552,l),
(1145,732,l),
(88,732,l),
(88,552,l),
(88,552,l)
);
}
);
userData = {
assembly = "PUSHB[ ]	/* 7 values pushed */
0 160 2 4 1 0 4
SRP0[ ]	/* SetRefPoint0 */
MDRP[10100]	/* MoveDirectRelPt */
MDRP[00100]	/* MoveDirectRelPt */
IUP[1]	/* InterpolateUntPts */
SVTCA[0]	/* SetFreedomAndProjectionVectorToAxis */
SRP0[ ]	/* SetRefPoint0 */
MDRP[10100]	/* MoveDirectRelPt */
MIRP[01100]	/* MoveIndirectRelPt */
IUP[0]	/* InterpolateUntPts */";
};
width = 1233;
},
{
layerId = "281C21A4-45D9-482C-B928-385594A59359";
shapes = (
{
closed = 1;
nodes = (
(1145,552,l),
(1145,732,l),
(88,732,l),
(88,552,l),
(88,552,l)
);
}
);
userData = {
assembly = "PUSHB[ ]	/* 8 values pushed */
2 0 4 2 0 1 3 4
SRP0[ ]	/* SetRefPoint0 */
MDRP[10100]	/* MoveDirectRelPt */
MDRP[00100]	/* MoveDirectRelPt */
IP[ ]	/* InterpolatePts */
IP[ ]	/* InterpolatePts */
IUP[1]	/* InterpolateUntPts */
SVTCA[0]	/* SetFreedomAndProjectionVectorToAxis */
SRP0[ ]	/* SetRefPoint0 */
MDRP[10100]	/* MoveDirectRelPt */
MDRP[01100]	/* MoveDirectRelPt */
IUP[0]	/* InterpolateUntPts */";
};
width = 1233;
}
);
note = hyphen;
unicode = 45;
},
{
glyphname = period;
lastChange = "2026-05-20 11:40:44 +0000";
layers = (
{
layerId = m01;
shapes = (
{
closed = 1;
nodes = (
(751,0,l),
(751,324,l),
(481,324,l),
(481,0,l),
(481,0,l)
);
}
);
userData = {
assembly = "PUSHB[ ]	/* 7 values pushed */
0 162 2 1 29 0 4
SRP0[ ]	/* SetRefPoint0 */
MDRP[10100]	/* MoveDirectRelPt */
MIRP[01100]	/* MoveIndirectRelPt */
IUP[1]	/* InterpolateUntPts */
SVTCA[0]	/* SetFreedomAndProjectionVectorToAxis */
MDAP[1]	/* MoveDirectAbsPt */
MIRP[01100]	/* MoveIndirectRelPt */
IUP[0]	/* InterpolateUntPts */";
};
width = 1233;
},
{
guides = (
{
angle = 258.7992;
pos = (510,152);
},
{
angle = 180;
pos = (680,324);
}
);
layerId = "281C21A4-45D9-482C-B928-385594A59359";
shapes = (
{
closed = 1;
nodes = (
(641,0,l),
(706,324,l),
(436,324,l),
(371,0,l),
(371,0,l)
);
}
);
userData = {
assembly = "NPUSHB[ ]	/* 21 values pushed */
2 16 3 0 3 1 16 0 0 3 58 0 110 2 2 1 0 0 2 3 4
SRP0[ ]	/* SetRefPoint0 */
MDRP[10100]	/* MoveDirectRelPt */
MIRP[00100]	/* MoveIndirectRelPt */
SRP0[ ]	/* SetRefPoint0 */
MDRP[00000]	/* MoveDirectRelPt */
IP[ ]	/* InterpolatePts */
IUP[1]	/* InterpolateUntPts */
SVTCA[0]	/* SetFreedomAndProjectionVectorToAxis */
MDAP[1]	/* MoveDirectAbsPt */
MIRP[01100]	/* MoveIndirectRelPt */
IUP[0]	/* InterpolateUntPts */
MPPEM[ ]	/* MeasurePixelPerEm */
GTEQ[ ]	/* GreaterThanOrEqual */
IF[ ]	/* If */
SPVTL[1]	/* SetPVectorToLine */
SRP0[ ]	/* SetRefPoint0 */
SFVTCA[1]	/* SetFVectorToAxis */
MIRP[01101]	/* MoveIndirectRelPt */
SPVTL[1]	/* SetPVectorToLine */
SRP0[ ]	/* SetRefPoint0 */
SFVTCA[1]	/* SetFVectorToAxis */
MIRP[01101]	/* MoveIndirectRelPt */
EIF[ ]	/* EndIf */
CLEAR[ ]	/* ClearStack */";
};
width = 1233;
}
);
note = period;
unicode = 46;
},
{
glyphname = slash;
lastChange = "2026-05-20 11:40:44 +0000";
layers = (
{
layerId = m01;
shapes = (
{
closed = 1;
nodes = (
(285,-270,l),
(1138,1556,l),
(949,1556,l),
(95,-270,l),
(95,-270,l)
);
}
);
userData = {
assembly = "NPUSHB[ ]	/* 11 values pushed */
2 0 136 4 1 30 0 2 30 3 4
SRP0[ ]	/* SetRefPoint0 */
MDRP[10100]	/* MoveDirectRelPt */
MIRP[01100]	/* MoveIndirectRelPt */
MDRP[10100]	/* MoveDirectRelPt */
MIRP[01100]	/* MoveIndirectRelPt */
IUP[1]	/* InterpolateUntPts */
SVTCA[0]	/* SetFreedomAndProjectionVectorToAxis */
SRP0[ ]	/* SetRefPoint0 */
MIRP[10100]	/* MoveIndirectRelPt */
MDRP[00100]	/* MoveDirectRelPt */
IUP[0]	/* InterpolateUntPts */";
};
width = 1233;
},
{
layerId = "281C21A4-45D9-482C-B928-385594A59359";
shapes = (
{
closed = 1;
nodes = (
(1191,1556,l),
(1000,1556,l),
(75,-270,l),
(264,-270,l),
(264,-270,l)
);
}
);
userData = {
assembly = "NPUSHB[ ]	/* 12 values pushed */
58 0 1 81 4 2 1 3 18 1 0 4
SRP0[ ]	/* SetRefPoint0 */
MDRP[10100]	/* MoveDirectRelPt */
MDRP[00100]	/* MoveDirectRelPt */
MIRP[01100]	/* MoveIndirectRelPt */
SRP0[ ]	/* SetRefPoint0 */
MDRP[00000]	/* MoveDirectRelPt */
IUP[1]	/* InterpolateUntPts */
SVTCA[0]	/* SetFreedomAndProjectionVectorToAxis */
SRP0[ ]	/* SetRefPoint0 */
MIRP[10100]	/* MoveIndirectRelPt */
MDRP[00100]	/* MoveDirectRelPt */
IUP[0]	/* InterpolateUntPts */
MPPEM[ ]	/* MeasurePixelPerEm */
GTEQ[ ]	/* GreaterThanOrEqual */
IF[ ]	/* If */
EIF[ ]	/* EndIf */
CLEAR[ ]	/* ClearStack */";
};
width = 1233;
}
);
note = slash;
unicode = 47;
},
{
glyphname = zero;
lastChange = "2026-05-20 11:40:44 +0000";
layers = (
{
layerId = m01;
shapes = (
{
closed = 1;
nodes = (
(711,1360,o),
(781,1310,o),
(828,1208,cs),
(833,1196,o),
(837,1186,o),
(842,1174,c),
(353,478,l),
(342,553,o),
(336,643,o),
(336,745,cs),
(336,952,o),
(359,1106,o),
(406,1208,cs),
(452,1309,o),
(522,1360,o),
(616,1360,cs)
);
},
{
closed = 1;
nodes = (
(297,1520,o),
(133,1256,o),
(133,745,cs),
(133,236,o),
(297,-29,o),
(616,-29,cs),
(935,-29,o),
(1100,236,o),
(1100,745,cs),
(1100,1256,o),
(935,1520,o),
(616,1520,cs)
);
},
{
closed = 1;
nodes = (
(880,1013,l),
(891,937,o),
(897,847,o),
(897,745,cs),
(897,538,o),
(874,384,o),
(828,283,cs),
(781,181,o),
(711,131,o),
(616,131,cs),
(522,131,o),
(452,182,o),
(406,283,cs),
(401,294,o),
(396,306,o),
(392,317,c)
);
}
);
userData = {
assembly = "NPUSHB[ ]	/* 26 values pushed */
3 165 9 18 151 30 12 151 24 150 30 153 36 21 30 27 6 33 0 27 34 15 30 33 31 36
SRP0[ ]	/* SetRefPoint0 */
MIRP[11100]	/* MoveIndirectRelPt */
MIRP[01100]	/* MoveIndirectRelPt */
MIRP[01100]	/* MoveIndirectRelPt */
MDRP[10100]	/* MoveDirectRelPt */
MIRP[01100]	/* MoveIndirectRelPt */
SRP0[ ]	/* SetRefPoint0 */
MIRP[01110]	/* MoveIndirectRelPt */
IUP[1]	/* InterpolateUntPts */
SVTCA[0]	/* SetFreedomAndProjectionVectorToAxis */
SRP0[ ]	/* SetRefPoint0 */
MIRP[00100]	/* MoveIndirectRelPt */
MIRP[10100]	/* MoveIndirectRelPt */
MIRP[01100]	/* MoveIndirectRelPt */
SRP0[ ]	/* SetRefPoint0 */
MIRP[01110]	/* MoveIndirectRelPt */
MDRP[10100]	/* MoveDirectRelPt */
MIRP[01110]	/* MoveIndirectRelPt */
IUP[0]	/* InterpolateUntPts */
NPUSHB[ ]	/* 214 values pushed */
47 0 47 1 47 2 47 3 47 4 47 5 47 6 47 7 47 8 47 9 47 10 47 11 63 0 63 1 63 2 63 3 63 4 63 5 63 6 63 7 63 8 63 9 63 10 63 11 79 0 79 1 79 2 79 10 79 11 95 0 95 1 95 2 95 10 95 11 159 0 159 1 159 2 159 3 159 4 159 5 159 6 159 7 159 8 159 9 159 10 159 11 175 0 175 1 175 2 175 3 175 4 175 5 175 6 175 7 175 8 175 9 175 10 175 11 191 0 191 1 191 2 191 3 191 4 191 5 191 6 191 7 191 8 191 9 191 10 191 11 70 47 0 47 1 47 2 47 3 47 4 47 5 47 6 47 7 47 8 47 9 47 10 47 11 95 0 95 1 95 2 95 3 95 4 95 5 95 6 95 7 95 8 95 9 95 10 95 11 191 0 191 1 191 2 191 3 191 4 191 5 191 6 191 7 191 8 191 9 191 10 191 11 36
DELTAP1[ ]	/* DeltaExceptionP1 */
SVTCA[1]	/* SetFreedomAndProjectionVectorToAxis */
DELTAP1[ ]	/* DeltaExceptionP1 */";
};
width = 1233;
},
{
layerId = "281C21A4-45D9-482C-B928-385594A59359";
shapes = (
{
closed = 1;
nodes = (
(712,-29,o),
(858,60,o),
(970,248,cs),
(1082,432,o),
(1169,765,o),
(1169,1020,cs),
(1169,1359,o),
(1044,1520,o),
(784,1520,cs),
(588,1520,o),
(445,1434,o),
(331,1245,cs),
(217,1056,o),
(132,729,o),
(132,473,cs),
(132,132,o),
(255,-29,o),
(515,-29,cs)
);
},
{
closed = 1;
nodes = (
(457,135,o),
(399,168,o),
(366,234,c),
(965,1096,l),
(966,1085,o),
(966,1074,o),
(966,1063,cs),
(966,828,o),
(896,521,o),
(804,334,cs),
(741,205,o),
(647,135,o),
(540,135,cs)
);
},
{
closed = 1;
nodes = (
(333,666,o),
(402,974,o),
(495,1159,cs),
(559,1286,o),
(654,1356,o),
(761,1356,cs),
(846,1356,o),
(902,1325,o),
(934,1256,c),
(333,392,l),
(333,398,o),
(333,406,o),
(333,414,cs)
);
}
);
userData = {
assembly = "NPUSHB[ ]	/* 22 values pushed */
3 9 30 99 18 39 99 27 97 18 101 48 6 0 36 19 12 0 45 19 21 48
SRP0[ ]	/* SetRefPoint0 */
MDRP[10100]	/* MoveDirectRelPt */
MIRP[01100]	/* MoveIndirectRelPt */
MDRP[00100]	/* MoveDirectRelPt */
MDRP[10100]	/* MoveDirectRelPt */
MIRP[01100]	/* MoveIndirectRelPt */
SRP0[ ]	/* SetRefPoint0 */
MDRP[00110]	/* MoveDirectRelPt */
IUP[1]	/* InterpolateUntPts */
SVTCA[0]	/* SetFreedomAndProjectionVectorToAxis */
SRP0[ ]	/* SetRefPoint0 */
MIRP[00100]	/* MoveIndirectRelPt */
MIRP[10100]	/* MoveIndirectRelPt */
MIRP[01100]	/* MoveIndirectRelPt */
SRP0[ ]	/* SetRefPoint0 */
MIRP[01110]	/* MoveIndirectRelPt */
MDRP[10100]	/* MoveDirectRelPt */
MDRP[00110]	/* MoveDirectRelPt */
IUP[0]	/* InterpolateUntPts */
NPUSHB[ ]	/* 146 values pushed */
47 0 47 1 47 2 47 3 47 4 47 5 47 6 47 7 47 8 47 9 47 10 47 11 79 0 79 1 79 2 79 3 79 4 79 5 79 6 79 7 79 8 79 9 79 10 79 11 143 0 143 1 143 2 143 3 143 4 143 5 143 6 143 7 143 8 143 9 143 10 143 11 159 0 159 1 159 2 159 3 159 4 159 5 159 6 159 7 159 8 159 9 159 10 159 11 48 47 0 47 1 47 2 47 3 47 4 47 5 47 6 47 7 47 8 47 9 47 10 47 11 192 0 192 1 192 2 192 3 192 4 192 5 192 6 192 7 192 8 192 9 192 10 192 11 24
DELTAP1[ ]	/* DeltaExceptionP1 */
SVTCA[1]	/* SetFreedomAndProjectionVectorToAxis */
DELTAP1[ ]	/* DeltaExceptionP1 */";
};
width = 1233;
}
);
note = zero;
unicode = 48;
},
{
glyphname = one;
lastChange = "2026-05-20 11:40:44 +0000";
layers = (
{
layerId = m01;
shapes = (
{
closed = 1;
nodes = (
(1094,0,l),
(1094,170,l),
(784,170,l),
(784,1493,l),
(582,1493,l),
(246,1419,l),
(246,1235,l),
(584,1311,l),
(584,170,l),
(270,170,l),
(270,0,l),
(270,0,l)
);
}
);
userData = {
assembly = "NPUSHB[ ]	/* 20 values pushed */
3 151 4 2 151 5 136 7 0 151 9 8 35 6 30 3 0 35 1 11
SRP0[ ]	/* SetRefPoint0 */
MDRP[10100]	/* MoveDirectRelPt */
MIRP[01100]	/* MoveIndirectRelPt */
MDRP[00100]	/* MoveDirectRelPt */
MIRP[11100]	/* MoveIndirectRelPt */
MIRP[01100]	/* MoveIndirectRelPt */
IUP[1]	/* InterpolateUntPts */
SVTCA[0]	/* SetFreedomAndProjectionVectorToAxis */
MDAP[1]	/* MoveDirectAbsPt */
MIRP[01100]	/* MoveIndirectRelPt */
SHP[0]	/* ShiftPointByLastPoint */
MIRP[10100]	/* MoveIndirectRelPt */
MIRP[01100]	/* MoveIndirectRelPt */
MDRP[10100]	/* MoveDirectRelPt */
MIRP[01100]	/* MoveIndirectRelPt */
IUP[0]	/* InterpolateUntPts */";
};
width = 1233;
},
{
layerId = "281C21A4-45D9-482C-B928-385594A59359";
shapes = (
{
closed = 1;
nodes = (
(985,0,l),
(1018,170,l),
(709,170,l),
(967,1493,l),
(764,1493,l),
(412,1419,l),
(377,1235,l),
(729,1311,l),
(508,170,l),
(195,170,l),
(162,0,l),
(162,0,l)
);
}
);
userData = {
assembly = "NPUSHB[ ]	/* 42 values pushed */
9 8 2 7 5 1 2 1 6 5 2 2 1 58 3 99 4 2 99 5 81 7 0 99 9 9 6 8 2 0 4 3 3 10 7 1 8 2 2 1 10 11
SRP0[ ]	/* SetRefPoint0 */
MDRP[10100]	/* MoveDirectRelPt */
MDRP[10100]	/* MoveDirectRelPt */
MDRP[00100]	/* MoveDirectRelPt */
SRP0[ ]	/* SetRefPoint0 */
MDRP[00000]	/* MoveDirectRelPt */
SRP2[ ]	/* SetRefPoint2 */
IP[ ]	/* InterpolatePts */
SRP1[ ]	/* SetRefPoint1 */
SLOOP[ ]	/* SetLoopVariable */
IP[ ]	/* InterpolatePts */
SRP1[ ]	/* SetRefPoint1 */
SRP2[ ]	/* SetRefPoint2 */
IP[ ]	/* InterpolatePts */
IP[ ]	/* InterpolatePts */
IUP[1]	/* InterpolateUntPts */
SVTCA[0]	/* SetFreedomAndProjectionVectorToAxis */
MDAP[1]	/* MoveDirectAbsPt */
MIRP[01100]	/* MoveIndirectRelPt */
SHP[0]	/* ShiftPointByLastPoint */
MIRP[10100]	/* MoveIndirectRelPt */
MIRP[01100]	/* MoveIndirectRelPt */
MDRP[10100]	/* MoveDirectRelPt */
MIRP[01100]	/* MoveIndirectRelPt */
IUP[0]	/* InterpolateUntPts */
MPPEM[ ]	/* MeasurePixelPerEm */
GTEQ[ ]	/* GreaterThanOrEqual */
IF[ ]	/* If */
SPVTL[1]	/* SetPVectorToLine */
SRP0[ ]	/* SetRefPoint0 */
SFVTCA[1]	/* SetFVectorToAxis */
MIRP[01101]	/* MoveIndirectRelPt */
SPVTL[1]	/* SetPVectorToLine */
SRP0[ ]	/* SetRefPoint0 */
SFVTCA[1]	/* SetFVectorToAxis */
MIRP[01101]	/* MoveIndirectRelPt */
SLOOP[ ]	/* SetLoopVariable */
SHP[0]	/* ShiftPointByLastPoint */
EIF[ ]	/* EndIf */
CLEAR[ ]	/* ClearStack */";
};
width = 1233;
}
);
note = one;
unicode = 49;
},
{
glyphname = two;
lastChange = "2026-05-20 11:40:44 +0000";
layers = (
{
layerId = m01;
shapes = (
{
closed = 1;
nodes = (
(518.333,322.667,o),
(626.5,437.333,o),
(697.5,514,cs),
(768.5,590.667,o),
(822.667,650.667,o),
(860,694,cs),
(993.333,848.667,o),
(1049,970,o),
(1049,1098,cs),
(1049,1350,o),
(855,1520,o),
(563,1520,cs),
(433.667,1520,o),
(301.333,1486.333,o),
(164,1421,c),
(164,1217,l),
(313.333,1306.333,o),
(445.667,1350,o),
(567,1350,cs),
(737.667,1350,o),
(842,1249.667,o),
(842,1083,cs),
(842,977.667,o),
(805.333,893.667,o),
(672,731,cs),
(601.333,648.333,o),
(401.333,432.667,o),
(152,170,c),
(152,0,l),
(1059,0,l),
(1059,170,l),
(373,170,l),
(373,170,l)
);
}
);
userData = {
assembly = "NPUSHB[ ]	/* 41 values pushed */
0 28 37 5 6 5 24 25 26 3 23 27 37 6 6 5 66 16 17 167 13 151 20 150 4 0 151 2 0 16 10 2 1 10 30 23 34 16 3 36 29
SRP0[ ]	/* SetRefPoint0 */
MIRP[11100]	/* MoveIndirectRelPt */
MDRP[00100]	/* MoveDirectRelPt */
MIRP[11100]	/* MoveIndirectRelPt */
MIRP[01100]	/* MoveIndirectRelPt */
MDRP[00000]	/* MoveDirectRelPt */
MDRP[00000]	/* MoveDirectRelPt */
SRP1[ ]	/* SetRefPoint1 */
SRP2[ ]	/* SetRefPoint2 */
IP[ ]	/* InterpolatePts */
IUP[1]	/* InterpolateUntPts */
SVTCA[0]	/* SetFreedomAndProjectionVectorToAxis */
MDAP[1]	/* MoveDirectAbsPt */
MIRP[01100]	/* MoveIndirectRelPt */
SHP[0]	/* ShiftPointByLastPoint */
MIRP[10100]	/* MoveIndirectRelPt */
MIRP[01100]	/* MoveIndirectRelPt */
MIRP[10100]	/* MoveIndirectRelPt */
MDRP[01100]	/* MoveDirectRelPt */
IUP[0]	/* InterpolateUntPts */
MPPEM[ ]	/* MeasurePixelPerEm */
GTEQ[ ]	/* GreaterThanOrEqual */
IF[ ]	/* If */
SPVTL[1]	/* SetPVectorToLine */
SRP0[ ]	/* SetRefPoint0 */
SFVTCA[1]	/* SetFVectorToAxis */
MIRP[01101]	/* MoveIndirectRelPt */
SRP1[ ]	/* SetRefPoint1 */
SLOOP[ ]	/* SetLoopVariable */
IP[ ]	/* InterpolatePts */
SPVTL[1]	/* SetPVectorToLine */
SRP0[ ]	/* SetRefPoint0 */
SFVTCA[1]	/* SetFVectorToAxis */
MIRP[01101]	/* MoveIndirectRelPt */
SLOOP[ ]	/* SetLoopVariable */
SHP[0]	/* ShiftPointByLastPoint */
EIF[ ]	/* EndIf */
CLEAR[ ]	/* ClearStack */";
};
width = 1233;
},
{
layerId = "281C21A4-45D9-482C-B928-385594A59359";
shapes = (
{
closed = 1;
nodes = (
(736,547.333,o),
(824.667,625.333,o),
(882,678,cs),
(939.333,730.667,o),
(979,771,o),
(1001,799,cs),
(1110.333,936.333,o),
(1154,1043,o),
(1154,1171,cs),
(1154,1377.667,o),
(987.667,1520,o),
(741,1520,cs),
(611.667,1520,o),
(472.333,1486.333,o),
(323,1421,c),
(282,1217,l),
(450,1307.667,o),
(589.333,1352,o),
(712,1352,cs),
(864,1352,o),
(954,1277,o),
(954,1153,cs),
(954,1017.667,o),
(775,793,o),
(417,479,cs),
(378,444,l),
(67,170,l),
(34,0,l),
(948,0,l),
(980,170,l),
(296,170,l),
(616,444,l),
(616,444,l)
);
}
);
userData = {
assembly = "NPUSHB[ ]	/* 49 values pushed */
0 5 5 6 5 23 24 25 26 4 22 27 5 6 6 5 58 6 11 5 27 5 0 14 15 113 11 99 18 97 4 0 99 2 1 21 14 6 2 0 4 15 27 3 8 19 21 3 28
SRP0[ ]	/* SetRefPoint0 */
MDRP[10100]	/* MoveDirectRelPt */
MDRP[10100]	/* MoveDirectRelPt */
MIRP[01100]	/* MoveIndirectRelPt */
SRP1[ ]	/* SetRefPoint1 */
IP[ ]	/* InterpolatePts */
IP[ ]	/* InterpolatePts */
SLOOP[ ]	/* SetLoopVariable */
IP[ ]	/* InterpolatePts */
SRP1[ ]	/* SetRefPoint1 */
IP[ ]	/* InterpolatePts */
IUP[1]	/* InterpolateUntPts */
SVTCA[0]	/* SetFreedomAndProjectionVectorToAxis */
MDAP[1]	/* MoveDirectAbsPt */
MIRP[01100]	/* MoveIndirectRelPt */
SHP[0]	/* ShiftPointByLastPoint */
MIRP[10100]	/* MoveIndirectRelPt */
MIRP[01100]	/* MoveIndirectRelPt */
MIRP[10100]	/* MoveIndirectRelPt */
MDRP[00100]	/* MoveDirectRelPt */
SRP1[ ]	/* SetRefPoint1 */
IP[ ]	/* InterpolatePts */
IP[ ]	/* InterpolatePts */
SRP1[ ]	/* SetRefPoint1 */
SRP2[ ]	/* SetRefPoint2 */
IP[ ]	/* InterpolatePts */
IUP[0]	/* InterpolateUntPts */
MPPEM[ ]	/* MeasurePixelPerEm */
GTEQ[ ]	/* GreaterThanOrEqual */
IF[ ]	/* If */
SPVTL[1]	/* SetPVectorToLine */
SRP0[ ]	/* SetRefPoint0 */
SFVTCA[1]	/* SetFVectorToAxis */
MIRP[01101]	/* MoveIndirectRelPt */
SRP1[ ]	/* SetRefPoint1 */
SLOOP[ ]	/* SetLoopVariable */
IP[ ]	/* InterpolatePts */
SPVTL[1]	/* SetPVectorToLine */
SRP0[ ]	/* SetRefPoint0 */
SFVTCA[1]	/* SetFVectorToAxis */
MIRP[01101]	/* MoveIndirectRelPt */
EIF[ ]	/* EndIf */
CLEAR[ ]	/* ClearStack */";
};
width = 1233;
}
);
note = two;
unicode = 50;
},
{
glyphname = three;
lastChange = "2026-05-20 11:40:44 +0000";
layers = (
{
layerId = m01;
shapes = (
{
closed = 1;
nodes = (
(950.667,844.333,o),
(1044,956,o),
(1044,1120,cs),
(1044,1361.333,o),
(855.667,1520,o),
(565,1520,cs),
(467.667,1520,o),
(343.333,1498.667,o),
(182,1456,c),
(182,1270,l),
(320.667,1323.333,o),
(446.333,1350,o),
(565,1350,cs),
(743.667,1350,o),
(844,1265.333,o),
(844,1112,cs),
(844,966.667,o),
(734.333,881,o),
(549,881,cs),
(395,881,l),
(395,715,l),
(549,715,ls),
(751.667,715,o),
(879,605.333,o),
(879,432,cs),
(879,244,o),
(756.333,141,o),
(535,141,cs),
(404.333,141,o),
(273,175.333,o),
(137,246,c),
(137,45,l),
(274.333,-3,o),
(419.667,-29,o),
(557,-29,cs),
(883.667,-29,o),
(1079,137.333,o),
(1079,412,cs),
(1079,610.667,o),
(972,747,o),
(776,799,c)
);
}
);
userData = {
assembly = "NPUSHB[ ]	/* 41 values pushed */
0 19 151 21 10 139 9 166 13 151 6 31 139 32 166 28 151 35 150 6 153 21 169 41 22 19 0 3 20 25 30 38 16 30 3 34 31 20 9 31 41
SRP0[ ]	/* SetRefPoint0 */
MIRP[11100]	/* MoveIndirectRelPt */
MDRP[00100]	/* MoveDirectRelPt */
MDRP[00100]	/* MoveDirectRelPt */
MIRP[11100]	/* MoveIndirectRelPt */
MIRP[01100]	/* MoveIndirectRelPt */
MDRP[10100]	/* MoveDirectRelPt */
MIRP[01100]	/* MoveIndirectRelPt */
SRP1[ ]	/* SetRefPoint1 */
SLOOP[ ]	/* SetLoopVariable */
IP[ ]	/* InterpolatePts */
IUP[1]	/* InterpolateUntPts */
SVTCA[0]	/* SetFreedomAndProjectionVectorToAxis */
SRP0[ ]	/* SetRefPoint0 */
MIRP[01100]	/* MoveIndirectRelPt */
MIRP[00100]	/* MoveIndirectRelPt */
MIRP[10100]	/* MoveIndirectRelPt */
MIRP[01100]	/* MoveIndirectRelPt */
MIRP[10100]	/* MoveIndirectRelPt */
MIRP[01100]	/* MoveIndirectRelPt */
SRP0[ ]	/* SetRefPoint0 */
MIRP[01110]	/* MoveIndirectRelPt */
MIRP[10110]	/* MoveIndirectRelPt */
MIRP[01110]	/* MoveIndirectRelPt */
SRP0[ ]	/* SetRefPoint0 */
MIRP[01110]	/* MoveIndirectRelPt */
IP[ ]	/* InterpolatePts */
IUP[0]	/* InterpolateUntPts */";
};
width = 1233;
},
{
layerId = "281C21A4-45D9-482C-B928-385594A59359";
shapes = (
{
closed = 1;
nodes = (
(1033.667,843,o),
(1159,988,o),
(1159,1192,cs),
(1159,1394.667,o),
(1005.667,1520,o),
(755,1520,cs),
(643,1520,o),
(518,1500,o),
(354,1456,c),
(317,1270,l),
(467.667,1323.333,o),
(596.667,1350,o),
(706,1350,cs),
(878,1350,o),
(958,1288.333,o),
(958,1155,cs),
(958,989.667,o),
(824.667,881,o),
(614,881,cs),
(460,881,l),
(428,715,l),
(581,715,ls),
(765,715,o),
(862,633,o),
(862,477,cs),
(862,278.333,o),
(698.667,141,o),
(456,141,cs),
(325.333,141,o),
(198.333,176.667,o),
(77,246,c),
(39,45,l),
(164.333,-4.333,o),
(302,-29,o),
(446,-29,cs),
(819.333,-29,o),
(1061,177,o),
(1061,489,cs),
(1061,657,o),
(971,772.333,o),
(819,799,c)
);
}
);
userData = {
assembly = "NPUSHB[ ]	/* 43 values pushed */
0 19 99 21 10 87 9 113 13 99 6 31 87 32 113 28 99 35 97 6 101 21 41 21 20 19 10 4 41 22 31 32 0 4 9 16 19 3 25 19 38 9 41
SRP0[ ]	/* SetRefPoint0 */
MDRP[10100]	/* MoveDirectRelPt */
MDRP[10100]	/* MoveDirectRelPt */
MIRP[01100]	/* MoveIndirectRelPt */
MDRP[10100]	/* MoveDirectRelPt */
MIRP[01100]	/* MoveIndirectRelPt */
SRP1[ ]	/* SetRefPoint1 */
SLOOP[ ]	/* SetLoopVariable */
IP[ ]	/* InterpolatePts */
SRP1[ ]	/* SetRefPoint1 */
SLOOP[ ]	/* SetLoopVariable */
IP[ ]	/* InterpolatePts */
IUP[1]	/* InterpolateUntPts */
SVTCA[0]	/* SetFreedomAndProjectionVectorToAxis */
SRP0[ ]	/* SetRefPoint0 */
MDRP[00100]	/* MoveDirectRelPt */
MIRP[00100]	/* MoveIndirectRelPt */
MIRP[10100]	/* MoveIndirectRelPt */
MIRP[01100]	/* MoveIndirectRelPt */
MIRP[10100]	/* MoveIndirectRelPt */
MIRP[01100]	/* MoveIndirectRelPt */
SRP0[ ]	/* SetRefPoint0 */
MIRP[01110]	/* MoveIndirectRelPt */
MIRP[10110]	/* MoveIndirectRelPt */
MIRP[01110]	/* MoveIndirectRelPt */
SRP0[ ]	/* SetRefPoint0 */
MIRP[01110]	/* MoveIndirectRelPt */
IP[ ]	/* InterpolatePts */
IUP[0]	/* InterpolateUntPts */";
};
width = 1233;
}
);
note = three;
unicode = 51;
},
{
glyphname = four;
lastChange = "2026-05-20 11:40:44 +0000";
layers = (
{
layerId = m01;
shapes = (
{
closed = 1;
nodes = (
(264,520,l),
(735,1309,l),
(735,520,l),
(735,520,l)
);
},
{
closed = 1;
nodes = (
(102,356,l),
(735,356,l),
(735,0,l),
(936,0,l),
(936,356,l),
(1135,356,l),
(1135,520,l),
(936,520,l),
(936,1493,l),
(702,1493,l),
(102,547,l),
(102,547,l)
);
}
);
userData = {
assembly = "NPUSHB[ ]	/* 31 values pushed */
1 13 3 13 0 3 3 13 66 0 3 11 7 151 5 1 3 136 9 1 12 10 0 30 8 4 6 15 12 36 14
SRP0[ ]	/* SetRefPoint0 */
MIRP[11100]	/* MoveIndirectRelPt */
MIRP[11100]	/* MoveIndirectRelPt */
MDRP[10100]	/* MoveDirectRelPt */
ALIGNRP[ ]	/* AlignRelativePt */
MIRP[01100]	/* MoveIndirectRelPt */
SHP[0]	/* ShiftPointByLastPoint */
SRP1[ ]	/* SetRefPoint1 */
IP[ ]	/* InterpolatePts */
IUP[1]	/* InterpolateUntPts */
SVTCA[0]	/* SetFreedomAndProjectionVectorToAxis */
MDAP[1]	/* MoveDirectAbsPt */
MIRP[00100]	/* MoveIndirectRelPt */
MDRP[10100]	/* MoveDirectRelPt */
ALIGNRP[ ]	/* AlignRelativePt */
MIRP[01100]	/* MoveIndirectRelPt */
SHP[0]	/* ShiftPointByLastPoint */
SRP2[ ]	/* SetRefPoint2 */
IP[ ]	/* InterpolatePts */
IUP[0]	/* InterpolateUntPts */
MPPEM[ ]	/* MeasurePixelPerEm */
GTEQ[ ]	/* GreaterThanOrEqual */
IF[ ]	/* If */
SPVTL[1]	/* SetPVectorToLine */
SRP0[ ]	/* SetRefPoint0 */
SFVTCA[0]	/* SetFVectorToAxis */
MDRP[01001]	/* MoveDirectRelPt */
SPVTL[1]	/* SetPVectorToLine */
SRP0[ ]	/* SetRefPoint0 */
SFVTCA[1]	/* SetFVectorToAxis */
MDRP[01001]	/* MoveDirectRelPt */
EIF[ ]	/* EndIf */
CLEAR[ ]	/* ClearStack */";
};
width = 1233;
},
{
layerId = "281C21A4-45D9-482C-B928-385594A59359";
shapes = (
{
closed = 1;
nodes = (
(256,520,l),
(881,1282,l),
(729,520,l),
(729,520,l)
);
},
{
closed = 1;
nodes = (
(64,356,l),
(698,356,l),
(629,0,l),
(827,0,l),
(897,356,l),
(1096,356,l),
(1126,520,l),
(928,520,l),
(1118,1493,l),
(885,1493,l),
(100,547,l),
(100,547,l)
);
}
);
userData = {
assembly = "NPUSHB[ ]	/* 62 values pushed */
1 3 13 3 13 0 3 2 0 3 3 13 11 5 8 9 8 10 5 9 9 8 0 5 1 0 4 5 4 2 5 5 5 4 58 0 3 11 7 99 5 1 3 81 9 11 10 1 2 4 12 8 7 5 0 4 9 6 9 4 12 14
SRP0[ ]	/* SetRefPoint0 */
MDRP[10100]	/* MoveDirectRelPt */
MDRP[11100]	/* MoveDirectRelPt */
MDRP[00100]	/* MoveDirectRelPt */
MDRP[00000]	/* MoveDirectRelPt */
SRP2[ ]	/* SetRefPoint2 */
SLOOP[ ]	/* SetLoopVariable */
IP[ ]	/* InterpolatePts */
SRP1[ ]	/* SetRefPoint1 */
SLOOP[ ]	/* SetLoopVariable */
IP[ ]	/* InterpolatePts */
IUP[1]	/* InterpolateUntPts */
SVTCA[0]	/* SetFreedomAndProjectionVectorToAxis */
MDAP[1]	/* MoveDirectAbsPt */
MIRP[00100]	/* MoveIndirectRelPt */
MDRP[10100]	/* MoveDirectRelPt */
ALIGNRP[ ]	/* AlignRelativePt */
MIRP[01100]	/* MoveIndirectRelPt */
SHP[0]	/* ShiftPointByLastPoint */
SRP2[ ]	/* SetRefPoint2 */
IP[ ]	/* InterpolatePts */
IUP[0]	/* InterpolateUntPts */
MPPEM[ ]	/* MeasurePixelPerEm */
GTEQ[ ]	/* GreaterThanOrEqual */
IF[ ]	/* If */
SPVTL[1]	/* SetPVectorToLine */
SRP0[ ]	/* SetRefPoint0 */
SFVTCA[1]	/* SetFVectorToAxis */
MIRP[01101]	/* MoveIndirectRelPt */
SPVTL[1]	/* SetPVectorToLine */
SRP0[ ]	/* SetRefPoint0 */
SFVTL[0]	/* SetFVectorToLine */
MIRP[01101]	/* MoveIndirectRelPt */
SPVTL[1]	/* SetPVectorToLine */
SRP0[ ]	/* SetRefPoint0 */
SFVTCA[1]	/* SetFVectorToAxis */
MIRP[01101]	/* MoveIndirectRelPt */
SPVTL[1]	/* SetPVectorToLine */
SRP0[ ]	/* SetRefPoint0 */
SFVTCA[1]	/* SetFVectorToAxis */
MIRP[01101]	/* MoveIndirectRelPt */
SPVTL[1]	/* SetPVectorToLine */
SRP0[ ]	/* SetRefPoint0 */
SFVTL[0]	/* SetFVectorToLine */
MIRP[01101]	/* MoveIndirectRelPt */
SPVTL[1]	/* SetPVectorToLine */
SRP0[ ]	/* SetRefPoint0 */
SFVTCA[1]	/* SetFVectorToAxis */
MIRP[01101]	/* MoveIndirectRelPt */
EIF[ ]	/* EndIf */
CLEAR[ ]	/* ClearStack */";
};
width = 1233;
}
);
note = four;
unicode = 52;
},
{
glyphname = five;
lastChange = "2026-05-20 11:40:44 +0000";
layers = (
{
layerId = m01;
shapes = (
{
closed = 1;
nodes = (
(300.333,792.333,o),
(404,817,o),
(512,817,cs),
(734.667,817,o),
(866,692.333,o),
(866,479,cs),
(866,263,o),
(740.667,141,o),
(518,141,cs),
(388.667,141,o),
(265.667,173.333,o),
(143,240,c),
(143,35,l),
(247,-7.667,o),
(378.333,-29,o),
(537,-29,cs),
(866.333,-29,o),
(1069,164.333,o),
(1069,479,cs),
(1069,791,o),
(874.333,987,o),
(565,987,cs),
(506.333,987,o),
(448.333,977.333,o),
(391,956,c),
(391,1323,l),
(963,1323,l),
(963,1493,l),
(207,1493,l),
(207,743,l),
(207,743,l)
);
}
);
userData = {
assembly = "NPUSHB[ ]	/* 34 values pushed */
4 7 29 26 151 7 17 139 16 142 20 151 13 2 151 0 136 13 153 7 170 30 3 30 0 23 30 1 10 34 0 16 31 30
SRP0[ ]	/* SetRefPoint0 */
MIRP[11100]	/* MoveIndirectRelPt */
MDRP[00100]	/* MoveDirectRelPt */
MIRP[11100]	/* MoveIndirectRelPt */
MDRP[00100]	/* MoveDirectRelPt */
MIRP[01100]	/* MoveIndirectRelPt */
SRP0[ ]	/* SetRefPoint0 */
MIRP[01110]	/* MoveIndirectRelPt */
IUP[1]	/* InterpolateUntPts */
SVTCA[0]	/* SetFreedomAndProjectionVectorToAxis */
SRP0[ ]	/* SetRefPoint0 */
MIRP[00100]	/* MoveIndirectRelPt */
MIRP[00100]	/* MoveIndirectRelPt */
MIRP[10100]	/* MoveIndirectRelPt */
MIRP[01100]	/* MoveIndirectRelPt */
SRP0[ ]	/* SetRefPoint0 */
MIRP[01110]	/* MoveIndirectRelPt */
MIRP[10110]	/* MoveIndirectRelPt */
MIRP[01110]	/* MoveIndirectRelPt */
SRP0[ ]	/* SetRefPoint0 */
MIRP[11110]	/* MoveIndirectRelPt */
MDRP[00100]	/* MoveDirectRelPt */
SRP2[ ]	/* SetRefPoint2 */
IP[ ]	/* InterpolatePts */
IUP[0]	/* InterpolateUntPts */";
};
width = 1233;
},
{
layerId = "281C21A4-45D9-482C-B928-385594A59359";
shapes = (
{
closed = 1;
nodes = (
(340,793.667,o),
(453.667,821,o),
(559,821,cs),
(748.333,821,o),
(862,717.667,o),
(862,547,cs),
(862,315,o),
(680,139,o),
(432,139,cs),
(306.667,139,o),
(190,172,o),
(78,240,c),
(37,35,l),
(133,-6.333,o),
(260,-29,o),
(404,-29,cs),
(594.667,-29,o),
(744.667,24.333,o),
(862,131,cs),
(990,245.667,o),
(1063,409.667,o),
(1063,575,cs),
(1063,821.667,o),
(895.667,987,o),
(645,987,cs),
(586.333,987,o),
(527.667,977.333,o),
(465,956,c),
(537,1323,l),
(1108,1323,l),
(1141,1493,l),
(385,1493,l),
(240,743,l),
(240,743,l)
);
}
);
userData = {
assembly = "NPUSHB[ ]	/* 56 values pushed */
7 6 5 3 8 4 5 32 0 32 3 5 0 0 32 58 4 7 32 29 99 7 20 87 19 98 23 99 16 2 99 0 81 16 101 7 33 32 20 3 0 4 26 19 2 10 1 4 26 19 1 26 19 10 19 33
SRP0[ ]	/* SetRefPoint0 */
MDRP[10100]	/* MoveDirectRelPt */
MDRP[10100]	/* MoveDirectRelPt */
MIRP[01100]	/* MoveIndirectRelPt */
MDRP[00000]	/* MoveDirectRelPt */
SRP1[ ]	/* SetRefPoint1 */
SRP2[ ]	/* SetRefPoint2 */
IP[ ]	/* InterpolatePts */
SRP1[ ]	/* SetRefPoint1 */
SRP2[ ]	/* SetRefPoint2 */
IP[ ]	/* InterpolatePts */
SRP1[ ]	/* SetRefPoint1 */
SRP2[ ]	/* SetRefPoint2 */
SLOOP[ ]	/* SetLoopVariable */
IP[ ]	/* InterpolatePts */
IUP[1]	/* InterpolateUntPts */
SVTCA[0]	/* SetFreedomAndProjectionVectorToAxis */
SRP0[ ]	/* SetRefPoint0 */
MDRP[00100]	/* MoveDirectRelPt */
MIRP[00100]	/* MoveIndirectRelPt */
MIRP[10100]	/* MoveIndirectRelPt */
MIRP[01100]	/* MoveIndirectRelPt */
SRP0[ ]	/* SetRefPoint0 */
MIRP[01110]	/* MoveIndirectRelPt */
MIRP[10110]	/* MoveIndirectRelPt */
MIRP[01110]	/* MoveIndirectRelPt */
SRP0[ ]	/* SetRefPoint0 */
MIRP[11110]	/* MoveIndirectRelPt */
MDRP[00100]	/* MoveDirectRelPt */
SRP2[ ]	/* SetRefPoint2 */
IP[ ]	/* InterpolatePts */
IUP[0]	/* InterpolateUntPts */
MPPEM[ ]	/* MeasurePixelPerEm */
GTEQ[ ]	/* GreaterThanOrEqual */
IF[ ]	/* If */
SPVTL[1]	/* SetPVectorToLine */
SRP0[ ]	/* SetRefPoint0 */
SFVTCA[1]	/* SetFVectorToAxis */
MIRP[01101]	/* MoveIndirectRelPt */
SPVTL[1]	/* SetPVectorToLine */
SRP0[ ]	/* SetRefPoint0 */
SFVTCA[1]	/* SetFVectorToAxis */
MIRP[01101]	/* MoveIndirectRelPt */
SRP1[ ]	/* SetRefPoint1 */
SLOOP[ ]	/* SetLoopVariable */
IP[ ]	/* InterpolatePts */
EIF[ ]	/* EndIf */
CLEAR[ ]	/* ClearStack */";
};
width = 1233;
}
);
note = five;
unicode = 53;
},
{
glyphname = six;
lastChange = "2026-05-20 11:40:44 +0000";
layers = (
{
layerId = m01;
shapes = (
{
closed = 1;
nodes = (
(899,1498.667,o),
(798.667,1520,o),
(700,1520,cs),
(332,1520,o),
(133,1249,o),
(133,745,cs),
(133,210.333,o),
(288.333,-29,o),
(635,-29,cs),
(929.667,-29,o),
(1100,156.333,o),
(1100,479,cs),
(1100,803,o),
(935,987,o),
(647,987,cs),
(500.333,987,o),
(383,913.333,o),
(319,780,c),
(319,1154.667,o),
(453,1350,o),
(709,1350,cs),
(811.667,1350,o),
(907,1323.333,o),
(991,1274,c),
(991,1460,l),
(991,1460,l)
);
},
{
closed = 1;
nodes = (
(809.667,829,o),
(901,711,o),
(901,479,cs),
(901,248.333,o),
(809.667,129,o),
(631,129,cs),
(459,129,o),
(354,260.333,o),
(354,479,cs),
(354,697.667,o),
(459,829,o),
(631,829,cs)
);
}
);
userData = {
assembly = "NPUSHB[ ]	/* 35 values pushed */
7 31 25 151 10 31 151 16 10 171 4 1 139 0 142 4 151 22 150 16 153 37 34 30 0 38 13 34 7 6 28 1 19 31 37
SRP0[ ]	/* SetRefPoint0 */
MIRP[11100]	/* MoveIndirectRelPt */
MIRP[01100]	/* MoveIndirectRelPt */
MIRP[01100]	/* MoveIndirectRelPt */
MIRP[11100]	/* MoveIndirectRelPt */
MIRP[00100]	/* MoveIndirectRelPt */
MIRP[01100]	/* MoveIndirectRelPt */
IUP[1]	/* InterpolateUntPts */
SVTCA[0]	/* SetFreedomAndProjectionVectorToAxis */
SRP0[ ]	/* SetRefPoint0 */
MIRP[00100]	/* MoveIndirectRelPt */
MIRP[10100]	/* MoveIndirectRelPt */
MIRP[01100]	/* MoveIndirectRelPt */
MIRP[10100]	/* MoveIndirectRelPt */
MIRP[01100]	/* MoveIndirectRelPt */
SRP0[ ]	/* SetRefPoint0 */
MIRP[00101]	/* MoveIndirectRelPt */
SRP0[ ]	/* SetRefPoint0 */
MIRP[01110]	/* MoveIndirectRelPt */
SRP0[ ]	/* SetRefPoint0 */
MIRP[01110]	/* MoveIndirectRelPt */
SRP1[ ]	/* SetRefPoint1 */
IP[ ]	/* InterpolatePts */
IUP[0]	/* InterpolateUntPts */";
};
width = 1233;
},
{
layerId = "281C21A4-45D9-482C-B928-385594A59359";
shapes = (
{
closed = 1;
nodes = (
(901,331.333,o),
(755,129,o),
(563,129,cs),
(420.333,129,o),
(334,225.667,o),
(334,387,cs),
(334,640.333,o),
(483.333,829,o),
(678,829,cs),
(820.667,829,o),
(901,744.667,o),
(901,594,cs)
);
},
{
closed = 1;
nodes = (
(1085,1498.667,o),
(989,1520,o),
(889,1520,cs),
(613,1520,o),
(409.667,1376.667,o),
(279,1090,cs),
(188.333,895.333,o),
(133,641.333,o),
(133,420,cs),
(133,133.333,o),
(286.333,-29,o),
(557,-29,cs),
(719.667,-29,o),
(852,34.667,o),
(956,164,cs),
(1046.667,274.667,o),
(1104,445.333,o),
(1104,604,cs),
(1104,849.333,o),
(970.333,987,o),
(733,987,cs),
(582.333,987,o),
(455.667,916,o),
(365,780,c),
(438.333,1157.333,o),
(606.667,1350,o),
(864,1350,cs),
(964,1350,o),
(1055.667,1323.333,o),
(1133,1274,c),
(1169,1460,l),
(1169,1460,l)
);
}
);
userData = {
assembly = "NPUSHB[ ]	/* 32 values pushed */
9 99 31 3 99 19 22 114 16 13 87 12 98 16 99 40 97 31 101 43 19 6 0 13 12 0 19 25 6 19 34 43
SRP0[ ]	/* SetRefPoint0 */
MDRP[10100]	/* MoveDirectRelPt */
MIRP[01100]	/* MoveIndirectRelPt */
MDRP[10100]	/* MoveDirectRelPt */
MIRP[01100]	/* MoveIndirectRelPt */
MDRP[00000]	/* MoveDirectRelPt */
MDRP[00000]	/* MoveDirectRelPt */
SRP1[ ]	/* SetRefPoint1 */
SRP2[ ]	/* SetRefPoint2 */
IP[ ]	/* InterpolatePts */
IUP[1]	/* InterpolateUntPts */
SVTCA[0]	/* SetFreedomAndProjectionVectorToAxis */
SRP0[ ]	/* SetRefPoint0 */
MIRP[00100]	/* MoveIndirectRelPt */
MIRP[10100]	/* MoveIndirectRelPt */
MIRP[01100]	/* MoveIndirectRelPt */
MIRP[10100]	/* MoveIndirectRelPt */
MIRP[01100]	/* MoveIndirectRelPt */
SRP0[ ]	/* SetRefPoint0 */
MIRP[10101]	/* MoveIndirectRelPt */
MDRP[00110]	/* MoveDirectRelPt */
MIRP[01110]	/* MoveIndirectRelPt */
SRP0[ ]	/* SetRefPoint0 */
MIRP[01110]	/* MoveIndirectRelPt */
IUP[0]	/* InterpolateUntPts */";
};
width = 1233;
}
);
note = six;
unicode = 54;
},
{
glyphname = seven;
lastChange = "2026-05-20 11:40:44 +0000";
layers = (
{
layerId = m01;
shapes = (
{
closed = 1;
nodes = (
(854,1323,l),
(334,0,l),
(545,0,l),
(1079,1407,l),
(1079,1493,l),
(139,1493,l),
(139,1323,l),
(139,1323,l)
);
}
);
userData = {
assembly = "NPUSHB[ ]	/* 25 values pushed */
5 37 2 3 2 3 37 4 5 4 66 5 151 0 136 3 5 3 1 4 1 34 0 31 7
SRP0[ ]	/* SetRefPoint0 */
MIRP[11100]	/* MoveIndirectRelPt */
MIRP[01100]	/* MoveIndirectRelPt */
MDRP[00100]	/* MoveDirectRelPt */
SRP1[ ]	/* SetRefPoint1 */
IP[ ]	/* InterpolatePts */
IP[ ]	/* InterpolatePts */
IUP[1]	/* InterpolateUntPts */
SVTCA[0]	/* SetFreedomAndProjectionVectorToAxis */
MDAP[1]	/* MoveDirectAbsPt */
MIRP[10100]	/* MoveIndirectRelPt */
MIRP[01100]	/* MoveIndirectRelPt */
IUP[0]	/* InterpolateUntPts */
MPPEM[ ]	/* MeasurePixelPerEm */
GTEQ[ ]	/* GreaterThanOrEqual */
IF[ ]	/* If */
SPVTL[1]	/* SetPVectorToLine */
SRP0[ ]	/* SetRefPoint0 */
SFVTCA[1]	/* SetFVectorToAxis */
MIRP[01101]	/* MoveIndirectRelPt */
SPVTL[1]	/* SetPVectorToLine */
SRP0[ ]	/* SetRefPoint0 */
SFVTCA[1]	/* SetFVectorToAxis */
MIRP[01101]	/* MoveIndirectRelPt */
EIF[ ]	/* EndIf */
CLEAR[ ]	/* ClearStack */";
};
width = 1233;
},
{
layerId = "281C21A4-45D9-482C-B928-385594A59359";
shapes = (
{
closed = 1;
nodes = (
(1000,1323,l),
(222,0,l),
(439,0,l),
(1244,1399,l),
(1260,1493,l),
(324,1493,l),
(292,1323,l),
(292,1323,l)
);
}
);
userData = {
assembly = "NPUSHB[ ]	/* 25 values pushed */
5 5 2 3 2 3 5 4 5 4 58 5 99 0 81 3 5 3 0 3 6 1 6 4 7
SRP0[ ]	/* SetRefPoint0 */
MDRP[10100]	/* MoveDirectRelPt */
MDRP[00100]	/* MoveDirectRelPt */
MDRP[01100]	/* MoveDirectRelPt */
SRP1[ ]	/* SetRefPoint1 */
SLOOP[ ]	/* SetLoopVariable */
IP[ ]	/* InterpolatePts */
IUP[1]	/* InterpolateUntPts */
SVTCA[0]	/* SetFreedomAndProjectionVectorToAxis */
MDAP[1]	/* MoveDirectAbsPt */
MIRP[10100]	/* MoveIndirectRelPt */
MIRP[01100]	/* MoveIndirectRelPt */
IUP[0]	/* InterpolateUntPts */
MPPEM[ ]	/* MeasurePixelPerEm */
GTEQ[ ]	/* GreaterThanOrEqual */
IF[ ]	/* If */
SPVTL[1]	/* SetPVectorToLine */
SRP0[ ]	/* SetRefPoint0 */
SFVTCA[1]	/* SetFVectorToAxis */
MIRP[01101]	/* MoveIndirectRelPt */
SPVTL[1]	/* SetPVectorToLine */
SRP0[ ]	/* SetRefPoint0 */
SFVTCA[1]	/* SetFVectorToAxis */
MIRP[01101]	/* MoveIndirectRelPt */
EIF[ ]	/* EndIf */
CLEAR[ ]	/* ClearStack */";
};
width = 1233;
}
);
note = seven;
unicode = 55;
},
{
glyphname = eight;
lastChange = "2026-05-20 11:40:44 +0000";
layers = (
{
layerId = m01;
shapes = (
{
closed = 1;
nodes = (
(794.667,709,o),
(899,602.667,o),
(899,420,cs),
(899,233.333,o),
(797.333,129,o),
(616,129,cs),
(438.667,129,o),
(334,236,o),
(334,420,cs),
(334,604,o),
(436,709,o),
(616,709,cs)
);
},
{
closed = 1;
nodes = (
(240,749,o),
(131,612.333,o),
(131,399,cs),
(131,131,o),
(312,-29,o),
(616,-29,cs),
(920,-29,o),
(1102,131.667,o),
(1102,401,cs),
(1102,613,o),
(993,749,o),
(793,793,c),
(965,837,o),
(1067,963.667,o),
(1067,1133,cs),
(1067,1370.333,o),
(894.667,1520,o),
(616,1520,cs),
(338.667,1520,o),
(166,1370.333,o),
(166,1133,cs),
(166,963.667,o),
(268,837,o),
(440,793,c)
);
},
{
closed = 1;
nodes = (
(367,1275.333,o),
(454.667,1364,o),
(616,1364,cs),
(780,1364,o),
(866,1276.667,o),
(866,1114,cs),
(866,954,o),
(778.667,868,o),
(616,868,cs),
(454.667,868,o),
(367,954,o),
(367,1114,cs)
);
}
);
userData = {
assembly = "NPUSHB[ ]	/* 37 values pushed */
24 12 0 151 39 6 151 30 45 151 18 150 30 153 39 169 48 24 12 36 42 30 21 36 30 15 9 30 21 27 34 3 30 15 33 31 48
SRP0[ ]	/* SetRefPoint0 */
MIRP[11100]	/* MoveIndirectRelPt */
MDRP[00100]	/* MoveDirectRelPt */
MIRP[01100]	/* MoveIndirectRelPt */
MIRP[11100]	/* MoveIndirectRelPt */
MDRP[00100]	/* MoveDirectRelPt */
MIRP[01100]	/* MoveIndirectRelPt */
SRP0[ ]	/* SetRefPoint0 */
MIRP[01110]	/* MoveIndirectRelPt */
SRP0[ ]	/* SetRefPoint0 */
MIRP[01110]	/* MoveIndirectRelPt */
SRP1[ ]	/* SetRefPoint1 */
IP[ ]	/* InterpolatePts */
IP[ ]	/* InterpolatePts */
IUP[1]	/* InterpolateUntPts */
SVTCA[0]	/* SetFreedomAndProjectionVectorToAxis */
SRP0[ ]	/* SetRefPoint0 */
MIRP[01100]	/* MoveIndirectRelPt */
MIRP[00100]	/* MoveIndirectRelPt */
MIRP[10100]	/* MoveIndirectRelPt */
MIRP[01100]	/* MoveIndirectRelPt */
SRP0[ ]	/* SetRefPoint0 */
MIRP[01110]	/* MoveIndirectRelPt */
SRP0[ ]	/* SetRefPoint0 */
MIRP[01110]	/* MoveIndirectRelPt */
IP[ ]	/* InterpolatePts */
IP[ ]	/* InterpolatePts */
IUP[0]	/* InterpolateUntPts */";
};
width = 1233;
},
{
layerId = "281C21A4-45D9-482C-B928-385594A59359";
shapes = (
{
closed = 1;
nodes = (
(886,261,o),
(754.333,127,o),
(557,127,cs),
(407.667,127,o),
(311,218,o),
(311,358,cs),
(311,563.333,o),
(446.667,709,o),
(636,709,cs),
(793.333,709,o),
(886,615.667,o),
(886,461,cs)
);
},
{
closed = 1;
nodes = (
(255,743.667,o),
(106,575.333,o),
(106,354,cs),
(106,115.333,o),
(274,-29,o),
(550,-29,cs),
(866,-29,o),
(1091,174.333,o),
(1091,453,cs),
(1091,630.333,o),
(1005,742,o),
(837,782,c),
(1050.333,836.667,o),
(1191,1002,o),
(1191,1194,cs),
(1191,1386,o),
(1027.333,1520,o),
(790,1520,cs),
(504.667,1520,o),
(280,1323.667,o),
(280,1081,cs),
(280,941,o),
(352.333,843.667,o),
(495,793,c)
);
},
{
closed = 1;
nodes = (
(904,1364,o),
(991,1286.333,o),
(991,1165,cs),
(991,998.333,o),
(864,866,o),
(700,866,cs),
(564,866,o),
(481,947,o),
(481,1079,cs),
(481,1244.333,o),
(602.667,1364,o),
(772,1364,cs)
);
}
);
userData = {
assembly = "NPUSHB[ ]	/* 34 values pushed */
24 12 3 99 42 9 99 30 36 99 18 97 30 101 42 116 48 24 12 0 39 19 15 0 19 27 45 19 21 6 19 15 33 48
SRP0[ ]	/* SetRefPoint0 */
MDRP[10100]	/* MoveDirectRelPt */
MDRP[00100]	/* MoveDirectRelPt */
MIRP[01100]	/* MoveIndirectRelPt */
MDRP[10100]	/* MoveDirectRelPt */
MIRP[01100]	/* MoveIndirectRelPt */
MDRP[10100]	/* MoveDirectRelPt */
MIRP[01100]	/* MoveIndirectRelPt */
SRP0[ ]	/* SetRefPoint0 */
MIRP[01110]	/* MoveIndirectRelPt */
SRP1[ ]	/* SetRefPoint1 */
IP[ ]	/* InterpolatePts */
IP[ ]	/* InterpolatePts */
IUP[1]	/* InterpolateUntPts */
SVTCA[0]	/* SetFreedomAndProjectionVectorToAxis */
SRP0[ ]	/* SetRefPoint0 */
MIRP[01100]	/* MoveIndirectRelPt */
MIRP[00100]	/* MoveIndirectRelPt */
MIRP[10100]	/* MoveIndirectRelPt */
MIRP[01100]	/* MoveIndirectRelPt */
SRP0[ ]	/* SetRefPoint0 */
MIRP[01110]	/* MoveIndirectRelPt */
SRP0[ ]	/* SetRefPoint0 */
MIRP[01110]	/* MoveIndirectRelPt */
IP[ ]	/* InterpolatePts */
IP[ ]	/* InterpolatePts */
IUP[0]	/* InterpolateUntPts */";
};
width = 1233;
}
);
note = eight;
unicode = 56;
},
{
glyphname = nine;
lastChange = "2026-05-20 11:40:44 +0000";
layers = (
{
layerId = m01;
shapes = (
{
closed = 1;
nodes = (
(416,662,o),
(326,780,o),
(326,1012,cs),
(326,1242.667,o),
(417.333,1362,o),
(596,1362,cs),
(768,1362,o),
(872,1230.667,o),
(872,1012,cs),
(872,793.333,o),
(768,662,o),
(596,662,cs)
);
},
{
closed = 1;
nodes = (
(328,-7.667,o),
(428.667,-29,o),
(526,-29,cs),
(895.333,-29,o),
(1094,242.333,o),
(1094,745,cs),
(1094,1279.667,o),
(938.667,1520,o),
(592,1520,cs),
(296,1520,o),
(127,1335.333,o),
(127,1014,cs),
(127,688.667,o),
(292,504,o),
(580,504,cs),
(726.667,504,o),
(844.333,577.667,o),
(907,711,c),
(907,336.333,o),
(774,141,o),
(518,141,cs),
(415.333,141,o),
(320,167.667,o),
(236,217,c),
(236,31,l),
(236,31,l)
);
}
);
userData = {
assembly = "NPUSHB[ ]	/* 34 values pushed */
19 6 0 151 22 171 16 13 139 12 142 16 151 34 6 151 28 150 34 153 37 19 6 3 1 31 34 9 30 12 38 25 31 37
SRP0[ ]	/* SetRefPoint0 */
MIRP[11100]	/* MoveIndirectRelPt */
MIRP[00100]	/* MoveIndirectRelPt */
MIRP[01100]	/* MoveIndirectRelPt */
MIRP[11100]	/* MoveIndirectRelPt */
MIRP[01100]	/* MoveIndirectRelPt */
MIRP[01100]	/* MoveIndirectRelPt */
IUP[1]	/* InterpolateUntPts */
SVTCA[0]	/* SetFreedomAndProjectionVectorToAxis */
SRP0[ ]	/* SetRefPoint0 */
MIRP[00100]	/* MoveIndirectRelPt */
MIRP[10100]	/* MoveIndirectRelPt */
MIRP[01100]	/* MoveIndirectRelPt */
SRP0[ ]	/* SetRefPoint0 */
MIRP[01110]	/* MoveIndirectRelPt */
MIRP[10110]	/* MoveIndirectRelPt */
MIRP[01110]	/* MoveIndirectRelPt */
SRP0[ ]	/* SetRefPoint0 */
MIRP[10101]	/* MoveIndirectRelPt */
MIRP[01110]	/* MoveIndirectRelPt */
SRP1[ ]	/* SetRefPoint1 */
IP[ ]	/* InterpolatePts */
IUP[0]	/* InterpolateUntPts */";
};
width = 1233;
},
{
layerId = "281C21A4-45D9-482C-B928-385594A59359";
shapes = (
{
closed = 1;
nodes = (
(396,1159.667,o),
(544,1362,o),
(736,1362,cs),
(878.667,1362,o),
(963,1266.667,o),
(963,1104,cs),
(963,850.667,o),
(813.667,662,o),
(619,662,cs),
(476.333,662,o),
(396,746.333,o),
(396,897,cs)
);
},
{
closed = 1;
nodes = (
(214.333,-9,o),
(308,-29,o),
(408,-29,cs),
(685.333,-29,o),
(889.333,115.667,o),
(1020,401,cs),
(1110.667,595.667,o),
(1166,849.667,o),
(1166,1071,cs),
(1166,1356.333,o),
(1010.667,1520,o),
(740,1520,cs),
(577.333,1520,o),
(444,1455,o),
(340,1327,cs),
(250.667,1216.333,o),
(193,1046.333,o),
(193,889,cs),
(193,642.333,o),
(326.667,504,o),
(564,504,cs),
(714.667,504,o),
(841.333,575,o),
(932,711,c),
(858.667,333.667,o),
(690.333,141,o),
(433,141,cs),
(333,141,o),
(241.333,167.667,o),
(164,217,c),
(129,31,l),
(129,31,l)
);
}
);
userData = {
assembly = "NPUSHB[ ]	/* 27 values pushed */
3 99 19 22 114 16 13 12 16 99 40 9 99 31 97 40 101 43 19 0 6 19 34 0 19 25 43
SRP0[ ]	/* SetRefPoint0 */
MDRP[10100]	/* MoveDirectRelPt */
MIRP[01100]	/* MoveIndirectRelPt */
MDRP[10100]	/* MoveDirectRelPt */
MIRP[01100]	/* MoveIndirectRelPt */
SRP1[ ]	/* SetRefPoint1 */
IP[ ]	/* InterpolatePts */
IUP[1]	/* InterpolateUntPts */
SVTCA[0]	/* SetFreedomAndProjectionVectorToAxis */
SRP0[ ]	/* SetRefPoint0 */
MIRP[00100]	/* MoveIndirectRelPt */
MIRP[10100]	/* MoveIndirectRelPt */
MIRP[01100]	/* MoveIndirectRelPt */
SRP0[ ]	/* SetRefPoint0 */
MIRP[01110]	/* MoveIndirectRelPt */
MDRP[10110]	/* MoveDirectRelPt */
MDRP[00110]	/* MoveDirectRelPt */
SRP0[ ]	/* SetRefPoint0 */
MIRP[10101]	/* MoveIndirectRelPt */
MDRP[00110]	/* MoveDirectRelPt */
MIRP[01110]	/* MoveIndirectRelPt */
IUP[0]	/* InterpolateUntPts */";
};
width = 1233;
}
);
note = nine;
unicode = 57;
},
{
glyphname = colon;
lastChange = "2026-05-20 11:40:44 +0000";
layers = (
{
guides = (
{
angle = 180;
pos = (616,1063);
}
);
layerId = m01;
shapes = (
{
closed = 1;
nodes = (
(752,0,l),
(752,324,l),
(482,324,l),
(482,0,l),
(482,0,l)
);
},
{
closed = 1;
nodes = (
(752,739,l),
(752,1063,l),
(482,1063,l),
(482,739,l),
(482,739,l)
);
}
);
userData = {
assembly = "NPUSHB[ ]	/* 13 values pushed */
2 162 0 172 4 162 6 5 1 29 4 0 8
SRP0[ ]	/* SetRefPoint0 */
MDRP[10100]	/* MoveDirectRelPt */
ALIGNRP[ ]	/* AlignRelativePt */
MIRP[01100]	/* MoveIndirectRelPt */
SHP[0]	/* ShiftPointByLastPoint */
IUP[1]	/* InterpolateUntPts */
SVTCA[0]	/* SetFreedomAndProjectionVectorToAxis */
MDAP[1]	/* MoveDirectAbsPt */
MIRP[01100]	/* MoveIndirectRelPt */
MIRP[10100]	/* MoveIndirectRelPt */
MIRP[01100]	/* MoveIndirectRelPt */
IUP[0]	/* InterpolateUntPts */";
};
width = 1233;
},
{
guides = (
{
angle = 180;
pos = (680,324);
},
{
angle = 180;
pos = (826,1063);
},
{
angle = 258.6561;
pos = (513,162);
},
{
angle = 78.6561;
pos = (783,162);
}
);
layerId = "281C21A4-45D9-482C-B928-385594A59359";
shapes = (
{
closed = 1;
nodes = (
(636,0,l),
(701,324,l),
(431,324,l),
(366,0,l),
(366,0,l)
);
},
{
closed = 1;
nodes = (
(785,739,l),
(850,1063,l),
(580,1063,l),
(515,739,l),
(515,739,l)
);
}
);
userData = {
assembly = "NPUSHB[ ]	/* 41 values pushed */
2 16 3 0 3 1 16 0 0 3 6 16 7 4 7 5 16 4 4 7 58 2 110 0 117 4 110 6 6 5 2 3 1 3 2 0 20 4 2 7 8
SRP0[ ]	/* SetRefPoint0 */
MDRP[10100]	/* MoveDirectRelPt */
MIRP[00100]	/* MoveIndirectRelPt */
MIRP[10100]	/* MoveIndirectRelPt */
MIRP[00100]	/* MoveIndirectRelPt */
MDRP[00000]	/* MoveDirectRelPt */
SLOOP[ ]	/* SetLoopVariable */
IP[ ]	/* InterpolatePts */
IUP[1]	/* InterpolateUntPts */
SVTCA[0]	/* SetFreedomAndProjectionVectorToAxis */
MDAP[1]	/* MoveDirectAbsPt */
MIRP[01100]	/* MoveIndirectRelPt */
MIRP[10100]	/* MoveIndirectRelPt */
MIRP[01100]	/* MoveIndirectRelPt */
IUP[0]	/* InterpolateUntPts */
MPPEM[ ]	/* MeasurePixelPerEm */
GTEQ[ ]	/* GreaterThanOrEqual */
IF[ ]	/* If */
SPVTL[1]	/* SetPVectorToLine */
SRP0[ ]	/* SetRefPoint0 */
SFVTCA[1]	/* SetFVectorToAxis */
MIRP[01101]	/* MoveIndirectRelPt */
SPVTL[1]	/* SetPVectorToLine */
SRP0[ ]	/* SetRefPoint0 */
SFVTCA[1]	/* SetFVectorToAxis */
MIRP[01101]	/* MoveIndirectRelPt */
SPVTL[1]	/* SetPVectorToLine */
SRP0[ ]	/* SetRefPoint0 */
SFVTCA[1]	/* SetFVectorToAxis */
MIRP[01101]	/* MoveIndirectRelPt */
SPVTL[1]	/* SetPVectorToLine */
SRP0[ ]	/* SetRefPoint0 */
SFVTCA[1]	/* SetFVectorToAxis */
MIRP[01101]	/* MoveIndirectRelPt */
EIF[ ]	/* EndIf */
CLEAR[ ]	/* ClearStack */";
};
width = 1233;
}
);
note = colon;
unicode = 58;
},
{
glyphname = semicolon;
lastChange = "2026-05-20 11:40:44 +0000";
layers = (
{
guides = (
{
angle = 180;
pos = (616,1063);
}
);
layerId = m01;
shapes = (
{
closed = 1;
nodes = (
(752,739,l),
(752,1063,l),
(482,1063,l),
(482,739,l),
(482,739,l)
);
},
{
ref = comma;
}
);
userData = {
assembly = "NPUSHB[ ]	/* 19 values pushed */
8 162 6 3 163 0 162 6 172 10 3 4 0 29 1 7 29 6 10
SRP0[ ]	/* SetRefPoint0 */
MDRP[10100]	/* MoveDirectRelPt */
MIRP[11100]	/* MoveIndirectRelPt */
MDRP[10100]	/* MoveDirectRelPt */
MIRP[11100]	/* MoveIndirectRelPt */
MDRP[10100]	/* MoveDirectRelPt */
MDRP[01100]	/* MoveDirectRelPt */
IUP[1]	/* InterpolateUntPts */
SVTCA[0]	/* SetFreedomAndProjectionVectorToAxis */
SRP0[ ]	/* SetRefPoint0 */
MIRP[00100]	/* MoveIndirectRelPt */
MIRP[11100]	/* MoveIndirectRelPt */
MIRP[01100]	/* MoveIndirectRelPt */
SRP0[ ]	/* SetRefPoint0 */
MIRP[01110]	/* MoveIndirectRelPt */
IUP[0]	/* InterpolateUntPts */";
};
width = 1233;
},
{
guides = (
{
angle = 78.8351;
pos = (792,210);
},
{
angle = 258.8351;
pos = (522,210);
},
{
angle = 180;
pos = (825,1063);
}
);
layerId = "281C21A4-45D9-482C-B928-385594A59359";
shapes = (
{
closed = 1;
nodes = (
(220,-287,l),
(373,-287,l),
(659,96,l),
(704,324,l),
(434,324,l),
(389,96,l),
(389,96,l)
);
},
{
closed = 1;
nodes = (
(786,739,l),
(850,1063,l),
(580,1063,l),
(516,739,l),
(516,739,l)
);
}
);
userData = {
assembly = "NPUSHB[ ]	/* 46 values pushed */
8 16 9 6 9 7 16 6 6 9 4 3 2 5 2 16 5 0 5 1 16 0 0 5 58 8 110 6 3 111 0 110 6 117 10 8 1 7 9 2 6 5 2 4 0 10
SRP0[ ]	/* SetRefPoint0 */
MDRP[10100]	/* MoveDirectRelPt */
MDRP[00100]	/* MoveDirectRelPt */
MIRP[00100]	/* MoveIndirectRelPt */
MDRP[10100]	/* MoveDirectRelPt */
MIRP[00100]	/* MoveIndirectRelPt */
MDRP[00000]	/* MoveDirectRelPt */
IP[ ]	/* InterpolatePts */
IP[ ]	/* InterpolatePts */
IUP[1]	/* InterpolateUntPts */
SVTCA[0]	/* SetFreedomAndProjectionVectorToAxis */
SRP0[ ]	/* SetRefPoint0 */
MIRP[00100]	/* MoveIndirectRelPt */
MIRP[11100]	/* MoveIndirectRelPt */
MIRP[01100]	/* MoveIndirectRelPt */
SRP0[ ]	/* SetRefPoint0 */
MIRP[01110]	/* MoveIndirectRelPt */
IUP[0]	/* InterpolateUntPts */
MPPEM[ ]	/* MeasurePixelPerEm */
GTEQ[ ]	/* GreaterThanOrEqual */
IF[ ]	/* If */
SPVTL[1]	/* SetPVectorToLine */
SRP0[ ]	/* SetRefPoint0 */
SFVTCA[1]	/* SetFVectorToAxis */
MIRP[01101]	/* MoveIndirectRelPt */
SPVTL[1]	/* SetPVectorToLine */
SRP0[ ]	/* SetRefPoint0 */
SFVTCA[1]	/* SetFVectorToAxis */
MIRP[01101]	/* MoveIndirectRelPt */
SRP1[ ]	/* SetRefPoint1 */
SLOOP[ ]	/* SetLoopVariable */
IP[ ]	/* InterpolatePts */
SPVTL[1]	/* SetPVectorToLine */
SRP0[ ]	/* SetRefPoint0 */
SFVTCA[1]	/* SetFVectorToAxis */
MIRP[01101]	/* MoveIndirectRelPt */
SPVTL[1]	/* SetPVectorToLine */
SRP0[ ]	/* SetRefPoint0 */
SFVTCA[1]	/* SetFVectorToAxis */
MIRP[01101]	/* MoveIndirectRelPt */
EIF[ ]	/* EndIf */
CLEAR[ ]	/* ClearStack */";
};
width = 1233;
}
);
note = semicolon;
unicode = 59;
},
{
glyphname = less;
lastChange = "2026-05-20 11:40:44 +0000";
layers = (
{
layerId = m01;
shapes = (
{
closed = 1;
nodes = (
(88,725,l),
(88,559,l),
(1145,141,l),
(1145,324,l),
(295,641,l),
(1145,961,l),
(1145,1143,l),
(1145,1143,l)
);
}
);
userData = {
assembly = "NPUSHB[ ]	/* 18 values pushed */
5 4 2 1 0 5 3 174 6 173 7 1 2 0 40 4 39 7
SRP0[ ]	/* SetRefPoint0 */
MIRP[11100]	/* MoveIndirectRelPt */
MIRP[01100]	/* MoveIndirectRelPt */
SHP[0]	/* ShiftPointByLastPoint */
IP[ ]	/* InterpolatePts */
IUP[1]	/* InterpolateUntPts */
SVTCA[0]	/* SetFreedomAndProjectionVectorToAxis */
SRP0[ ]	/* SetRefPoint0 */
MIRP[10100]	/* MoveIndirectRelPt */
MIRP[01100]	/* MoveIndirectRelPt */
SLOOP[ ]	/* SetLoopVariable */
IP[ ]	/* InterpolatePts */
IUP[0]	/* InterpolateUntPts */";
};
width = 1233;
},
{
layerId = "281C21A4-45D9-482C-B928-385594A59359";
shapes = (
{
closed = 1;
nodes = (
(88,725,l),
(88,559,l),
(1145,141,l),
(1145,324,l),
(295,641,l),
(1145,961,l),
(1145,1143,l),
(1145,1143,l)
);
}
);
userData = {
assembly = "NPUSHB[ ]	/* 18 values pushed */
5 4 2 1 0 5 3 119 6 118 7 1 2 0 22 4 21 7
SRP0[ ]	/* SetRefPoint0 */
MIRP[11100]	/* MoveIndirectRelPt */
MIRP[01100]	/* MoveIndirectRelPt */
SHP[0]	/* ShiftPointByLastPoint */
IP[ ]	/* InterpolatePts */
IUP[1]	/* InterpolateUntPts */
SVTCA[0]	/* SetFreedomAndProjectionVectorToAxis */
SRP0[ ]	/* SetRefPoint0 */
MIRP[10100]	/* MoveIndirectRelPt */
MIRP[01100]	/* MoveIndirectRelPt */
SLOOP[ ]	/* SetLoopVariable */
IP[ ]	/* InterpolatePts */
IUP[0]	/* InterpolateUntPts */";
};
width = 1233;
}
);
note = less;
unicode = 60;
},
{
glyphname = equal;
lastChange = "2026-05-20 11:40:44 +0000";
layers = (
{
layerId = m01;
shapes = (
{
closed = 1;
nodes = (
(1145,309,l),
(1145,489,l),
(88,489,l),
(88,309,l),
(88,309,l)
);
},
{
closed = 1;
nodes = (
(1145,795,l),
(1145,975,l),
(88,975,l),
(88,795,l),
(88,795,l)
);
}
);
userData = {
assembly = "NPUSHB[ ]	/* 12 values pushed */
4 160 6 2 160 0 8 5 1 4 0 8
SRP0[ ]	/* SetRefPoint0 */
MDRP[10100]	/* MoveDirectRelPt */
ALIGNRP[ ]	/* AlignRelativePt */
MDRP[00100]	/* MoveDirectRelPt */
SHP[0]	/* ShiftPointByLastPoint */
IUP[1]	/* InterpolateUntPts */
SVTCA[0]	/* SetFreedomAndProjectionVectorToAxis */
SRP0[ ]	/* SetRefPoint0 */
MDRP[10100]	/* MoveDirectRelPt */
MIRP[01100]	/* MoveIndirectRelPt */
MDRP[10100]	/* MoveDirectRelPt */
MIRP[01100]	/* MoveIndirectRelPt */
IUP[0]	/* InterpolateUntPts */";
};
width = 1233;
},
{
layerId = "281C21A4-45D9-482C-B928-385594A59359";
shapes = (
{
closed = 1;
nodes = (
(1145,309,l),
(1145,489,l),
(88,489,l),
(88,309,l),
(88,309,l)
);
},
{
closed = 1;
nodes = (
(1145,795,l),
(1145,975,l),
(88,975,l),
(88,795,l),
(88,795,l)
);
}
);
userData = {
assembly = "NPUSHB[ ]	/* 12 values pushed */
4 108 6 2 108 0 8 5 1 4 0 8
SRP0[ ]	/* SetRefPoint0 */
MDRP[10100]	/* MoveDirectRelPt */
ALIGNRP[ ]	/* AlignRelativePt */
MDRP[00100]	/* MoveDirectRelPt */
SHP[0]	/* ShiftPointByLastPoint */
IUP[1]	/* InterpolateUntPts */
SVTCA[0]	/* SetFreedomAndProjectionVectorToAxis */
SRP0[ ]	/* SetRefPoint0 */
MDRP[10100]	/* MoveDirectRelPt */
MIRP[01100]	/* MoveIndirectRelPt */
MDRP[10100]	/* MoveDirectRelPt */
MIRP[01100]	/* MoveIndirectRelPt */
IUP[0]	/* InterpolateUntPts */";
};
width = 1233;
}
);
note = equal;
unicode = 61;
},
{
glyphname = greater;
lastChange = "2026-05-20 11:40:44 +0000";
layers = (
{
layerId = m01;
shapes = (
{
closed = 1;
nodes = (
(88,324,l),
(88,141,l),
(1145,559,l),
(1145,725,l),
(88,1143,l),
(88,961,l),
(938,641,l),
(938,641,l)
);
}
);
userData = {
assembly = "NPUSHB[ ]	/* 18 values pushed */
6 5 3 2 0 5 4 174 1 173 7 6 2 40 4 0 39 7
SRP0[ ]	/* SetRefPoint0 */
MIRP[11100]	/* MoveIndirectRelPt */
ALIGNRP[ ]	/* AlignRelativePt */
MIRP[01100]	/* MoveIndirectRelPt */
IP[ ]	/* InterpolatePts */
IUP[1]	/* InterpolateUntPts */
SVTCA[0]	/* SetFreedomAndProjectionVectorToAxis */
SRP0[ ]	/* SetRefPoint0 */
MIRP[10100]	/* MoveIndirectRelPt */
MIRP[01100]	/* MoveIndirectRelPt */
SLOOP[ ]	/* SetLoopVariable */
IP[ ]	/* InterpolatePts */
IUP[0]	/* InterpolateUntPts */";
};
width = 1233;
},
{
layerId = "281C21A4-45D9-482C-B928-385594A59359";
shapes = (
{
closed = 1;
nodes = (
(88,324,l),
(88,141,l),
(1145,559,l),
(1145,725,l),
(88,1143,l),
(88,961,l),
(938,641,l),
(938,641,l)
);
}
);
userData = {
assembly = "NPUSHB[ ]	/* 18 values pushed */
6 5 3 2 0 5 4 119 1 118 7 6 2 22 4 0 21 7
SRP0[ ]	/* SetRefPoint0 */
MIRP[11100]	/* MoveIndirectRelPt */
ALIGNRP[ ]	/* AlignRelativePt */
MIRP[01100]	/* MoveIndirectRelPt */
IP[ ]	/* InterpolatePts */
IUP[1]	/* InterpolateUntPts */
SVTCA[0]	/* SetFreedomAndProjectionVectorToAxis */
SRP0[ ]	/* SetRefPoint0 */
MIRP[10100]	/* MoveIndirectRelPt */
MIRP[01100]	/* MoveIndirectRelPt */
SLOOP[ ]	/* SetLoopVariable */
IP[ ]	/* InterpolatePts */
IUP[0]	/* InterpolateUntPts */";
};
width = 1233;
}
);
note = greater;
unicode = 62;
},
{
glyphname = question;
lastChange = "2026-05-20 11:40:44 +0000";
layers = (
{
layerId = m01;
shapes = (
{
closed = 1;
nodes = (
(684,571,ls),
(684,652.333,o),
(699,694,o),
(791,782,cs),
(879,868,ls),
(1004.333,990.667,o),
(1040,1065.667,o),
(1040,1167,cs),
(1040,1381.667,o),
(881,1520,o),
(633,1520,cs),
(494.333,1520,o),
(369.333,1483,o),
(244,1407,c),
(244,1219,l),
(374.667,1309.667,o),
(494,1356,o),
(598,1356,cs),
(743.333,1356,o),
(838,1275.667,o),
(838,1157,cs),
(838,1091.667,o),
(811.667,1039.667,o),
(729,961,cs),
(639,872,ls),
(527,762.667,o),
(494,685.667,o),
(494,555,cs),
(494,401,l),
(684,401,l),
(684,524,l),
(684,524,l)
);
},
{
closed = 1;
nodes = (
(690,0,l),
(690,254,l),
(487,254,l),
(487,0,l),
(487,0,l)
);
}
);
userData = {
assembly = "NPUSHB[ ]	/* 66 values pushed */
11 10 9 8 7 5 12 6 37 25 26 25 3 4 2 2 5 37 26 26 25 66 29 26 5 2 4 6 25 15 0 31 16 139 15 141 12 151 19 150 31 134 33 6 32 25 22 9 5 1 0 26 32 9 0 3 1 9 41 22 15 1 32 3 31 35
SRP0[ ]	/* SetRefPoint0 */
MDRP[10100]	/* MoveDirectRelPt */
MIRP[01100]	/* MoveIndirectRelPt */
MDRP[00100]	/* MoveDirectRelPt */
MDRP[10100]	/* MoveDirectRelPt */
MDRP[10100]	/* MoveDirectRelPt */
MIRP[01100]	/* MoveIndirectRelPt */
SRP0[ ]	/* SetRefPoint0 */
MIRP[01110]	/* MoveIndirectRelPt */
SRP1[ ]	/* SetRefPoint1 */
SRP2[ ]	/* SetRefPoint2 */
IP[ ]	/* InterpolatePts */
SRP1[ ]	/* SetRefPoint1 */
SRP2[ ]	/* SetRefPoint2 */
IP[ ]	/* InterpolatePts */
SRP1[ ]	/* SetRefPoint1 */
SRP2[ ]	/* SetRefPoint2 */
IP[ ]	/* InterpolatePts */
SRP2[ ]	/* SetRefPoint2 */
IP[ ]	/* InterpolatePts */
IUP[1]	/* InterpolateUntPts */
SVTCA[0]	/* SetFreedomAndProjectionVectorToAxis */
MDAP[1]	/* MoveDirectAbsPt */
MIRP[01110]	/* MoveIndirectRelPt */
MIRP[10110]	/* MoveIndirectRelPt */
MIRP[11110]	/* MoveIndirectRelPt */
MIRP[10100]	/* MoveIndirectRelPt */
MIRP[01110]	/* MoveIndirectRelPt */
SRP0[ ]	/* SetRefPoint0 */
MDRP[01101]	/* MoveDirectRelPt */
SRP1[ ]	/* SetRefPoint1 */
IP[ ]	/* InterpolatePts */
IP[ ]	/* InterpolatePts */
SLOOP[ ]	/* SetLoopVariable */
IP[ ]	/* InterpolatePts */
IUP[0]	/* InterpolateUntPts */
MPPEM[ ]	/* MeasurePixelPerEm */
GTEQ[ ]	/* GreaterThanOrEqual */
IF[ ]	/* If */
SPVTL[1]	/* SetPVectorToLine */
SRP0[ ]	/* SetRefPoint0 */
SFVTCA[0]	/* SetFVectorToAxis */
MIRP[01101]	/* MoveIndirectRelPt */
SRP1[ ]	/* SetRefPoint1 */
SLOOP[ ]	/* SetLoopVariable */
IP[ ]	/* InterpolatePts */
SPVTL[1]	/* SetPVectorToLine */
SRP0[ ]	/* SetRefPoint0 */
SFVTCA[0]	/* SetFVectorToAxis */
MIRP[01101]	/* MoveIndirectRelPt */
SRP1[ ]	/* SetRefPoint1 */
SLOOP[ ]	/* SetLoopVariable */
IP[ ]	/* InterpolatePts */
EIF[ ]	/* EndIf */
CLEAR[ ]	/* ClearStack */";
};
width = 1233;
},
{
guides = (
{
angle = 80.3112;
pos = (666,463);
},
{
angle = 259.6952;
pos = (479,478);
}
);
layerId = "281C21A4-45D9-482C-B928-385594A59359";
shapes = (
{
closed = 1;
nodes = (
(696,638.667,o),
(723,688.667,o),
(835,782,cs),
(940,868,ls),
(1113.333,1012,o),
(1167,1105.667,o),
(1167,1231,cs),
(1167,1399,o),
(1025,1520,o),
(821,1520,cs),
(686.333,1520,o),
(554.333,1483,o),
(409,1407,c),
(373,1219,l),
(513,1307,o),
(648.667,1356,o),
(754,1356,cs),
(886,1356,o),
(965,1298.667,o),
(965,1200,cs),
(965,1125.333,o),
(922.333,1057,o),
(809,961,cs),
(702,870,ls),
(551.333,744.667,o),
(518.333,676.333,o),
(493,555,cs),
(465,401,l),
(655,401,l),
(676,524,l),
(676,524,l)
);
},
{
closed = 1;
nodes = (
(590,0,l),
(639,254,l),
(436,254,l),
(385,0,l),
(385,0,l)
);
}
);
userData = {
assembly = "NPUSHB[ ]	/* 72 values pushed */
0 5 1 2 1 23 24 25 26 27 28 6 22 29 5 2 2 1 32 5 33 30 33 31 5 30 33 58 29 26 5 2 4 6 25 15 0 30 16 99 15 12 99 19 97 30 83 32 32 31 29 26 6 5 2 1 0 9 9 16 33 25 30 9 18 22 15 30 2 33 15 34
SRP0[ ]	/* SetRefPoint0 */
MDRP[00100]	/* MoveDirectRelPt */
MDRP[10100]	/* MoveDirectRelPt */
MIRP[00100]	/* MoveIndirectRelPt */
SRP0[ ]	/* SetRefPoint0 */
MDRP[10110]	/* MoveDirectRelPt */
MIRP[01110]	/* MoveIndirectRelPt */
SRP1[ ]	/* SetRefPoint1 */
IP[ ]	/* InterpolatePts */
SRP2[ ]	/* SetRefPoint2 */
IP[ ]	/* InterpolatePts */
SRP2[ ]	/* SetRefPoint2 */
SLOOP[ ]	/* SetLoopVariable */
IP[ ]	/* InterpolatePts */
IUP[1]	/* InterpolateUntPts */
SVTCA[0]	/* SetFreedomAndProjectionVectorToAxis */
MDAP[1]	/* MoveDirectAbsPt */
MIRP[01110]	/* MoveIndirectRelPt */
MIRP[10110]	/* MoveIndirectRelPt */
MIRP[11110]	/* MoveIndirectRelPt */
MDRP[10100]	/* MoveDirectRelPt */
MIRP[01110]	/* MoveIndirectRelPt */
SRP0[ ]	/* SetRefPoint0 */
MDRP[00101]	/* MoveDirectRelPt */
SRP1[ ]	/* SetRefPoint1 */
IP[ ]	/* InterpolatePts */
IP[ ]	/* InterpolatePts */
SLOOP[ ]	/* SetLoopVariable */
IP[ ]	/* InterpolatePts */
IUP[0]	/* InterpolateUntPts */
MPPEM[ ]	/* MeasurePixelPerEm */
GTEQ[ ]	/* GreaterThanOrEqual */
IF[ ]	/* If */
SPVTL[1]	/* SetPVectorToLine */
SFVTCA[1]	/* SetFVectorToAxis */
MIRP[01101]	/* MoveIndirectRelPt */
SPVTL[1]	/* SetPVectorToLine */
SRP0[ ]	/* SetRefPoint0 */
SFVTCA[1]	/* SetFVectorToAxis */
MIRP[01101]	/* MoveIndirectRelPt */
SPVTL[1]	/* SetPVectorToLine */
SRP0[ ]	/* SetRefPoint0 */
SFVTCA[1]	/* SetFVectorToAxis */
MIRP[01101]	/* MoveIndirectRelPt */
SRP1[ ]	/* SetRefPoint1 */
SLOOP[ ]	/* SetLoopVariable */
IP[ ]	/* InterpolatePts */
SPVTL[1]	/* SetPVectorToLine */
SRP0[ ]	/* SetRefPoint0 */
SFVTCA[1]	/* SetFVectorToAxis */
MIRP[01101]	/* MoveIndirectRelPt */
EIF[ ]	/* EndIf */
CLEAR[ ]	/* ClearStack */";
};
width = 1233;
}
);
note = question;
unicode = 63;
},
{
glyphname = at;
lastChange = "2026-05-20 11:40:44 +0000";
layers = (
{
layerId = m01;
shapes = (
{
closed = 1;
nodes = (
(1038,371.667,o),
(945.667,260,o),
(803,260,cs),
(660.333,260,o),
(567,371.667,o),
(567,545,cs),
(567,717,o),
(660.333,829,o),
(803,829,cs),
(945.667,829,o),
(1038,717,o),
(1038,545,cs)
);
},
{
closed = 1;
nodes = (
(1178,1203.667,o),
(997.667,1395,o),
(719,1395,cs),
(297.667,1395,o),
(27,1063,o),
(27,543,cs),
(27,15,o),
(327,-319,o),
(803,-319,cs),
(880.333,-319,o),
(963,-303.333,o),
(1047,-270,c),
(999,-135,l),
(923,-163,o),
(852,-176,o),
(780,-176,cs),
(414.667,-176,o),
(176,104.333,o),
(176,543,cs),
(176,979,o),
(385,1253,o),
(713,1253,cs),
(906.333,1253,o),
(1034,1115,o),
(1034,907,cs),
(1034,844,l),
(986,925.333,o),
(890.667,975,o),
(784,975,cs),
(569.333,975,o),
(412,795.667,o),
(412,545,cs),
(412,294.333,o),
(569.333,115,o),
(784,115,cs),
(893.333,115,o),
(984.667,162,o),
(1034,246,c),
(1034,135,l),
(1178,135,l),
(1178,905,l),
(1178,905,l)
);
}
);
userData = {
assembly = "NPUSHB[ ]	/* 49 values pushed */
40 43 36 26 23 3 14 12 9 27 52 3 175 23 9 175 12 17 39 36 175 43 23 30 175 49 43 53 39 13 6 40 12 0 6 43 20 0 26 13 46 12 20 33 43 12 45 46 53
SRP0[ ]	/* SetRefPoint0 */
MDRP[11100]	/* MoveDirectRelPt */
MIRP[01100]	/* MoveIndirectRelPt */
MIRP[11100]	/* MoveIndirectRelPt */
MDRP[00100]	/* MoveDirectRelPt */
SRP0[ ]	/* SetRefPoint0 */
MIRP[11110]	/* MoveIndirectRelPt */
ALIGNRP[ ]	/* AlignRelativePt */
MDRP[00100]	/* MoveDirectRelPt */
SRP0[ ]	/* SetRefPoint0 */
MIRP[01110]	/* MoveIndirectRelPt */
SRP1[ ]	/* SetRefPoint1 */
SRP2[ ]	/* SetRefPoint2 */
IP[ ]	/* InterpolatePts */
SRP1[ ]	/* SetRefPoint1 */
SRP2[ ]	/* SetRefPoint2 */
IP[ ]	/* InterpolatePts */
IUP[1]	/* InterpolateUntPts */
SVTCA[0]	/* SetFreedomAndProjectionVectorToAxis */
SRP0[ ]	/* SetRefPoint0 */
MDRP[00100]	/* MoveDirectRelPt */
MDRP[10100]	/* MoveDirectRelPt */
MIRP[11100]	/* MoveIndirectRelPt */
MDRP[00100]	/* MoveDirectRelPt */
SRP0[ ]	/* SetRefPoint0 */
MIRP[11110]	/* MoveIndirectRelPt */
MDRP[00100]	/* MoveDirectRelPt */
MDRP[10101]	/* MoveDirectRelPt */
MDRP[00100]	/* MoveDirectRelPt */
MIRP[01110]	/* MoveIndirectRelPt */
SRP0[ ]	/* SetRefPoint0 */
MIRP[01110]	/* MoveIndirectRelPt */
IP[ ]	/* InterpolatePts */
IP[ ]	/* InterpolatePts */
SRP1[ ]	/* SetRefPoint1 */
SRP2[ ]	/* SetRefPoint2 */
IP[ ]	/* InterpolatePts */
SRP1[ ]	/* SetRefPoint1 */
SRP2[ ]	/* SetRefPoint2 */
IP[ ]	/* InterpolatePts */
SRP1[ ]	/* SetRefPoint1 */
SRP2[ ]	/* SetRefPoint2 */
IP[ ]	/* InterpolatePts */
IUP[0]	/* InterpolateUntPts */
NPUSHB[ ]	/* 13 values pushed */
128 5 128 6 128 7 128 19 128 20 128 21 6
SVTCA[1]	/* SetFreedomAndProjectionVectorToAxis */
DELTAP1[ ]	/* DeltaExceptionP1 */";
};
width = 1233;
},
{
layerId = "281C21A4-45D9-482C-B928-385594A59359";
shapes = (
{
closed = 1;
nodes = (
(634.333,260,o),
(564,339.667,o),
(564,469,cs),
(564,670.333,o),
(695,829,o),
(859,829,cs),
(976.333,829,o),
(1048,751,o),
(1048,623,cs),
(1048,420.333,o),
(915.667,260,o),
(749,260,cs)
);
},
{
closed = 1;
nodes = (
(1248,920.667,o),
(1254,972,o),
(1254,1012,cs),
(1254,1246.667,o),
(1093,1397,o),
(841,1397,cs),
(629,1397,o),
(424.667,1298.667,o),
(278,1124,cs),
(112.667,930.667,o),
(11,647,o),
(11,379,cs),
(11,-43.667,o),
(262,-317,o),
(646,-317,cs),
(756.667,-317,o),
(849,-297.333,o),
(937,-256,c),
(892,-125,l),
(802.667,-159.667,o),
(724,-176,o),
(648,-176,cs),
(348,-176,o),
(165,32.333,o),
(165,375,cs),
(165,584.333,o),
(225,789.333,o),
(337,956,cs),
(463.667,1146.667,o),
(647.667,1255,o),
(837,1255,cs),
(1010.333,1255,o),
(1113,1157,o),
(1113,989,cs),
(1113,969,o),
(1109,933.667,o),
(1101,887,cs),
(1093,844,l),
(1054.333,925.333,o),
(963,977,o),
(851,977,cs),
(608.333,977,o),
(405,737.333,o),
(405,444,cs),
(405,250.667,o),
(527.333,115,o),
(702,115,cs),
(810,115,o),
(908,162,o),
(976,246,c),
(955,135,l),
(1099,135,l),
(1236,858,l),
(1236,858,l)
);
}
);
userData = {
assembly = "NPUSHB[ ]	/* 53 values pushed */
46 49 42 26 64 27 23 6 14 12 0 6 120 23 0 120 12 17 45 42 120 49 23 33 120 49 58 65 64 61 27 13 12 3 4 14 26 45 46 4 30 9 24 20 30 23 61 20 39 24 61 52 65
SRP0[ ]	/* SetRefPoint0 */
MDRP[10100]	/* MoveDirectRelPt */
MDRP[00100]	/* MoveDirectRelPt */
MIRP[11100]	/* MoveIndirectRelPt */
MDRP[00100]	/* MoveDirectRelPt */
SRP0[ ]	/* SetRefPoint0 */
MIRP[01110]	/* MoveIndirectRelPt */
SRP0[ ]	/* SetRefPoint0 */
MIRP[01110]	/* MoveIndirectRelPt */
SRP1[ ]	/* SetRefPoint1 */
SLOOP[ ]	/* SetLoopVariable */
IP[ ]	/* InterpolatePts */
SLOOP[ ]	/* SetLoopVariable */
IP[ ]	/* InterpolatePts */
SRP2[ ]	/* SetRefPoint2 */
IP[ ]	/* InterpolatePts */
IUP[1]	/* InterpolateUntPts */
SVTCA[0]	/* SetFreedomAndProjectionVectorToAxis */
SRP0[ ]	/* SetRefPoint0 */
MDRP[10100]	/* MoveDirectRelPt */
MDRP[00100]	/* MoveDirectRelPt */
MIRP[11100]	/* MoveIndirectRelPt */
MDRP[00100]	/* MoveDirectRelPt */
SRP0[ ]	/* SetRefPoint0 */
MIRP[11110]	/* MoveIndirectRelPt */
MDRP[00100]	/* MoveDirectRelPt */
MDRP[10101]	/* MoveDirectRelPt */
MDRP[00100]	/* MoveDirectRelPt */
MIRP[01110]	/* MoveIndirectRelPt */
SRP0[ ]	/* SetRefPoint0 */
MIRP[01110]	/* MoveIndirectRelPt */
SRP1[ ]	/* SetRefPoint1 */
SRP2[ ]	/* SetRefPoint2 */
IP[ ]	/* InterpolatePts */
SRP1[ ]	/* SetRefPoint1 */
SRP2[ ]	/* SetRefPoint2 */
IP[ ]	/* InterpolatePts */
IP[ ]	/* InterpolatePts */
IP[ ]	/* InterpolatePts */
SRP1[ ]	/* SetRefPoint1 */
SRP2[ ]	/* SetRefPoint2 */
IP[ ]	/* InterpolatePts */
IUP[0]	/* InterpolateUntPts */
NPUSHB[ ]	/* 9 values pushed */
148 1 148 2 150 3 150 4 4
SVTCA[1]	/* SetFreedomAndProjectionVectorToAxis */
DELTAP1[ ]	/* DeltaExceptionP1 */";
};
width = 1233;
}
);
note = at;
unicode = 64;
},
{
glyphname = A;
lastChange = "2026-05-20 11:40:44 +0000";
layers = (
{
layerId = m01;
shapes = (
{
closed = 1;
nodes = (
(403,551,l),
(616,1315,l),
(829,551,l),
(829,551,l)
);
},
{
closed = 1;
nodes = (
(246,0,l),
(354,389,l),
(877,389,l),
(987,0,l),
(1196,0,l),
(739,1493,l),
(494,1493,l),
(37,0,l),
(37,0,l)
);
}
);
userData = {
assembly = "NPUSHB[ ]	/* 65 values pushed */
0 37 1 0 4 5 4 2 37 5 4 7 37 5 4 6 37 5 5 4 9 37 3 10 8 37 3 10 1 37 10 3 10 0 37 2 0 3 3 10 66 0 3 7 151 1 176 3 136 9 5 9 8 7 6 4 3 2 1 0 9 5 47 10 11
SRP0[ ]	/* SetRefPoint0 */
MDRP[11100]	/* MoveDirectRelPt */
MIRP[01100]	/* MoveIndirectRelPt */
SLOOP[ ]	/* SetLoopVariable */
IP[ ]	/* InterpolatePts */
IUP[1]	/* InterpolateUntPts */
SVTCA[0]	/* SetFreedomAndProjectionVectorToAxis */
MDAP[1]	/* MoveDirectAbsPt */
ALIGNRP[ ]	/* AlignRelativePt */
MIRP[00100]	/* MoveIndirectRelPt */
MIRP[11100]	/* MoveIndirectRelPt */
MIRP[01100]	/* MoveIndirectRelPt */
SRP2[ ]	/* SetRefPoint2 */
IP[ ]	/* InterpolatePts */
IUP[0]	/* InterpolateUntPts */
MPPEM[ ]	/* MeasurePixelPerEm */
GTEQ[ ]	/* GreaterThanOrEqual */
IF[ ]	/* If */
SPVTL[1]	/* SetPVectorToLine */
SRP0[ ]	/* SetRefPoint0 */
SFVTL[0]	/* SetFVectorToLine */
MIRP[01101]	/* MoveIndirectRelPt */
SPVTL[1]	/* SetPVectorToLine */
SRP0[ ]	/* SetRefPoint0 */
SFVTCA[1]	/* SetFVectorToAxis */
MIRP[01101]	/* MoveIndirectRelPt */
SPVTL[1]	/* SetPVectorToLine */
SFVTCA[1]	/* SetFVectorToAxis */
MIRP[01101]	/* MoveIndirectRelPt */
SPVTL[1]	/* SetPVectorToLine */
SFVTCA[1]	/* SetFVectorToAxis */
MIRP[01101]	/* MoveIndirectRelPt */
SPVTL[1]	/* SetPVectorToLine */
SRP0[ ]	/* SetRefPoint0 */
SFVTCA[1]	/* SetFVectorToAxis */
MIRP[01101]	/* MoveIndirectRelPt */
SPVTL[1]	/* SetPVectorToLine */
SFVTCA[1]	/* SetFVectorToAxis */
MIRP[01101]	/* MoveIndirectRelPt */
SPVTL[1]	/* SetPVectorToLine */
SFVTCA[1]	/* SetFVectorToAxis */
MIRP[01101]	/* MoveIndirectRelPt */
SPVTL[1]	/* SetPVectorToLine */
SRP0[ ]	/* SetRefPoint0 */
SFVTL[0]	/* SetFVectorToLine */
MIRP[01101]	/* MoveIndirectRelPt */
EIF[ ]	/* EndIf */
CLEAR[ ]	/* ClearStack */
PUSHB[ ]	/* 3 values pushed */
7 3 1
SVTCA[1]	/* SetFreedomAndProjectionVectorToAxis */
DELTAP1[ ]	/* DeltaExceptionP1 */
NPUSHB[ ]	/* 26 values pushed */
10 0 15 0 143 0 143 0 4 3 1 11 2 4 3 12 4 9 7 6 8 134 1 137 2 8
DELTAP1[ ]	/* DeltaExceptionP1 */
SVTCA[0]	/* SetFreedomAndProjectionVectorToAxis */
DELTAP1[ ]	/* DeltaExceptionP1 */";
};
width = 1233;
},
{
layerId = "281C21A4-45D9-482C-B928-385594A59359";
shapes = (
{
closed = 1;
nodes = (
(406,551,l),
(770,1325,l),
(836,551,l),
(836,551,l)
);
},
{
closed = 1;
nodes = (
(146,0,l),
(330,389,l),
(850,389,l),
(885,0,l),
(1086,0,l),
(920,1493,l),
(674,1493,l),
(-71,0,l),
(-71,0,l)
);
}
);
userData = {
assembly = "NPUSHB[ ]	/* 66 values pushed */
2 5 5 5 4 0 5 2 0 4 5 4 7 5 5 4 6 5 5 5 4 9 5 3 10 8 5 3 10 1 5 10 3 10 0 5 2 0 3 3 10 58 0 3 7 99 1 121 3 81 9 5 9 8 7 6 4 3 2 1 0 9 11 5 10 11
SRP0[ ]	/* SetRefPoint0 */
MDRP[10100]	/* MoveDirectRelPt */
MDRP[00100]	/* MoveDirectRelPt */
SRP1[ ]	/* SetRefPoint1 */
SLOOP[ ]	/* SetLoopVariable */
IP[ ]	/* InterpolatePts */
IUP[1]	/* InterpolateUntPts */
SVTCA[0]	/* SetFreedomAndProjectionVectorToAxis */
MDAP[1]	/* MoveDirectAbsPt */
ALIGNRP[ ]	/* AlignRelativePt */
MIRP[00100]	/* MoveIndirectRelPt */
MIRP[10100]	/* MoveIndirectRelPt */
MIRP[01100]	/* MoveIndirectRelPt */
SRP2[ ]	/* SetRefPoint2 */
IP[ ]	/* InterpolatePts */
IUP[0]	/* InterpolateUntPts */
MPPEM[ ]	/* MeasurePixelPerEm */
GTEQ[ ]	/* GreaterThanOrEqual */
IF[ ]	/* If */
SPVTL[1]	/* SetPVectorToLine */
SRP0[ ]	/* SetRefPoint0 */
SFVTL[0]	/* SetFVectorToLine */
MIRP[01101]	/* MoveIndirectRelPt */
SPVTL[1]	/* SetPVectorToLine */
SRP0[ ]	/* SetRefPoint0 */
SFVTCA[1]	/* SetFVectorToAxis */
MIRP[01101]	/* MoveIndirectRelPt */
SPVTL[1]	/* SetPVectorToLine */
SFVTCA[1]	/* SetFVectorToAxis */
MIRP[01101]	/* MoveIndirectRelPt */
SPVTL[1]	/* SetPVectorToLine */
SFVTCA[1]	/* SetFVectorToAxis */
MIRP[01101]	/* MoveIndirectRelPt */
SPVTL[1]	/* SetPVectorToLine */
SRP0[ ]	/* SetRefPoint0 */
SFVTCA[1]	/* SetFVectorToAxis */
MIRP[01101]	/* MoveIndirectRelPt */
SPVTL[1]	/* SetPVectorToLine */
SFVTCA[1]	/* SetFVectorToAxis */
MIRP[01101]	/* MoveIndirectRelPt */
SPVTL[1]	/* SetPVectorToLine */
SRP0[ ]	/* SetRefPoint0 */
SFVTL[0]	/* SetFVectorToLine */
MIRP[01101]	/* MoveIndirectRelPt */
SPVTL[1]	/* SetPVectorToLine */
SRP0[ ]	/* SetRefPoint0 */
SFVTCA[1]	/* SetFVectorToAxis */
MIRP[01101]	/* MoveIndirectRelPt */
EIF[ ]	/* EndIf */
CLEAR[ ]	/* ClearStack */";
};
width = 1233;
}
);
note = A;
unicode = 65;
},
{
glyphname = B;
lastChange = "2026-05-20 11:40:44 +0000";
layers = (
{
layerId = m01;
shapes = (
{
closed = 1;
nodes = (
(832,713,o),
(934,624.667,o),
(934,430,cs),
(934,242,o),
(842.667,166,o),
(608,166,cs),
(369,166,l),
(369,713,l),
(608,713,l),
(608,713,l)
);
},
{
closed = 1;
nodes = (
(801.333,1327,o),
(881,1264.667,o),
(881,1114,cs),
(881,947.333,o),
(798.667,877,o),
(604,877,cs),
(369,877,l),
(369,1327,l),
(604,1327,l),
(604,1327,l)
);
},
{
closed = 1;
nodes = (
(608,0,ls),
(958.667,0,o),
(1137,139.333,o),
(1137,410,cs),
(1137,623.333,o),
(1019,769.667,o),
(823,799,c),
(997.667,825.667,o),
(1085,931.333,o),
(1085,1114,cs),
(1085,1355.333,o),
(913.333,1493,o),
(608,1493,cs),
(166,1493,l),
(166,0,l),
(166,0,l)
);
}
);
userData = {
assembly = "NPUSHB[ ]	/* 35 values pushed */
25 0 151 10 9 151 18 136 1 151 10 177 31 17 11 25 31 19 8 2 5 0 14 30 22 5 50 28 49 9 0 30 18 48 33
SRP0[ ]	/* SetRefPoint0 */
MIRP[11100]	/* MoveIndirectRelPt */
MIRP[01100]	/* MoveIndirectRelPt */
SHP[0]	/* ShiftPointByLastPoint */
MIRP[11100]	/* MoveIndirectRelPt */
MIRP[01100]	/* MoveIndirectRelPt */
MDRP[10100]	/* MoveDirectRelPt */
MIRP[01100]	/* MoveIndirectRelPt */
SRP1[ ]	/* SetRefPoint1 */
SLOOP[ ]	/* SetLoopVariable */
IP[ ]	/* InterpolatePts */
IP[ ]	/* InterpolatePts */
IP[ ]	/* InterpolatePts */
IUP[1]	/* InterpolateUntPts */
SVTCA[0]	/* SetFreedomAndProjectionVectorToAxis */
MDAP[1]	/* MoveDirectAbsPt */
MIRP[01100]	/* MoveIndirectRelPt */
MIRP[01100]	/* MoveIndirectRelPt */
MIRP[10100]	/* MoveIndirectRelPt */
MIRP[01100]	/* MoveIndirectRelPt */
SRP0[ ]	/* SetRefPoint0 */
MIRP[01110]	/* MoveIndirectRelPt */
IP[ ]	/* InterpolatePts */
IUP[0]	/* InterpolateUntPts */";
};
width = 1233;
},
{
layerId = "281C21A4-45D9-482C-B928-385594A59359";
shapes = (
{
closed = 1;
nodes = (
(831.667,713,o),
(920,646.667,o),
(920,504,cs),
(920,285.333,o),
(786.333,166,o),
(541,166,cs),
(293,166,l),
(400,713,l),
(641,713,l),
(641,713,l)
);
},
{
closed = 1;
nodes = (
(928.667,1327,o),
(998,1274.333,o),
(998,1149,cs),
(998,979.667,o),
(875.333,877,o),
(674,877,cs),
(430,877,l),
(518,1327,l),
(762,1327,l),
(762,1327,l)
);
},
{
closed = 1;
nodes = (
(510,0,ls),
(898,0,o),
(1120,182,o),
(1120,494,cs),
(1120,659.333,o),
(1028.667,768.333,o),
(862,799,c),
(1070,825.667,o),
(1202,974.667,o),
(1202,1180,cs),
(1202,1385.333,o),
(1061.667,1493,o),
(791,1493,cs),
(348,1493,l),
(58,0,l),
(58,0,l)
);
}
);
userData = {
assembly = "NPUSHB[ ]	/* 64 values pushed */
0 5 18 18 32 1 5 32 18 32 11 1 12 10 5 18 32 17 1 16 9 5 18 18 32 58 25 0 99 10 9 99 18 81 1 99 10 122 31 1 32 10 9 8 2 0 5 11 17 19 25 31 5 18 5 18 28 14 25 22 18 1 32 33
SRP0[ ]	/* SetRefPoint0 */
MDRP[10100]	/* MoveDirectRelPt */
MIRP[00100]	/* MoveIndirectRelPt */
MDRP[10100]	/* MoveDirectRelPt */
MIRP[01100]	/* MoveIndirectRelPt */
MDRP[10100]	/* MoveDirectRelPt */
MIRP[01100]	/* MoveIndirectRelPt */
SRP1[ ]	/* SetRefPoint1 */
SLOOP[ ]	/* SetLoopVariable */
IP[ ]	/* InterpolatePts */
SLOOP[ ]	/* SetLoopVariable */
IP[ ]	/* InterpolatePts */
SRP2[ ]	/* SetRefPoint2 */
IP[ ]	/* InterpolatePts */
IUP[1]	/* InterpolateUntPts */
SVTCA[0]	/* SetFreedomAndProjectionVectorToAxis */
MDAP[1]	/* MoveDirectAbsPt */
MIRP[01100]	/* MoveIndirectRelPt */
MIRP[01100]	/* MoveIndirectRelPt */
MIRP[10100]	/* MoveIndirectRelPt */
MIRP[01100]	/* MoveIndirectRelPt */
SRP0[ ]	/* SetRefPoint0 */
MIRP[01110]	/* MoveIndirectRelPt */
IP[ ]	/* InterpolatePts */
IUP[0]	/* InterpolateUntPts */
MPPEM[ ]	/* MeasurePixelPerEm */
GTEQ[ ]	/* GreaterThanOrEqual */
IF[ ]	/* If */
SPVTL[1]	/* SetPVectorToLine */
SRP0[ ]	/* SetRefPoint0 */
SFVTCA[1]	/* SetFVectorToAxis */
MIRP[01101]	/* MoveIndirectRelPt */
SRP1[ ]	/* SetRefPoint1 */
SLOOP[ ]	/* SetLoopVariable */
IP[ ]	/* InterpolatePts */
SPVTL[1]	/* SetPVectorToLine */
SFVTCA[1]	/* SetFVectorToAxis */
MIRP[01101]	/* MoveIndirectRelPt */
SRP1[ ]	/* SetRefPoint1 */
SLOOP[ ]	/* SetLoopVariable */
IP[ ]	/* InterpolatePts */
SPVTL[1]	/* SetPVectorToLine */
SRP0[ ]	/* SetRefPoint0 */
SFVTCA[1]	/* SetFVectorToAxis */
MIRP[01101]	/* MoveIndirectRelPt */
SPVTL[1]	/* SetPVectorToLine */
SRP0[ ]	/* SetRefPoint0 */
SFVTCA[1]	/* SetFVectorToAxis */
MIRP[01101]	/* MoveIndirectRelPt */
EIF[ ]	/* EndIf */
CLEAR[ ]	/* ClearStack */";
};
width = 1233;
}
);
note = B;
unicode = 66;
},
{
glyphname = C;
lastChange = "2026-05-20 11:40:44 +0000";
layers = (
{
layerId = m01;
shapes = (
{
closed = 1;
nodes = (
(975.667,178.667,o),
(860.333,135,o),
(743,135,cs),
(480.333,135,o),
(350,337,o),
(350,745,cs),
(350,1154.333,o),
(480.333,1356,o),
(743,1356,cs),
(857.667,1356,o),
(974.333,1312.333,o),
(1073,1231,c),
(1073,1438,l),
(970.333,1492.667,o),
(864.333,1520,o),
(743,1520,cs),
(363,1520,o),
(139,1233,o),
(139,745,cs),
(139,254.333,o),
(360.333,-29,o),
(743,-29,cs),
(864.333,-29,o),
(970.333,-1.667,o),
(1073,53,c),
(1073,260,l),
(1073,260,l)
);
}
);
userData = {
assembly = "NPUSHB[ ]	/* 26 values pushed */
25 179 0 178 22 151 3 13 179 12 178 16 151 9 150 3 153 26 19 50 12 0 49 6 48 26
SRP0[ ]	/* SetRefPoint0 */
MIRP[11100]	/* MoveIndirectRelPt */
MIRP[01100]	/* MoveIndirectRelPt */
SHP[0]	/* ShiftPointByLastPoint */
MIRP[01100]	/* MoveIndirectRelPt */
IUP[1]	/* InterpolateUntPts */
SVTCA[0]	/* SetFreedomAndProjectionVectorToAxis */
SRP0[ ]	/* SetRefPoint0 */
MIRP[00100]	/* MoveIndirectRelPt */
MIRP[10100]	/* MoveIndirectRelPt */
MIRP[01100]	/* MoveIndirectRelPt */
MIRP[10100]	/* MoveIndirectRelPt */
MIRP[01100]	/* MoveIndirectRelPt */
SRP0[ ]	/* SetRefPoint0 */
MIRP[01110]	/* MoveIndirectRelPt */
MIRP[10110]	/* MoveIndirectRelPt */
MIRP[01110]	/* MoveIndirectRelPt */
IUP[0]	/* InterpolateUntPts */";
};
width = 1233;
},
{
layerId = "281C21A4-45D9-482C-B928-385594A59359";
shapes = (
{
closed = 1;
nodes = (
(898.667,178.667,o),
(775.333,135,o),
(662,135,cs),
(466,135,o),
(359,261.333,o),
(359,492,cs),
(359,749.333,o),
(451.333,1028,o),
(590,1192,cs),
(684.667,1302.667,o),
(791.333,1356,o),
(918,1356,cs),
(1024.667,1356,o),
(1118.667,1315,o),
(1204,1231,c),
(1245,1438,l),
(1145,1491.333,o),
(1038.667,1520,o),
(932,1520,cs),
(712,1520,o),
(544.667,1439.333,o),
(402,1266,cs),
(250,1083.333,o),
(148,770.333,o),
(148,477,cs),
(148,157,o),
(324.333,-29,o),
(631,-29,cs),
(752.333,-29,o),
(865,-1.667,o),
(977,53,c),
(1016,260,l),
(1016,260,l)
);
}
);
userData = {
assembly = "NPUSHB[ ]	/* 27 values pushed */
31 124 0 123 28 99 3 16 124 15 123 19 99 12 97 3 101 32 31 16 0 15 25 25 15 6 32
SRP0[ ]	/* SetRefPoint0 */
MDRP[10100]	/* MoveDirectRelPt */
MDRP[00100]	/* MoveDirectRelPt */
MIRP[01100]	/* MoveIndirectRelPt */
SRP1[ ]	/* SetRefPoint1 */
IP[ ]	/* InterpolatePts */
IP[ ]	/* InterpolatePts */
IP[ ]	/* InterpolatePts */
IUP[1]	/* InterpolateUntPts */
SVTCA[0]	/* SetFreedomAndProjectionVectorToAxis */
SRP0[ ]	/* SetRefPoint0 */
MIRP[00100]	/* MoveIndirectRelPt */
MIRP[10100]	/* MoveIndirectRelPt */
MIRP[01100]	/* MoveIndirectRelPt */
MIRP[10100]	/* MoveIndirectRelPt */
MIRP[01100]	/* MoveIndirectRelPt */
SRP0[ ]	/* SetRefPoint0 */
MIRP[01110]	/* MoveIndirectRelPt */
MIRP[10110]	/* MoveIndirectRelPt */
MIRP[01110]	/* MoveIndirectRelPt */
IUP[0]	/* InterpolateUntPts */";
};
width = 1233;
}
);
note = C;
unicode = 67;
},
{
glyphname = D;
lastChange = "2026-05-20 11:40:44 +0000";
layers = (
{
layerId = m01;
shapes = (
{
closed = 1;
nodes = (
(340,1327,l),
(436,1327,ls),
(777.333,1327,o),
(893,1186.333,o),
(893,745,cs),
(893,307.667,o),
(776,166,o),
(436,166,cs),
(340,166,l),
(340,166,l)
);
},
{
closed = 1;
nodes = (
(137,0,l),
(440,0,ls),
(896,0,o),
(1106,235.667,o),
(1106,745,cs),
(1106,1257,o),
(896,1493,o),
(440,1493,cs),
(137,1493,l),
(137,1493,l)
);
}
);
userData = {
assembly = "NPUSHB[ ]	/* 21 values pushed */
6 151 9 136 0 151 15 6 0 15 9 7 3 50 12 49 7 30 16 48 18
SRP0[ ]	/* SetRefPoint0 */
MIRP[11100]	/* MoveIndirectRelPt */
MIRP[01100]	/* MoveIndirectRelPt */
MIRP[11100]	/* MoveIndirectRelPt */
MIRP[01100]	/* MoveIndirectRelPt */
SRP1[ ]	/* SetRefPoint1 */
IP[ ]	/* InterpolatePts */
IP[ ]	/* InterpolatePts */
IP[ ]	/* InterpolatePts */
IP[ ]	/* InterpolatePts */
IUP[1]	/* InterpolateUntPts */
SVTCA[0]	/* SetFreedomAndProjectionVectorToAxis */
MDAP[1]	/* MoveDirectAbsPt */
MIRP[01100]	/* MoveIndirectRelPt */
MIRP[10100]	/* MoveIndirectRelPt */
MIRP[01100]	/* MoveIndirectRelPt */
IUP[0]	/* InterpolateUntPts */";
};
width = 1233;
},
{
layerId = "281C21A4-45D9-482C-B928-385594A59359";
shapes = (
{
closed = 1;
nodes = (
(488,1327,l),
(602,1327,ls),
(859.333,1327,o),
(959,1233.667,o),
(959,999,cs),
(959,821.667,o),
(908,585.333,o),
(836,432,cs),
(745.333,244,o),
(605.667,166,o),
(359,166,cs),
(262,166,l),
(262,166,l)
);
},
{
closed = 1;
nodes = (
(27,0,l),
(330,0,ls),
(683.333,0,o),
(871.333,99.333,o),
(1010,354,cs),
(1104.667,531.333,o),
(1165,777,o),
(1165,993,cs),
(1165,1329,o),
(985,1493,o),
(621,1493,cs),
(318,1493,l),
(318,1493,l)
);
}
);
userData = {
assembly = "NPUSHB[ ]	/* 40 values pushed */
0 1 1 11 5 22 23 22 9 1 8 10 5 23 23 22 58 9 99 12 81 0 99 21 11 24 10 9 0 3 21 12 23 6 25 15 23 1 22 24
SRP0[ ]	/* SetRefPoint0 */
MDRP[10100]	/* MoveDirectRelPt */
MIRP[00100]	/* MoveIndirectRelPt */
MDRP[10100]	/* MoveDirectRelPt */
MIRP[01100]	/* MoveIndirectRelPt */
SRP1[ ]	/* SetRefPoint1 */
IP[ ]	/* InterpolatePts */
IP[ ]	/* InterpolatePts */
SLOOP[ ]	/* SetLoopVariable */
IP[ ]	/* InterpolatePts */
SRP2[ ]	/* SetRefPoint2 */
IP[ ]	/* InterpolatePts */
IUP[1]	/* InterpolateUntPts */
SVTCA[0]	/* SetFreedomAndProjectionVectorToAxis */
MDAP[1]	/* MoveDirectAbsPt */
MIRP[01100]	/* MoveIndirectRelPt */
MIRP[10100]	/* MoveIndirectRelPt */
MIRP[01100]	/* MoveIndirectRelPt */
IUP[0]	/* InterpolateUntPts */
MPPEM[ ]	/* MeasurePixelPerEm */
GTEQ[ ]	/* GreaterThanOrEqual */
IF[ ]	/* If */
SPVTL[1]	/* SetPVectorToLine */
SRP0[ ]	/* SetRefPoint0 */
SFVTCA[1]	/* SetFVectorToAxis */
MIRP[01101]	/* MoveIndirectRelPt */
SRP1[ ]	/* SetRefPoint1 */
SLOOP[ ]	/* SetLoopVariable */
IP[ ]	/* InterpolatePts */
SPVTL[1]	/* SetPVectorToLine */
SRP0[ ]	/* SetRefPoint0 */
SFVTCA[1]	/* SetFVectorToAxis */
MIRP[01101]	/* MoveIndirectRelPt */
SRP1[ ]	/* SetRefPoint1 */
SLOOP[ ]	/* SetLoopVariable */
IP[ ]	/* InterpolatePts */
EIF[ ]	/* EndIf */
CLEAR[ ]	/* ClearStack */";
};
width = 1233;
}
);
note = D;
unicode = 68;
},
{
glyphname = E;
lastChange = "2026-05-20 11:40:44 +0000";
layers = (
{
layerId = m01;
shapes = (
{
closed = 1;
nodes = (
(1102,0,l),
(1102,170,l),
(399,170,l),
(399,711,l),
(1053,711,l),
(1053,881,l),
(399,881,l),
(399,1323,l),
(1083,1323,l),
(1083,1493,l),
(197,1493,l),
(197,0,l),
(197,0,l)
);
}
);
userData = {
assembly = "NPUSHB[ ]	/* 22 values pushed */
6 151 4 2 151 0 136 8 151 4 177 10 1 5 9 49 7 3 30 0 51 12
SRP0[ ]	/* SetRefPoint0 */
MIRP[11100]	/* MoveIndirectRelPt */
MIRP[01100]	/* MoveIndirectRelPt */
SHP[0]	/* ShiftPointByLastPoint */
MIRP[11100]	/* MoveIndirectRelPt */
MDRP[00100]	/* MoveDirectRelPt */
MDRP[00100]	/* MoveDirectRelPt */
IUP[1]	/* InterpolateUntPts */
SVTCA[0]	/* SetFreedomAndProjectionVectorToAxis */
MDAP[1]	/* MoveDirectAbsPt */
MIRP[01100]	/* MoveIndirectRelPt */
MIRP[01100]	/* MoveIndirectRelPt */
MIRP[10100]	/* MoveIndirectRelPt */
MIRP[01100]	/* MoveIndirectRelPt */
SRP0[ ]	/* SetRefPoint0 */
MIRP[01110]	/* MoveIndirectRelPt */
IUP[0]	/* InterpolateUntPts */";
};
width = 1233;
},
{
layerId = "281C21A4-45D9-482C-B928-385594A59359";
shapes = (
{
closed = 1;
nodes = (
(993,0,l),
(1026,170,l),
(324,170,l),
(428,711,l),
(1082,711,l),
(1114,881,l),
(461,881,l),
(547,1323,l),
(1231,1323,l),
(1264,1493,l),
(379,1493,l),
(88,0,l),
(88,0,l)
);
}
);
userData = {
assembly = "NPUSHB[ ]	/* 48 values pushed */
8 5 11 0 11 7 5 0 11 4 5 0 11 3 5 0 0 11 58 6 99 4 2 99 0 81 8 99 4 122 10 8 11 10 9 7 6 5 4 3 2 8 0 1 0 1 11 12
SRP0[ ]	/* SetRefPoint0 */
MDRP[10100]	/* MoveDirectRelPt */
MIRP[00100]	/* MoveIndirectRelPt */
MDRP[00100]	/* MoveDirectRelPt */
SRP1[ ]	/* SetRefPoint1 */
SLOOP[ ]	/* SetLoopVariable */
IP[ ]	/* InterpolatePts */
SRP2[ ]	/* SetRefPoint2 */
IP[ ]	/* InterpolatePts */
IUP[1]	/* InterpolateUntPts */
SVTCA[0]	/* SetFreedomAndProjectionVectorToAxis */
MDAP[1]	/* MoveDirectAbsPt */
MIRP[01100]	/* MoveIndirectRelPt */
MIRP[01100]	/* MoveIndirectRelPt */
MIRP[10100]	/* MoveIndirectRelPt */
MIRP[01100]	/* MoveIndirectRelPt */
SRP0[ ]	/* SetRefPoint0 */
MIRP[01110]	/* MoveIndirectRelPt */
IUP[0]	/* InterpolateUntPts */
MPPEM[ ]	/* MeasurePixelPerEm */
GTEQ[ ]	/* GreaterThanOrEqual */
IF[ ]	/* If */
SPVTL[1]	/* SetPVectorToLine */
SRP0[ ]	/* SetRefPoint0 */
SFVTCA[1]	/* SetFVectorToAxis */
MIRP[01101]	/* MoveIndirectRelPt */
SPVTL[1]	/* SetPVectorToLine */
SFVTCA[1]	/* SetFVectorToAxis */
MIRP[01101]	/* MoveIndirectRelPt */
SPVTL[1]	/* SetPVectorToLine */
SFVTCA[1]	/* SetFVectorToAxis */
MIRP[01101]	/* MoveIndirectRelPt */
SPVTL[1]	/* SetPVectorToLine */
SRP0[ ]	/* SetRefPoint0 */
SFVTCA[1]	/* SetFVectorToAxis */
MIRP[01101]	/* MoveIndirectRelPt */
EIF[ ]	/* EndIf */
CLEAR[ ]	/* ClearStack */";
};
width = 1233;
}
);
note = E;
unicode = 69;
},
{
glyphname = F;
lastChange = "2026-05-20 11:40:44 +0000";
layers = (
{
layerId = m01;
shapes = (
{
closed = 1;
nodes = (
(436,0,l),
(436,713,l),
(1049,713,l),
(1049,883,l),
(436,883,l),
(436,1323,l),
(1112,1323,l),
(1112,1493,l),
(233,1493,l),
(233,0,l),
(233,0,l)
);
}
);
userData = {
assembly = "NPUSHB[ ]	/* 19 values pushed */
6 151 4 2 151 0 136 4 177 8 5 1 49 7 3 30 0 52 10
SRP0[ ]	/* SetRefPoint0 */
MIRP[11100]	/* MoveIndirectRelPt */
MIRP[01100]	/* MoveIndirectRelPt */
SHP[0]	/* ShiftPointByLastPoint */
MIRP[11100]	/* MoveIndirectRelPt */
MDRP[00100]	/* MoveDirectRelPt */
IUP[1]	/* InterpolateUntPts */
SVTCA[0]	/* SetFreedomAndProjectionVectorToAxis */
MDAP[1]	/* MoveDirectAbsPt */
MIRP[01100]	/* MoveIndirectRelPt */
MIRP[10100]	/* MoveIndirectRelPt */
MIRP[01100]	/* MoveIndirectRelPt */
SRP0[ ]	/* SetRefPoint0 */
MIRP[01110]	/* MoveIndirectRelPt */
IUP[0]	/* InterpolateUntPts */";
};
width = 1233;
},
{
layerId = "281C21A4-45D9-482C-B928-385594A59359";
shapes = (
{
closed = 1;
nodes = (
(327,0,l),
(466,713,l),
(1079,713,l),
(1111,883,l),
(499,883,l),
(585,1323,l),
(1261,1323,l),
(1294,1493,l),
(415,1493,l),
(124,0,l),
(124,0,l)
);
}
);
userData = {
assembly = "NPUSHB[ ]	/* 44 values pushed */
8 5 9 0 9 7 5 0 9 4 5 0 9 3 5 0 0 9 58 6 99 4 2 99 0 81 4 122 8 8 9 7 6 5 4 3 2 6 0 1 0 1 9 10
SRP0[ ]	/* SetRefPoint0 */
MDRP[10100]	/* MoveDirectRelPt */
MIRP[00100]	/* MoveIndirectRelPt */
MDRP[00100]	/* MoveDirectRelPt */
SRP1[ ]	/* SetRefPoint1 */
SLOOP[ ]	/* SetLoopVariable */
IP[ ]	/* InterpolatePts */
SRP2[ ]	/* SetRefPoint2 */
IP[ ]	/* InterpolatePts */
IUP[1]	/* InterpolateUntPts */
SVTCA[0]	/* SetFreedomAndProjectionVectorToAxis */
MDAP[1]	/* MoveDirectAbsPt */
MIRP[01100]	/* MoveIndirectRelPt */
MIRP[10100]	/* MoveIndirectRelPt */
MIRP[01100]	/* MoveIndirectRelPt */
SRP0[ ]	/* SetRefPoint0 */
MIRP[01110]	/* MoveIndirectRelPt */
IUP[0]	/* InterpolateUntPts */
MPPEM[ ]	/* MeasurePixelPerEm */
GTEQ[ ]	/* GreaterThanOrEqual */
IF[ ]	/* If */
SPVTL[1]	/* SetPVectorToLine */
SRP0[ ]	/* SetRefPoint0 */
SFVTCA[1]	/* SetFVectorToAxis */
MIRP[01101]	/* MoveIndirectRelPt */
SPVTL[1]	/* SetPVectorToLine */
SFVTCA[1]	/* SetFVectorToAxis */
MIRP[01101]	/* MoveIndirectRelPt */
SPVTL[1]	/* SetPVectorToLine */
SFVTCA[1]	/* SetFVectorToAxis */
MIRP[01101]	/* MoveIndirectRelPt */
SPVTL[1]	/* SetPVectorToLine */
SRP0[ ]	/* SetRefPoint0 */
SFVTCA[1]	/* SetFVectorToAxis */
MIRP[01101]	/* MoveIndirectRelPt */
EIF[ ]	/* EndIf */
CLEAR[ ]	/* ClearStack */";
};
width = 1233;
}
);
note = F;
unicode = 70;
},
{
glyphname = G;
lastChange = "2026-05-20 11:40:44 +0000";
layers = (
{
layerId = m01;
shapes = (
{
closed = 1;
nodes = (
(694,766,l),
(694,600,l),
(911,600,l),
(911,199,l),
(856.333,155,o),
(791.333,135,o),
(702,135,cs),
(438,135,o),
(313,330.333,o),
(313,745,cs),
(313,1153,o),
(444.333,1356,o),
(707,1356,cs),
(833.667,1356,o),
(945,1308.667,o),
(1053,1206,c),
(1053,1413,l),
(946.333,1485,o),
(832.333,1520,o),
(707,1520,cs),
(327,1520,o),
(102,1233,o),
(102,745,cs),
(102,255.667,o),
(323.333,-29,o),
(702,-29,cs),
(859.333,-29,o),
(996,23,o),
(1104,123,c),
(1104,766,l),
(1104,766,l)
);
}
);
userData = {
assembly = "NPUSHB[ ]	/* 33 values pushed */
25 26 0 22 3 26 151 28 22 151 3 13 179 12 178 16 151 9 150 3 153 30 27 25 30 12 0 54 19 50 6 53 30
SRP0[ ]	/* SetRefPoint0 */
MIRP[11100]	/* MoveIndirectRelPt */
MIRP[01100]	/* MoveIndirectRelPt */
MIRP[11100]	/* MoveIndirectRelPt */
MDRP[00100]	/* MoveDirectRelPt */
MIRP[11100]	/* MoveIndirectRelPt */
MDRP[00100]	/* MoveDirectRelPt */
IUP[1]	/* InterpolateUntPts */
SVTCA[0]	/* SetFreedomAndProjectionVectorToAxis */
SRP0[ ]	/* SetRefPoint0 */
MIRP[00100]	/* MoveIndirectRelPt */
MIRP[10100]	/* MoveIndirectRelPt */
MIRP[01100]	/* MoveIndirectRelPt */
MIRP[10100]	/* MoveIndirectRelPt */
MIRP[01100]	/* MoveIndirectRelPt */
SRP0[ ]	/* SetRefPoint0 */
MIRP[11110]	/* MoveIndirectRelPt */
MDRP[10100]	/* MoveDirectRelPt */
MIRP[01110]	/* MoveIndirectRelPt */
SRP1[ ]	/* SetRefPoint1 */
SRP2[ ]	/* SetRefPoint2 */
IP[ ]	/* InterpolatePts */
SRP1[ ]	/* SetRefPoint1 */
IP[ ]	/* InterpolatePts */
IUP[0]	/* InterpolateUntPts */";
};
width = 1233;
},
{
layerId = "281C21A4-45D9-482C-B928-385594A59359";
shapes = (
{
closed = 1;
nodes = (
(730,766,l),
(700,600,l),
(917,600,l),
(841,207,l),
(791.667,160.333,o),
(718.667,135,o),
(628,135,cs),
(434.667,135,o),
(325,264,o),
(325,492,cs),
(325,600,o),
(348.667,735,o),
(394,887,cs),
(434,1016.333,o),
(487.333,1122.667,o),
(546,1192,cs),
(636.667,1300,o),
(753.333,1356,o),
(884,1356,cs),
(992,1356,o),
(1086.333,1315,o),
(1173,1231,c),
(1214,1438,l),
(1111.333,1491.333,o),
(1004.667,1520,o),
(898,1520,cs),
(676.667,1520,o),
(508.667,1439.333,o),
(366,1266,cs),
(291.333,1176.667,o),
(227.667,1049,o),
(181,893,cs),
(138.333,745,o),
(116,609,o),
(116,489,cs),
(116,157,o),
(287.667,-29,o),
(597,-29,cs),
(753,-29,o),
(891,13.333,o),
(1007,96,c),
(1140,766,l),
(1140,766,l)
);
}
);
userData = {
assembly = "NPUSHB[ ]	/* 51 values pushed */
38 5 41 0 41 35 36 2 34 37 5 0 0 41 58 37 38 0 34 3 38 99 40 34 99 3 19 124 18 123 22 99 15 97 3 101 42 40 39 38 37 4 0 31 19 41 18 31 25 6 42
SRP0[ ]	/* SetRefPoint0 */
MDRP[10100]	/* MoveDirectRelPt */
MIRP[01100]	/* MoveIndirectRelPt */
MDRP[10100]	/* MoveDirectRelPt */
MDRP[00100]	/* MoveDirectRelPt */
IP[ ]	/* InterpolatePts */
SRP1[ ]	/* SetRefPoint1 */
IP[ ]	/* InterpolatePts */
SLOOP[ ]	/* SetLoopVariable */
IP[ ]	/* InterpolatePts */
IUP[1]	/* InterpolateUntPts */
SVTCA[0]	/* SetFreedomAndProjectionVectorToAxis */
SRP0[ ]	/* SetRefPoint0 */
MIRP[00100]	/* MoveIndirectRelPt */
MIRP[10100]	/* MoveIndirectRelPt */
MIRP[01100]	/* MoveIndirectRelPt */
MIRP[10100]	/* MoveIndirectRelPt */
MIRP[01100]	/* MoveIndirectRelPt */
SRP0[ ]	/* SetRefPoint0 */
MIRP[11110]	/* MoveIndirectRelPt */
MDRP[10100]	/* MoveDirectRelPt */
MIRP[01110]	/* MoveIndirectRelPt */
SRP1[ ]	/* SetRefPoint1 */
SRP2[ ]	/* SetRefPoint2 */
IP[ ]	/* InterpolatePts */
SRP1[ ]	/* SetRefPoint1 */
IP[ ]	/* InterpolatePts */
IUP[0]	/* InterpolateUntPts */
MPPEM[ ]	/* MeasurePixelPerEm */
GTEQ[ ]	/* GreaterThanOrEqual */
IF[ ]	/* If */
SPVTL[1]	/* SetPVectorToLine */
SRP0[ ]	/* SetRefPoint0 */
SFVTCA[1]	/* SetFVectorToAxis */
MIRP[01101]	/* MoveIndirectRelPt */
SRP1[ ]	/* SetRefPoint1 */
SLOOP[ ]	/* SetLoopVariable */
IP[ ]	/* InterpolatePts */
SPVTL[1]	/* SetPVectorToLine */
SRP0[ ]	/* SetRefPoint0 */
SFVTCA[1]	/* SetFVectorToAxis */
MIRP[01101]	/* MoveIndirectRelPt */
EIF[ ]	/* EndIf */
CLEAR[ ]	/* ClearStack */";
};
width = 1233;
}
);
note = G;
unicode = 71;
},
{
glyphname = H;
lastChange = "2026-05-20 11:40:44 +0000";
layers = (
{
layerId = m01;
shapes = (
{
closed = 1;
nodes = (
(340,0,l),
(340,711,l),
(893,711,l),
(893,0,l),
(1096,0,l),
(1096,1493,l),
(893,1493,l),
(893,881,l),
(340,881,l),
(340,1493,l),
(137,1493,l),
(137,0,l),
(137,0,l)
);
}
);
userData = {
assembly = "NPUSHB[ ]	/* 20 values pushed */
8 151 2 177 4 0 136 10 6 7 3 30 5 49 9 1 30 0 48 12
SRP0[ ]	/* SetRefPoint0 */
MIRP[11100]	/* MoveIndirectRelPt */
MIRP[01100]	/* MoveIndirectRelPt */
SHP[0]	/* ShiftPointByLastPoint */
MIRP[11100]	/* MoveIndirectRelPt */
MIRP[01100]	/* MoveIndirectRelPt */
SHP[0]	/* ShiftPointByLastPoint */
IUP[1]	/* InterpolateUntPts */
SVTCA[0]	/* SetFreedomAndProjectionVectorToAxis */
MDAP[1]	/* MoveDirectAbsPt */
ALIGNRP[ ]	/* AlignRelativePt */
MIRP[00100]	/* MoveIndirectRelPt */
SHP[0]	/* ShiftPointByLastPoint */
MIRP[11100]	/* MoveIndirectRelPt */
MIRP[01100]	/* MoveIndirectRelPt */
IUP[0]	/* InterpolateUntPts */";
};
width = 1233;
},
{
layerId = "281C21A4-45D9-482C-B928-385594A59359";
shapes = (
{
closed = 1;
nodes = (
(231,0,l),
(368,711,l),
(923,711,l),
(784,0,l),
(986,0,l),
(1277,1493,l),
(1074,1493,l),
(956,881,l),
(403,881,l),
(521,1493,l),
(319,1493,l),
(28,0,l),
(28,0,l)
);
}
);
userData = {
assembly = "NPUSHB[ ]	/* 66 values pushed */
8 5 6 5 7 5 6 6 5 4 5 6 5 3 5 5 6 5 10 5 11 0 11 9 5 0 11 2 5 0 11 1 5 0 0 11 58 8 99 2 122 4 0 81 10 6 4 6 5 10 12 9 8 7 3 2 1 6 0 6 1 5 0 1 11 12
SRP0[ ]	/* SetRefPoint0 */
MDRP[10100]	/* MoveDirectRelPt */
MIRP[00100]	/* MoveIndirectRelPt */
MDRP[10100]	/* MoveDirectRelPt */
MIRP[00100]	/* MoveIndirectRelPt */
SRP1[ ]	/* SetRefPoint1 */
SLOOP[ ]	/* SetLoopVariable */
IP[ ]	/* InterpolatePts */
SRP2[ ]	/* SetRefPoint2 */
IP[ ]	/* InterpolatePts */
SRP1[ ]	/* SetRefPoint1 */
SRP2[ ]	/* SetRefPoint2 */
IP[ ]	/* InterpolatePts */
IUP[1]	/* InterpolateUntPts */
SVTCA[0]	/* SetFreedomAndProjectionVectorToAxis */
MDAP[1]	/* MoveDirectAbsPt */
ALIGNRP[ ]	/* AlignRelativePt */
MIRP[00100]	/* MoveIndirectRelPt */
SHP[0]	/* ShiftPointByLastPoint */
MIRP[11100]	/* MoveIndirectRelPt */
MIRP[01100]	/* MoveIndirectRelPt */
IUP[0]	/* InterpolateUntPts */
MPPEM[ ]	/* MeasurePixelPerEm */
GTEQ[ ]	/* GreaterThanOrEqual */
IF[ ]	/* If */
SPVTL[1]	/* SetPVectorToLine */
SRP0[ ]	/* SetRefPoint0 */
SFVTCA[1]	/* SetFVectorToAxis */
MIRP[01101]	/* MoveIndirectRelPt */
SPVTL[1]	/* SetPVectorToLine */
SFVTCA[1]	/* SetFVectorToAxis */
MIRP[01101]	/* MoveIndirectRelPt */
SPVTL[1]	/* SetPVectorToLine */
SFVTCA[1]	/* SetFVectorToAxis */
MIRP[01101]	/* MoveIndirectRelPt */
SPVTL[1]	/* SetPVectorToLine */
SRP0[ ]	/* SetRefPoint0 */
SFVTCA[1]	/* SetFVectorToAxis */
MIRP[01101]	/* MoveIndirectRelPt */
SPVTL[1]	/* SetPVectorToLine */
SRP0[ ]	/* SetRefPoint0 */
SFVTCA[1]	/* SetFVectorToAxis */
MIRP[01101]	/* MoveIndirectRelPt */
SPVTL[1]	/* SetPVectorToLine */
SFVTCA[1]	/* SetFVectorToAxis */
MIRP[01101]	/* MoveIndirectRelPt */
SPVTL[1]	/* SetPVectorToLine */
SRP0[ ]	/* SetRefPoint0 */
SFVTCA[1]	/* SetFVectorToAxis */
MIRP[01101]	/* MoveIndirectRelPt */
SPVTL[1]	/* SetPVectorToLine */
SFVTCA[1]	/* SetFVectorToAxis */
MIRP[01101]	/* MoveIndirectRelPt */
EIF[ ]	/* EndIf */
CLEAR[ ]	/* ClearStack */";
};
width = 1233;
}
);
note = H;
unicode = 72;
},
{
glyphname = I;
lastChange = "2026-05-20 11:40:44 +0000";
layers = (
{
layerId = m01;
shapes = (
{
closed = 1;
nodes = (
(514,1323,l),
(514,170,l),
(201,170,l),
(201,0,l),
(1030,0,l),
(1030,170,l),
(717,170,l),
(717,1323,l),
(1030,1323,l),
(1030,1493,l),
(201,1493,l),
(201,1323,l),
(201,1323,l)
);
}
);
userData = {
assembly = "NPUSHB[ ]	/* 19 values pushed */
10 2 151 0 136 8 4 151 6 5 1 55 3 30 7 0 55 9 12
SRP0[ ]	/* SetRefPoint0 */
MDRP[10100]	/* MoveDirectRelPt */
MIRP[01100]	/* MoveIndirectRelPt */
SHP[0]	/* ShiftPointByLastPoint */
MIRP[11100]	/* MoveIndirectRelPt */
MIRP[01100]	/* MoveIndirectRelPt */
SHP[0]	/* ShiftPointByLastPoint */
IUP[1]	/* InterpolateUntPts */
SVTCA[0]	/* SetFreedomAndProjectionVectorToAxis */
MDAP[1]	/* MoveDirectAbsPt */
MIRP[01100]	/* MoveIndirectRelPt */
SHP[0]	/* ShiftPointByLastPoint */
MIRP[10100]	/* MoveIndirectRelPt */
MIRP[01100]	/* MoveIndirectRelPt */
SHP[0]	/* ShiftPointByLastPoint */
IUP[0]	/* InterpolateUntPts */";
};
width = 1233;
},
{
layerId = "281C21A4-45D9-482C-B928-385594A59359";
shapes = (
{
closed = 1;
nodes = (
(662,1323,l),
(438,170,l),
(125,170,l),
(92,0,l),
(922,0,l),
(955,170,l),
(641,170,l),
(864,1323,l),
(1178,1323,l),
(1211,1493,l),
(381,1493,l),
(348,1323,l),
(348,1323,l)
);
}
);
userData = {
assembly = "NPUSHB[ ]	/* 34 values pushed */
4 5 9 10 9 3 5 10 10 9 58 10 2 99 0 81 8 4 99 6 11 10 9 8 6 5 4 3 2 0 10 1 7 12
SRP0[ ]	/* SetRefPoint0 */
MDRP[10100]	/* MoveDirectRelPt */
MDRP[00100]	/* MoveDirectRelPt */
SLOOP[ ]	/* SetLoopVariable */
IP[ ]	/* InterpolatePts */
IUP[1]	/* InterpolateUntPts */
SVTCA[0]	/* SetFreedomAndProjectionVectorToAxis */
MDAP[1]	/* MoveDirectAbsPt */
MIRP[01100]	/* MoveIndirectRelPt */
SHP[0]	/* ShiftPointByLastPoint */
MIRP[10100]	/* MoveIndirectRelPt */
MIRP[01100]	/* MoveIndirectRelPt */
SHP[0]	/* ShiftPointByLastPoint */
IUP[0]	/* InterpolateUntPts */
MPPEM[ ]	/* MeasurePixelPerEm */
GTEQ[ ]	/* GreaterThanOrEqual */
IF[ ]	/* If */
SPVTL[1]	/* SetPVectorToLine */
SRP0[ ]	/* SetRefPoint0 */
SFVTCA[1]	/* SetFVectorToAxis */
MIRP[01101]	/* MoveIndirectRelPt */
SPVTL[1]	/* SetPVectorToLine */
SRP0[ ]	/* SetRefPoint0 */
SFVTCA[1]	/* SetFVectorToAxis */
MIRP[01101]	/* MoveIndirectRelPt */
EIF[ ]	/* EndIf */
CLEAR[ ]	/* ClearStack */";
};
width = 1233;
}
);
note = I;
unicode = 73;
},
{
glyphname = J;
lastChange = "2026-05-20 11:40:44 +0000";
layers = (
{
layerId = m01;
shapes = (
{
closed = 1;
nodes = (
(246.333,-0.333,o),
(370,-29,o),
(498,-29,cs),
(827.333,-29,o),
(956,111,o),
(956,487,cs),
(956,1493,l),
(373,1493,l),
(373,1323,l),
(754,1323,l),
(754,487,ls),
(754,216.333,o),
(688.667,135,o),
(498,135,cs),
(359.333,135,o),
(230.333,189,o),
(109,297,c),
(109,61,l),
(109,61,l)
);
}
);
userData = {
assembly = "NPUSHB[ ]	/* 23 values pushed */
12 7 8 1 0 178 4 151 15 8 151 10 136 15 153 18 9 7 30 11 0 53 18
SRP0[ ]	/* SetRefPoint0 */
MIRP[11100]	/* MoveIndirectRelPt */
MDRP[10100]	/* MoveDirectRelPt */
MIRP[11100]	/* MoveIndirectRelPt */
MDRP[00100]	/* MoveDirectRelPt */
IUP[1]	/* InterpolateUntPts */
SVTCA[0]	/* SetFreedomAndProjectionVectorToAxis */
SRP0[ ]	/* SetRefPoint0 */
MIRP[00100]	/* MoveIndirectRelPt */
MIRP[10100]	/* MoveIndirectRelPt */
MIRP[01100]	/* MoveIndirectRelPt */
SRP0[ ]	/* SetRefPoint0 */
MIRP[01110]	/* MoveIndirectRelPt */
MIRP[10110]	/* MoveIndirectRelPt */
MDRP[01110]	/* MoveDirectRelPt */
SRP1[ ]	/* SetRefPoint1 */
IP[ ]	/* InterpolatePts */
IP[ ]	/* InterpolatePts */
IUP[0]	/* InterpolateUntPts */";
};
width = 1233;
},
{
layerId = "281C21A4-45D9-482C-B928-385594A59359";
shapes = (
{
closed = 1;
nodes = (
(144,2.333,o),
(278.667,-29,o),
(408,-29,cs),
(725.333,-29,o),
(867.333,101.667,o),
(942,487,cs),
(1139,1493,l),
(555,1493,l),
(522,1323,l),
(903,1323,l),
(739,487,ls),
(685.667,212.333,o),
(605.333,135,o),
(416,135,cs),
(278.667,135,o),
(153,191.667,o),
(57,297,c),
(12,61,l),
(12,61,l)
);
}
);
userData = {
assembly = "NPUSHB[ ]	/* 46 values pushed */
8 5 11 12 11 1 2 3 4 5 6 6 0 7 5 12 12 11 58 12 7 8 1 0 123 4 99 15 8 99 10 81 15 101 18 10 9 8 7 1 5 18 12 11 0 18
SRP0[ ]	/* SetRefPoint0 */
MDRP[10100]	/* MoveDirectRelPt */
MDRP[01100]	/* MoveDirectRelPt */
IP[ ]	/* InterpolatePts */
SRP1[ ]	/* SetRefPoint1 */
SLOOP[ ]	/* SetLoopVariable */
IP[ ]	/* InterpolatePts */
IUP[1]	/* InterpolateUntPts */
SVTCA[0]	/* SetFreedomAndProjectionVectorToAxis */
SRP0[ ]	/* SetRefPoint0 */
MIRP[00100]	/* MoveIndirectRelPt */
MIRP[10100]	/* MoveIndirectRelPt */
MIRP[01100]	/* MoveIndirectRelPt */
SRP0[ ]	/* SetRefPoint0 */
MIRP[01110]	/* MoveIndirectRelPt */
MIRP[10110]	/* MoveIndirectRelPt */
MDRP[00110]	/* MoveDirectRelPt */
SRP1[ ]	/* SetRefPoint1 */
IP[ ]	/* InterpolatePts */
IP[ ]	/* InterpolatePts */
IUP[0]	/* InterpolateUntPts */
MPPEM[ ]	/* MeasurePixelPerEm */
GTEQ[ ]	/* GreaterThanOrEqual */
IF[ ]	/* If */
SPVTL[1]	/* SetPVectorToLine */
SRP0[ ]	/* SetRefPoint0 */
SFVTCA[1]	/* SetFVectorToAxis */
MIRP[01101]	/* MoveIndirectRelPt */
SRP1[ ]	/* SetRefPoint1 */
SLOOP[ ]	/* SetLoopVariable */
IP[ ]	/* InterpolatePts */
SPVTL[1]	/* SetPVectorToLine */
SRP0[ ]	/* SetRefPoint0 */
SFVTCA[1]	/* SetFVectorToAxis */
MIRP[01101]	/* MoveIndirectRelPt */
EIF[ ]	/* EndIf */
CLEAR[ ]	/* ClearStack */";
};
width = 1233;
}
);
note = J;
unicode = 74;
},
{
glyphname = K;
lastChange = "2026-05-20 11:40:44 +0000";
layers = (
{
layerId = m01;
shapes = (
{
closed = 1;
nodes = (
(340,0,l),
(340,584,l),
(494,748,l),
(981,0,l),
(1225,0,l),
(627,883,l),
(1208,1493,l),
(971,1493,l),
(340,829,l),
(340,1493,l),
(137,1493,l),
(137,0,l),
(137,0,l)
);
}
);
userData = {
assembly = "NPUSHB[ ]	/* 33 values pushed */
8 37 9 8 5 6 5 7 37 6 5 66 8 5 2 3 3 0 180 10 6 8 5 4 3 6 1 9 1 30 0 48 12
SRP0[ ]	/* SetRefPoint0 */
MIRP[11100]	/* MoveIndirectRelPt */
MIRP[01100]	/* MoveIndirectRelPt */
SHP[0]	/* ShiftPointByLastPoint */
SRP0[ ]	/* SetRefPoint0 */
MDRP[00000]	/* MoveDirectRelPt */
SLOOP[ ]	/* SetLoopVariable */
IP[ ]	/* InterpolatePts */
IUP[1]	/* InterpolateUntPts */
SVTCA[0]	/* SetFreedomAndProjectionVectorToAxis */
MDAP[1]	/* MoveDirectAbsPt */
ALIGNRP[ ]	/* AlignRelativePt */
MIRP[01100]	/* MoveIndirectRelPt */
SHP[0]	/* ShiftPointByLastPoint */
SLOOP[ ]	/* SetLoopVariable */
IP[ ]	/* InterpolatePts */
IUP[0]	/* InterpolateUntPts */
MPPEM[ ]	/* MeasurePixelPerEm */
GTEQ[ ]	/* GreaterThanOrEqual */
IF[ ]	/* If */
SPVTL[1]	/* SetPVectorToLine */
SFVTCA[1]	/* SetFVectorToAxis */
MIRP[01101]	/* MoveIndirectRelPt */
SPVTL[1]	/* SetPVectorToLine */
SRP0[ ]	/* SetRefPoint0 */
SFVTL[0]	/* SetFVectorToLine */
MIRP[01101]	/* MoveIndirectRelPt */
EIF[ ]	/* EndIf */
CLEAR[ ]	/* ClearStack */
PUSHB[ ]	/* 3 values pushed */
8 4 1
SVTCA[1]	/* SetFreedomAndProjectionVectorToAxis */
DELTAP1[ ]	/* DeltaExceptionP1 */
NPUSHB[ ]	/* 76 values pushed */
7 5 22 5 23 8 38 5 38 8 54 2 70 2 85 2 87 8 88 9 100 2 122 5 121 8 123 9 14 2 3 1 4 7 5 0 6 2 7 22 5 23 8 39 5 44 6 43 7 38 8 58 3 73 3 71 6 71 7 91 3 87 5 88 6 88 7 87 8 107 3 122 3 120 7 23
DELTAP1[ ]	/* DeltaExceptionP1 */
SVTCA[0]	/* SetFreedomAndProjectionVectorToAxis */
DELTAP1[ ]	/* DeltaExceptionP1 */";
};
width = 1233;
},
{
layerId = "281C21A4-45D9-482C-B928-385594A59359";
shapes = (
{
closed = 1;
nodes = (
(233,0,l),
(345,573,l),
(538,741,l),
(898,0,l),
(1117,0,l),
(689,874,l),
(1392,1493,l),
(1138,1493,l),
(396,846,l),
(523,1493,l),
(321,1493,l),
(30,0,l),
(30,0,l)
);
}
);
userData = {
assembly = "NPUSHB[ ]	/* 59 values pushed */
8 5 9 8 5 6 5 7 5 6 6 5 10 5 0 11 9 5 8 9 11 0 11 2 5 3 2 0 11 1 5 0 0 11 58 8 5 2 3 3 0 125 10 6 10 12 8 7 6 5 2 1 6 0 4 0 1 11 12
SRP0[ ]	/* SetRefPoint0 */
MDRP[10100]	/* MoveDirectRelPt */
MIRP[00100]	/* MoveIndirectRelPt */
MDRP[01100]	/* MoveDirectRelPt */
SRP1[ ]	/* SetRefPoint1 */
SLOOP[ ]	/* SetLoopVariable */
IP[ ]	/* InterpolatePts */
SRP2[ ]	/* SetRefPoint2 */
IP[ ]	/* InterpolatePts */
IUP[1]	/* InterpolateUntPts */
SVTCA[0]	/* SetFreedomAndProjectionVectorToAxis */
MDAP[1]	/* MoveDirectAbsPt */
ALIGNRP[ ]	/* AlignRelativePt */
MIRP[01100]	/* MoveIndirectRelPt */
SHP[0]	/* ShiftPointByLastPoint */
SLOOP[ ]	/* SetLoopVariable */
IP[ ]	/* InterpolatePts */
IUP[0]	/* InterpolateUntPts */
MPPEM[ ]	/* MeasurePixelPerEm */
GTEQ[ ]	/* GreaterThanOrEqual */
IF[ ]	/* If */
SPVTL[1]	/* SetPVectorToLine */
SRP0[ ]	/* SetRefPoint0 */
SFVTCA[1]	/* SetFVectorToAxis */
MIRP[01101]	/* MoveIndirectRelPt */
SPVTL[1]	/* SetPVectorToLine */
SFVTL[0]	/* SetFVectorToLine */
MIRP[01101]	/* MoveIndirectRelPt */
SPVTL[1]	/* SetPVectorToLine */
SRP0[ ]	/* SetRefPoint0 */
SFVTL[0]	/* SetFVectorToLine */
MIRP[01101]	/* MoveIndirectRelPt */
SPVTL[1]	/* SetPVectorToLine */
SFVTCA[1]	/* SetFVectorToAxis */
MIRP[01101]	/* MoveIndirectRelPt */
SPVTL[1]	/* SetPVectorToLine */
SRP0[ ]	/* SetRefPoint0 */
SFVTCA[1]	/* SetFVectorToAxis */
MIRP[01101]	/* MoveIndirectRelPt */
SPVTL[1]	/* SetPVectorToLine */
SRP0[ ]	/* SetRefPoint0 */
SFVTL[0]	/* SetFVectorToLine */
MIRP[01101]	/* MoveIndirectRelPt */
EIF[ ]	/* EndIf */
CLEAR[ ]	/* ClearStack */";
};
width = 1233;
}
);
note = K;
unicode = 75;
},
{
glyphname = L;
lastChange = "2026-05-20 11:40:44 +0000";
layers = (
{
layerId = m01;
shapes = (
{
closed = 1;
nodes = (
(1139,0,l),
(1139,170,l),
(418,170,l),
(418,1493,l),
(215,1493,l),
(215,0,l),
(215,0,l)
);
}
);
userData = {
assembly = "NPUSHB[ ]	/* 12 values pushed */
2 151 0 136 4 1 30 3 49 0 52 6
SRP0[ ]	/* SetRefPoint0 */
MIRP[11100]	/* MoveIndirectRelPt */
MIRP[01100]	/* MoveIndirectRelPt */
MIRP[01100]	/* MoveIndirectRelPt */
IUP[1]	/* InterpolateUntPts */
SVTCA[0]	/* SetFreedomAndProjectionVectorToAxis */
MDAP[1]	/* MoveDirectAbsPt */
MIRP[00100]	/* MoveIndirectRelPt */
MIRP[01100]	/* MoveIndirectRelPt */
IUP[0]	/* InterpolateUntPts */";
};
width = 1233;
},
{
layerId = "281C21A4-45D9-482C-B928-385594A59359";
shapes = (
{
closed = 1;
nodes = (
(1029,0,l),
(1062,170,l),
(341,170,l),
(599,1493,l),
(397,1493,l),
(106,0,l),
(106,0,l)
);
}
);
userData = {
assembly = "NPUSHB[ ]	/* 26 values pushed */
2 5 5 0 5 1 5 0 0 5 58 2 99 0 81 4 2 5 4 1 0 3 0 1 5 6
SRP0[ ]	/* SetRefPoint0 */
MDRP[10100]	/* MoveDirectRelPt */
MIRP[00100]	/* MoveIndirectRelPt */
MDRP[00100]	/* MoveDirectRelPt */
SRP1[ ]	/* SetRefPoint1 */
IP[ ]	/* InterpolatePts */
IP[ ]	/* InterpolatePts */
SRP2[ ]	/* SetRefPoint2 */
IP[ ]	/* InterpolatePts */
IUP[1]	/* InterpolateUntPts */
SVTCA[0]	/* SetFreedomAndProjectionVectorToAxis */
MDAP[1]	/* MoveDirectAbsPt */
MIRP[00100]	/* MoveIndirectRelPt */
MIRP[01100]	/* MoveIndirectRelPt */
IUP[0]	/* InterpolateUntPts */
MPPEM[ ]	/* MeasurePixelPerEm */
GTEQ[ ]	/* GreaterThanOrEqual */
IF[ ]	/* If */
SPVTL[1]	/* SetPVectorToLine */
SRP0[ ]	/* SetRefPoint0 */
SFVTCA[1]	/* SetFVectorToAxis */
MIRP[01101]	/* MoveIndirectRelPt */
SPVTL[1]	/* SetPVectorToLine */
SRP0[ ]	/* SetRefPoint0 */
SFVTCA[1]	/* SetFVectorToAxis */
MIRP[01101]	/* MoveIndirectRelPt */
EIF[ ]	/* EndIf */
CLEAR[ ]	/* ClearStack */";
};
width = 1233;
}
);
note = L;
unicode = 76;
},
{
glyphname = M;
lastChange = "2026-05-20 11:40:44 +0000";
layers = (
{
layerId = m01;
shapes = (
{
closed = 1;
nodes = (
(272,0,l),
(272,1319,l),
(539,532,l),
(692,532,l),
(958,1319,l),
(958,0,l),
(1145,0,l),
(1145,1493,l),
(874,1493,l),
(614,733,l),
(356,1493,l),
(86,1493,l),
(86,0,l),
(86,0,l)
);
}
);
userData = {
assembly = "NPUSHB[ ]	/* 44 values pushed */
8 2 3 2 7 3 3 2 10 1 2 1 9 2 2 1 66 10 7 2 3 0 8 3 0 180 11 5 9 8 3 2 1 5 10 6 6 4 47 10 6 0 48 13
SRP0[ ]	/* SetRefPoint0 */
MIRP[11100]	/* MoveIndirectRelPt */
MIRP[01100]	/* MoveIndirectRelPt */
MIRP[11100]	/* MoveIndirectRelPt */
MIRP[01100]	/* MoveIndirectRelPt */
SRP1[ ]	/* SetRefPoint1 */
SLOOP[ ]	/* SetLoopVariable */
IP[ ]	/* InterpolatePts */
IUP[1]	/* InterpolateUntPts */
SVTCA[0]	/* SetFreedomAndProjectionVectorToAxis */
MDAP[1]	/* MoveDirectAbsPt */
ALIGNRP[ ]	/* AlignRelativePt */
MIRP[01100]	/* MoveIndirectRelPt */
SHP[0]	/* ShiftPointByLastPoint */
MDRP[00100]	/* MoveDirectRelPt */
SRP1[ ]	/* SetRefPoint1 */
SLOOP[ ]	/* SetLoopVariable */
IP[ ]	/* InterpolatePts */
IUP[0]	/* InterpolateUntPts */
MPPEM[ ]	/* MeasurePixelPerEm */
GTEQ[ ]	/* GreaterThanOrEqual */
IF[ ]	/* If */
SPVTL[1]	/* SetPVectorToLine */
SRP0[ ]	/* SetRefPoint0 */
SFVTCA[1]	/* SetFVectorToAxis */
MDRP[01001]	/* MoveDirectRelPt */
SPVTL[1]	/* SetPVectorToLine */
SRP0[ ]	/* SetRefPoint0 */
SFVTCA[0]	/* SetFVectorToAxis */
MDRP[01001]	/* MoveDirectRelPt */
SPVTL[1]	/* SetPVectorToLine */
SRP0[ ]	/* SetRefPoint0 */
SFVTCA[0]	/* SetFVectorToAxis */
MDRP[01001]	/* MoveDirectRelPt */
SPVTL[1]	/* SetPVectorToLine */
SRP0[ ]	/* SetRefPoint0 */
SFVTCA[1]	/* SetFVectorToAxis */
MDRP[01001]	/* MoveDirectRelPt */
EIF[ ]	/* EndIf */
CLEAR[ ]	/* ClearStack */
PUSHB[ ]	/* 3 values pushed */
15 10 1
SVTCA[0]	/* SetFreedomAndProjectionVectorToAxis */
DELTAP1[ ]	/* DeltaExceptionP1 */
NPUSHB[ ]	/* 36 values pushed */
5 8 10 9 23 1 24 3 23 8 24 9 38 1 41 3 38 8 41 9 54 1 57 3 54 8 56 9 14 15 7 15 7 15 10 3
DELTAP1[ ]	/* DeltaExceptionP1 */
SVTCA[1]	/* SetFreedomAndProjectionVectorToAxis */
DELTAP1[ ]	/* DeltaExceptionP1 */";
};
width = 1233;
},
{
layerId = "281C21A4-45D9-482C-B928-385594A59359";
shapes = (
{
closed = 1;
nodes = (
(163,0,l),
(419,1327,l),
(534,532,l),
(675,532,l),
(1109,1327,l),
(851,0,l),
(1037,0,l),
(1328,1493,l),
(1058,1493,l),
(644,737,l),
(534,1493,l),
(265,1493,l),
(-23,0,l),
(-23,0,l)
);
}
);
userData = {
assembly = "NPUSHB[ ]	/* 68 values pushed */
10 1 2 1 9 2 1 8 2 3 2 7 3 3 2 7 5 4 5 4 6 5 5 5 4 11 5 12 0 12 10 5 0 0 12 58 10 7 2 3 0 8 3 0 125 11 5 7 3 5 4 11 13 10 9 8 6 2 1 6 0 5 1 4 0 1 12 13
SRP0[ ]	/* SetRefPoint0 */
MDRP[10100]	/* MoveDirectRelPt */
MIRP[00100]	/* MoveIndirectRelPt */
MDRP[11100]	/* MoveDirectRelPt */
MIRP[00100]	/* MoveIndirectRelPt */
SRP1[ ]	/* SetRefPoint1 */
SLOOP[ ]	/* SetLoopVariable */
IP[ ]	/* InterpolatePts */
SRP2[ ]	/* SetRefPoint2 */
IP[ ]	/* InterpolatePts */
SRP1[ ]	/* SetRefPoint1 */
SRP2[ ]	/* SetRefPoint2 */
IP[ ]	/* InterpolatePts */
IP[ ]	/* InterpolatePts */
IUP[1]	/* InterpolateUntPts */
SVTCA[0]	/* SetFreedomAndProjectionVectorToAxis */
MDAP[1]	/* MoveDirectAbsPt */
ALIGNRP[ ]	/* AlignRelativePt */
MIRP[01100]	/* MoveIndirectRelPt */
SHP[0]	/* ShiftPointByLastPoint */
MDRP[00100]	/* MoveDirectRelPt */
SRP1[ ]	/* SetRefPoint1 */
SLOOP[ ]	/* SetLoopVariable */
IP[ ]	/* InterpolatePts */
IUP[0]	/* InterpolateUntPts */
MPPEM[ ]	/* MeasurePixelPerEm */
GTEQ[ ]	/* GreaterThanOrEqual */
IF[ ]	/* If */
SPVTL[1]	/* SetPVectorToLine */
SRP0[ ]	/* SetRefPoint0 */
SFVTCA[1]	/* SetFVectorToAxis */
MIRP[01101]	/* MoveIndirectRelPt */
SPVTL[1]	/* SetPVectorToLine */
SRP0[ ]	/* SetRefPoint0 */
SFVTCA[1]	/* SetFVectorToAxis */
MIRP[01101]	/* MoveIndirectRelPt */
SPVTL[1]	/* SetPVectorToLine */
SRP0[ ]	/* SetRefPoint0 */
SFVTCA[1]	/* SetFVectorToAxis */
MIRP[01101]	/* MoveIndirectRelPt */
SPVTL[1]	/* SetPVectorToLine */
SRP0[ ]	/* SetRefPoint0 */
SFVTCA[1]	/* SetFVectorToAxis */
MIRP[01101]	/* MoveIndirectRelPt */
SPVTL[1]	/* SetPVectorToLine */
SRP0[ ]	/* SetRefPoint0 */
SFVTCA[1]	/* SetFVectorToAxis */
MDRP[01001]	/* MoveDirectRelPt */
SPVTL[1]	/* SetPVectorToLine */
SRP0[ ]	/* SetRefPoint0 */
SFVTCA[1]	/* SetFVectorToAxis */
MDRP[01001]	/* MoveDirectRelPt */
SPVTL[1]	/* SetPVectorToLine */
SFVTCA[1]	/* SetFVectorToAxis */
MDRP[01001]	/* MoveDirectRelPt */
SPVTL[1]	/* SetPVectorToLine */
SRP0[ ]	/* SetRefPoint0 */
SFVTCA[1]	/* SetFVectorToAxis */
MDRP[01001]	/* MoveDirectRelPt */
EIF[ ]	/* EndIf */
CLEAR[ ]	/* ClearStack */
PUSHB[ ]	/* 3 values pushed */
0 8 1
SVTCA[1]	/* SetFreedomAndProjectionVectorToAxis */
DELTAP1[ ]	/* DeltaExceptionP1 */
NPUSHB[ ]	/* 38 values pushed */
20 7 1 4 2 0 3 0 4 0 5 0 6 4 7 0 7 8 10 19 1 16 3 16 4 16 5 16 6 19 7 16 7 22 8 26 9 17
DELTAP1[ ]	/* DeltaExceptionP1 */
SVTCA[0]	/* SetFreedomAndProjectionVectorToAxis */
DELTAP1[ ]	/* DeltaExceptionP1 */";
};
width = 1233;
}
);
note = M;
unicode = 77;
},
{
glyphname = N;
lastChange = "2026-05-20 11:40:44 +0000";
layers = (
{
layerId = m01;
shapes = (
{
closed = 1;
nodes = (
(334,0,l),
(334,1229,l),
(838,0,l),
(1094,0,l),
(1094,1493,l),
(899,1493,l),
(899,264,l),
(395,1493,l),
(139,1493,l),
(139,0,l),
(139,0,l)
);
}
);
userData = {
assembly = "NPUSHB[ ]	/* 28 values pushed */
7 1 2 1 2 6 7 6 66 7 2 3 0 180 8 5 6 1 7 2 17 4 49 7 17 0 48 10
SRP0[ ]	/* SetRefPoint0 */
MIRP[11100]	/* MoveIndirectRelPt */
MIRP[01100]	/* MoveIndirectRelPt */
MIRP[11100]	/* MoveIndirectRelPt */
MIRP[01100]	/* MoveIndirectRelPt */
SRP1[ ]	/* SetRefPoint1 */
IP[ ]	/* InterpolatePts */
IP[ ]	/* InterpolatePts */
IUP[1]	/* InterpolateUntPts */
SVTCA[0]	/* SetFreedomAndProjectionVectorToAxis */
MDAP[1]	/* MoveDirectAbsPt */
ALIGNRP[ ]	/* AlignRelativePt */
MIRP[01100]	/* MoveIndirectRelPt */
SHP[0]	/* ShiftPointByLastPoint */
IP[ ]	/* InterpolatePts */
IP[ ]	/* InterpolatePts */
IUP[0]	/* InterpolateUntPts */
MPPEM[ ]	/* MeasurePixelPerEm */
GTEQ[ ]	/* GreaterThanOrEqual */
IF[ ]	/* If */
SPVTL[1]	/* SetPVectorToLine */
SRP0[ ]	/* SetRefPoint0 */
SFVTCA[0]	/* SetFVectorToAxis */
MDRP[01001]	/* MoveDirectRelPt */
SPVTL[1]	/* SetPVectorToLine */
SRP0[ ]	/* SetRefPoint0 */
SFVTCA[0]	/* SetFVectorToAxis */
MDRP[01001]	/* MoveDirectRelPt */
EIF[ ]	/* EndIf */
CLEAR[ ]	/* ClearStack */
PUSHB[ ]	/* 3 values pushed */
23 1 1
SVTCA[1]	/* SetFreedomAndProjectionVectorToAxis */
DELTAP1[ ]	/* DeltaExceptionP1 */
NPUSHB[ ]	/* 38 values pushed */
23 2 24 7 41 2 38 7 56 7 87 2 100 2 106 7 117 2 122 7 10 24 6 38 1 41 6 70 1 73 6 87 1 103 1 104 6 8
DELTAP1[ ]	/* DeltaExceptionP1 */
SVTCA[0]	/* SetFreedomAndProjectionVectorToAxis */
DELTAP1[ ]	/* DeltaExceptionP1 */";
};
width = 1233;
},
{
layerId = "281C21A4-45D9-482C-B928-385594A59359";
shapes = (
{
closed = 1;
nodes = (
(224,0,l),
(464,1229,l),
(728,0,l),
(984,0,l),
(1275,1493,l),
(1080,1493,l),
(841,264,l),
(577,1493,l),
(321,1493,l),
(30,0,l),
(30,0,l)
);
}
);
userData = {
assembly = "NPUSHB[ ]	/* 60 values pushed */
6 3 2 2 1 1 3 7 7 6 3 5 4 5 4 2 5 1 2 5 5 4 8 5 9 0 9 7 5 6 7 0 0 9 58 7 2 3 0 125 8 5 3 5 4 8 10 7 6 2 1 4 0 5 1 4 0 1 9 10
SRP0[ ]	/* SetRefPoint0 */
MDRP[10100]	/* MoveDirectRelPt */
MIRP[00100]	/* MoveIndirectRelPt */
MDRP[10100]	/* MoveDirectRelPt */
MIRP[00100]	/* MoveIndirectRelPt */
SRP1[ ]	/* SetRefPoint1 */
SLOOP[ ]	/* SetLoopVariable */
IP[ ]	/* InterpolatePts */
SRP2[ ]	/* SetRefPoint2 */
IP[ ]	/* InterpolatePts */
SRP1[ ]	/* SetRefPoint1 */
SRP2[ ]	/* SetRefPoint2 */
IP[ ]	/* InterpolatePts */
IUP[1]	/* InterpolateUntPts */
SVTCA[0]	/* SetFreedomAndProjectionVectorToAxis */
MDAP[1]	/* MoveDirectAbsPt */
ALIGNRP[ ]	/* AlignRelativePt */
MIRP[01100]	/* MoveIndirectRelPt */
SHP[0]	/* ShiftPointByLastPoint */
IP[ ]	/* InterpolatePts */
IP[ ]	/* InterpolatePts */
IUP[0]	/* InterpolateUntPts */
MPPEM[ ]	/* MeasurePixelPerEm */
GTEQ[ ]	/* GreaterThanOrEqual */
IF[ ]	/* If */
SPVTL[1]	/* SetPVectorToLine */
SRP0[ ]	/* SetRefPoint0 */
SFVTL[0]	/* SetFVectorToLine */
MIRP[01101]	/* MoveIndirectRelPt */
SPVTL[1]	/* SetPVectorToLine */
SRP0[ ]	/* SetRefPoint0 */
SFVTCA[1]	/* SetFVectorToAxis */
MIRP[01101]	/* MoveIndirectRelPt */
SPVTL[1]	/* SetPVectorToLine */
SRP0[ ]	/* SetRefPoint0 */
SFVTL[0]	/* SetFVectorToLine */
MIRP[01101]	/* MoveIndirectRelPt */
SPVTL[1]	/* SetPVectorToLine */
SRP0[ ]	/* SetRefPoint0 */
SFVTCA[1]	/* SetFVectorToAxis */
MIRP[01101]	/* MoveIndirectRelPt */
SPVTL[1]	/* SetPVectorToLine */
SRP0[ ]	/* SetRefPoint0 */
SFVTCA[1]	/* SetFVectorToAxis */
MIRP[01101]	/* MoveIndirectRelPt */
SPVTL[1]	/* SetPVectorToLine */
SRP0[ ]	/* SetRefPoint0 */
SFVTCA[1]	/* SetFVectorToAxis */
MIRP[01101]	/* MoveIndirectRelPt */
EIF[ ]	/* EndIf */
CLEAR[ ]	/* ClearStack */
PUSHB[ ]	/* 3 values pushed */
8 6 1
SVTCA[1]	/* SetFreedomAndProjectionVectorToAxis */
DELTAP1[ ]	/* DeltaExceptionP1 */
NPUSHB[ ]	/* 11 values pushed */
5 1 11 6 21 1 26 6 41 6 5
DELTAP1[ ]	/* DeltaExceptionP1 */";
};
width = 1233;
}
);
note = N;
unicode = 78;
},
{
glyphname = O;
lastChange = "2026-05-20 11:40:44 +0000";
layers = (
{
layerId = m01;
shapes = (
{
closed = 1;
nodes = (
(905,525.667,o),
(882.5,369.167,o),
(837.5,275.5,cs),
(792.5,181.833,o),
(718.667,135,o),
(616,135,cs),
(514,135,o),
(440.5,182,o),
(395.5,276,cs),
(350.5,370,o),
(328,526.333,o),
(328,745,cs),
(328,964.333,o),
(350.5,1121,o),
(395.5,1215,cs),
(440.5,1309,o),
(514,1356,o),
(616,1356,cs),
(718.667,1356,o),
(792.5,1309,o),
(837.5,1215,cs),
(882.5,1121,o),
(905,964.333,o),
(905,745,cs)
);
},
{
closed = 1;
nodes = (
(1116,1266.333,o),
(953.333,1520,o),
(616,1520,cs),
(280,1520,o),
(117,1266.333,o),
(117,745,cs),
(117,222.333,o),
(278.667,-29,o),
(616,-29,cs),
(953.333,-29,o),
(1116,225,o),
(1116,745,cs)
);
}
);
userData = {
assembly = "NPUSHB[ ]	/* 19 values pushed */
9 151 15 3 151 21 150 15 153 24 0 50 12 54 6 50 18 53 24
SRP0[ ]	/* SetRefPoint0 */
MIRP[11100]	/* MoveIndirectRelPt */
MIRP[01100]	/* MoveIndirectRelPt */
MIRP[11100]	/* MoveIndirectRelPt */
MIRP[01100]	/* MoveIndirectRelPt */
IUP[1]	/* InterpolateUntPts */
SVTCA[0]	/* SetFreedomAndProjectionVectorToAxis */
SRP0[ ]	/* SetRefPoint0 */
MIRP[00100]	/* MoveIndirectRelPt */
MIRP[10100]	/* MoveIndirectRelPt */
MIRP[01100]	/* MoveIndirectRelPt */
SRP0[ ]	/* SetRefPoint0 */
MIRP[01110]	/* MoveIndirectRelPt */
IUP[0]	/* InterpolateUntPts */";
};
width = 1233;
},
{
layerId = "281C21A4-45D9-482C-B928-385594A59359";
shapes = (
{
closed = 1;
nodes = (
(391.333,135,o),
(323,223.333,o),
(323,414,cs),
(323,667.333,o),
(389.667,963,o),
(491,1159,cs),
(553.667,1285.667,o),
(651.667,1356,o),
(765,1356,cs),
(911.667,1356,o),
(980,1268.333,o),
(980,1079,cs),
(980,825.667,o),
(912.667,525.333,o),
(814,332,cs),
(751.333,205.333,o),
(651.333,135,o),
(538,135,cs)
);
},
{
closed = 1;
nodes = (
(1187,1360,o),
(1059.333,1520,o),
(790,1520,cs),
(596.667,1520,o),
(456.333,1441.333,o),
(339,1272,cs),
(287,1193.333,o),
(242.667,1097.667,o),
(204,975,cs),
(146.667,793.667,o),
(118,621,o),
(118,473,cs),
(118,131.667,o),
(245,-29,o),
(513,-29,cs),
(706.333,-29,o),
(846.667,49.667,o),
(964,219,cs),
(1016,297.667,o),
(1060.333,393.333,o),
(1099,516,cs),
(1156.333,697.333,o),
(1187,873.333,o),
(1187,1020,cs)
);
}
);
userData = {
assembly = "NPUSHB[ ]	/* 17 values pushed */
0 99 27 9 99 39 97 27 101 42 6 25 18 15 25 30 42
SRP0[ ]	/* SetRefPoint0 */
MDRP[10100]	/* MoveDirectRelPt */
MIRP[01100]	/* MoveIndirectRelPt */
MDRP[10100]	/* MoveDirectRelPt */
MIRP[01100]	/* MoveIndirectRelPt */
IUP[1]	/* InterpolateUntPts */
SVTCA[0]	/* SetFreedomAndProjectionVectorToAxis */
SRP0[ ]	/* SetRefPoint0 */
MIRP[00100]	/* MoveIndirectRelPt */
MIRP[10100]	/* MoveIndirectRelPt */
MIRP[01100]	/* MoveIndirectRelPt */
SRP0[ ]	/* SetRefPoint0 */
MIRP[01110]	/* MoveIndirectRelPt */
IUP[0]	/* InterpolateUntPts */";
};
width = 1233;
}
);
note = O;
unicode = 79;
},
{
glyphname = P;
lastChange = "2026-05-20 11:40:44 +0000";
layers = (
{
layerId = m01;
shapes = (
{
closed = 1;
nodes = (
(821,1327,o),
(930,1224.333,o),
(930,1047,cs),
(930,869.667,o),
(819.667,766,o),
(633,766,cs),
(399,766,l),
(399,1327,l),
(633,1327,l),
(633,1327,l)
);
},
{
closed = 1;
nodes = (
(399,0,l),
(399,600,l),
(633,600,ls),
(967.667,600,o),
(1141,752.333,o),
(1141,1047,cs),
(1141,1339,o),
(966.333,1493,o),
(633,1493,cs),
(197,1493,l),
(197,0,l),
(197,0,l)
);
}
);
userData = {
assembly = "NPUSHB[ ]	/* 24 values pushed */
1 151 16 0 151 9 136 18 16 10 8 2 4 0 5 50 13 56 17 0 30 9 51 20
SRP0[ ]	/* SetRefPoint0 */
MIRP[11100]	/* MoveIndirectRelPt */
MIRP[01100]	/* MoveIndirectRelPt */
SHP[0]	/* ShiftPointByLastPoint */
MIRP[11100]	/* MoveIndirectRelPt */
MIRP[01100]	/* MoveIndirectRelPt */
SRP1[ ]	/* SetRefPoint1 */
SLOOP[ ]	/* SetLoopVariable */
IP[ ]	/* InterpolatePts */
IUP[1]	/* InterpolateUntPts */
SVTCA[0]	/* SetFreedomAndProjectionVectorToAxis */
MDAP[1]	/* MoveDirectAbsPt */
MIRP[10100]	/* MoveIndirectRelPt */
MIRP[01100]	/* MoveIndirectRelPt */
MDRP[10100]	/* MoveDirectRelPt */
MIRP[01100]	/* MoveIndirectRelPt */
IUP[0]	/* InterpolateUntPts */";
};
width = 1233;
},
{
layerId = "281C21A4-45D9-482C-B928-385594A59359";
shapes = (
{
closed = 1;
nodes = (
(954.333,1327,o),
(1035,1260,o),
(1035,1116,cs),
(1035,904,o),
(893,766,o),
(673,766,cs),
(439,766,l),
(548,1327,l),
(781,1327,l),
(781,1327,l)
);
},
{
closed = 1;
nodes = (
(290,0,l),
(407,600,l),
(640,600,ls),
(1013.333,600,o),
(1240,803,o),
(1240,1135,cs),
(1240,1367,o),
(1092.667,1493,o),
(818,1493,cs),
(378,1493,l),
(87,0,l),
(87,0,l)
);
}
);
userData = {
assembly = "NPUSHB[ ]	/* 54 values pushed */
18 5 9 19 16 1 15 17 5 19 9 19 2 1 3 1 5 9 19 8 1 7 0 5 9 9 19 58 1 99 16 0 99 9 81 18 18 19 17 8 2 1 0 5 10 16 9 5 25 13 9 1 19 20
SRP0[ ]	/* SetRefPoint0 */
MDRP[10100]	/* MoveDirectRelPt */
MIRP[00100]	/* MoveIndirectRelPt */
MDRP[10100]	/* MoveDirectRelPt */
MIRP[01100]	/* MoveIndirectRelPt */
SRP1[ ]	/* SetRefPoint1 */
IP[ ]	/* InterpolatePts */
IP[ ]	/* InterpolatePts */
SLOOP[ ]	/* SetLoopVariable */
IP[ ]	/* InterpolatePts */
SRP2[ ]	/* SetRefPoint2 */
IP[ ]	/* InterpolatePts */
IUP[1]	/* InterpolateUntPts */
SVTCA[0]	/* SetFreedomAndProjectionVectorToAxis */
MDAP[1]	/* MoveDirectAbsPt */
MIRP[10100]	/* MoveIndirectRelPt */
MIRP[01100]	/* MoveIndirectRelPt */
MDRP[10100]	/* MoveDirectRelPt */
MIRP[01100]	/* MoveIndirectRelPt */
IUP[0]	/* InterpolateUntPts */
MPPEM[ ]	/* MeasurePixelPerEm */
GTEQ[ ]	/* GreaterThanOrEqual */
IF[ ]	/* If */
SPVTL[1]	/* SetPVectorToLine */
SRP0[ ]	/* SetRefPoint0 */
SFVTCA[1]	/* SetFVectorToAxis */
MIRP[01101]	/* MoveIndirectRelPt */
SRP1[ ]	/* SetRefPoint1 */
SLOOP[ ]	/* SetLoopVariable */
IP[ ]	/* InterpolatePts */
SPVTL[1]	/* SetPVectorToLine */
SFVTCA[1]	/* SetFVectorToAxis */
MIRP[01101]	/* MoveIndirectRelPt */
SRP1[ ]	/* SetRefPoint1 */
SLOOP[ ]	/* SetLoopVariable */
IP[ ]	/* InterpolatePts */
SPVTL[1]	/* SetPVectorToLine */
SRP0[ ]	/* SetRefPoint0 */
SFVTCA[1]	/* SetFVectorToAxis */
MIRP[01101]	/* MoveIndirectRelPt */
SRP1[ ]	/* SetRefPoint1 */
SLOOP[ ]	/* SetLoopVariable */
IP[ ]	/* InterpolatePts */
SPVTL[1]	/* SetPVectorToLine */
SFVTCA[1]	/* SetFVectorToAxis */
MIRP[01101]	/* MoveIndirectRelPt */
EIF[ ]	/* EndIf */
CLEAR[ ]	/* ClearStack */";
};
width = 1233;
}
);
note = P;
unicode = 80;
},
{
glyphname = Q;
lastChange = "2026-05-20 11:40:44 +0000";
layers = (
{
layerId = m01;
shapes = (
{
closed = 1;
nodes = (
(1040,-170,l),
(840,20,l),
(1025.333,116,o),
(1116,353,o),
(1116,745,cs),
(1116,1266.333,o),
(953.333,1520,o),
(616,1520,cs),
(280,1520,o),
(117,1266.333,o),
(117,745,cs),
(117,225,o),
(280.667,-29,o),
(614,-29,cs),
(619.333,-29,o),
(626.333,-28.667,o),
(635,-28,cs),
(643.667,-27.333,o),
(650.333,-27,o),
(655,-27,c),
(889,-270,l),
(889,-270,l)
);
},
{
closed = 1;
nodes = (
(905,525.667,o),
(882.5,369.167,o),
(837.5,275.5,cs),
(792.5,181.833,o),
(718.667,135,o),
(616,135,cs),
(514,135,o),
(440.5,182,o),
(395.5,276,cs),
(350.5,370,o),
(328,526.333,o),
(328,745,cs),
(328,964.333,o),
(350.5,1121,o),
(395.5,1215,cs),
(440.5,1309,o),
(514,1356,o),
(616,1356,cs),
(718.667,1356,o),
(792.5,1309,o),
(837.5,1215,cs),
(882.5,1121,o),
(905,964.333,o),
(905,745,cs)
);
}
);
userData = {
assembly = "NPUSHB[ ]	/* 32 values pushed */
0 30 16 17 15 27 151 3 21 151 9 150 3 153 17 30 17 24 16 12 15 0 24 18 50 12 54 24 50 6 53 30
SRP0[ ]	/* SetRefPoint0 */
MIRP[11100]	/* MoveIndirectRelPt */
MIRP[01100]	/* MoveIndirectRelPt */
MIRP[11100]	/* MoveIndirectRelPt */
MIRP[01100]	/* MoveIndirectRelPt */
SRP1[ ]	/* SetRefPoint1 */
IP[ ]	/* InterpolatePts */
IP[ ]	/* InterpolatePts */
SRP1[ ]	/* SetRefPoint1 */
IP[ ]	/* InterpolatePts */
SRP1[ ]	/* SetRefPoint1 */
IP[ ]	/* InterpolatePts */
IUP[1]	/* InterpolateUntPts */
SVTCA[0]	/* SetFreedomAndProjectionVectorToAxis */
SRP0[ ]	/* SetRefPoint0 */
MDRP[00100]	/* MoveDirectRelPt */
MIRP[00100]	/* MoveIndirectRelPt */
MIRP[10100]	/* MoveIndirectRelPt */
MIRP[01100]	/* MoveIndirectRelPt */
SRP0[ ]	/* SetRefPoint0 */
MIRP[01110]	/* MoveIndirectRelPt */
IP[ ]	/* InterpolatePts */
SRP2[ ]	/* SetRefPoint2 */
IP[ ]	/* InterpolatePts */
SRP2[ ]	/* SetRefPoint2 */
IP[ ]	/* InterpolatePts */
IUP[0]	/* InterpolateUntPts */";
};
width = 1233;
},
{
layerId = "281C21A4-45D9-482C-B928-385594A59359";
shapes = (
{
closed = 1;
nodes = (
(880,-178,l),
(726,10,l),
(831.333,54,o),
(927,147.333,o),
(999,274,cs),
(1048.333,363.333,o),
(1090,474.333,o),
(1130,629,cs),
(1167.333,777,o),
(1187,909.333,o),
(1187,1020,cs),
(1187,1360,o),
(1059.333,1520,o),
(790,1520,cs),
(596.667,1520,o),
(456.333,1441.333,o),
(339,1272,cs),
(287,1193.333,o),
(242.667,1097.667,o),
(204,975,cs),
(146.667,793.667,o),
(118,621,o),
(118,473,cs),
(118,123.667,o),
(243.333,-27,o),
(530,-27,cs),
(540,-27,l),
(726,-270,l),
(726,-270,l)
);
},
{
closed = 1;
nodes = (
(391.333,135,o),
(323,223.333,o),
(323,414,cs),
(323,667.333,o),
(389.667,963,o),
(491,1159,cs),
(553.667,1285.667,o),
(651.667,1356,o),
(765,1356,cs),
(911.667,1356,o),
(980,1268.333,o),
(980,1079,cs),
(980,825.667,o),
(912.667,525.333,o),
(814,332,cs),
(751.333,205.333,o),
(651.333,135,o),
(538,135,cs)
);
}
);
userData = {
assembly = "NPUSHB[ ]	/* 27 values pushed */
26 27 25 28 99 0 37 99 13 97 0 101 27 46 26 1 27 25 3 43 34 25 16 43 25 4 46
SRP0[ ]	/* SetRefPoint0 */
MDRP[10100]	/* MoveDirectRelPt */
MIRP[01100]	/* MoveIndirectRelPt */
MDRP[10100]	/* MoveDirectRelPt */
MIRP[01100]	/* MoveIndirectRelPt */
SRP1[ ]	/* SetRefPoint1 */
SLOOP[ ]	/* SetLoopVariable */
IP[ ]	/* InterpolatePts */
IP[ ]	/* InterpolatePts */
IUP[1]	/* InterpolateUntPts */
SVTCA[0]	/* SetFreedomAndProjectionVectorToAxis */
SRP0[ ]	/* SetRefPoint0 */
MDRP[00100]	/* MoveDirectRelPt */
MIRP[00100]	/* MoveIndirectRelPt */
MIRP[10100]	/* MoveIndirectRelPt */
MIRP[01100]	/* MoveIndirectRelPt */
SRP0[ ]	/* SetRefPoint0 */
MIRP[01110]	/* MoveIndirectRelPt */
IP[ ]	/* InterpolatePts */
SRP2[ ]	/* SetRefPoint2 */
IP[ ]	/* InterpolatePts */
IUP[0]	/* InterpolateUntPts */";
};
width = 1233;
}
);
note = Q;
unicode = 81;
},
{
glyphname = R;
lastChange = "2026-05-20 11:40:44 +0000";
layers = (
{
layerId = m01;
shapes = (
{
closed = 1;
nodes = (
(954.667,733,o),
(1067,863.667,o),
(1067,1061,cs),
(1067,1341,o),
(887,1493,o),
(559,1493,cs),
(143,1493,l),
(143,0,l),
(346,0,l),
(346,631,l),
(539,631,ls),
(671,631,o),
(735.333,591.667,o),
(838,377,cs),
(1016,0,l),
(1233,0,l),
(1030,408,ls),
(920.667,629.333,o),
(864,678.333,o),
(760,705,c)
);
},
{
closed = 1;
nodes = (
(751,1327,o),
(854,1233,o),
(854,1061,cs),
(854,882.333,o),
(760.333,797,o),
(567,797,cs),
(346,797,l),
(346,1327,l),
(559,1327,l),
(559,1327,l)
);
}
);
userData = {
assembly = "NPUSHB[ ]	/* 56 values pushed */
9 8 7 3 10 6 37 3 4 3 5 37 4 4 3 66 6 4 0 21 3 4 21 151 9 20 151 13 136 11 4 5 17 22 9 6 3 10 3 17 0 28 14 3 10 25 50 4 17 49 20 10 30 12 48 29
SRP0[ ]	/* SetRefPoint0 */
MIRP[11100]	/* MoveIndirectRelPt */
MIRP[01100]	/* MoveIndirectRelPt */
SHP[0]	/* ShiftPointByLastPoint */
MIRP[11100]	/* MoveIndirectRelPt */
MDRP[00100]	/* MoveDirectRelPt */
MIRP[01100]	/* MoveIndirectRelPt */
SRP1[ ]	/* SetRefPoint1 */
SLOOP[ ]	/* SetLoopVariable */
IP[ ]	/* InterpolatePts */
SRP1[ ]	/* SetRefPoint1 */
IP[ ]	/* InterpolatePts */
SRP1[ ]	/* SetRefPoint1 */
SLOOP[ ]	/* SetLoopVariable */
IP[ ]	/* InterpolatePts */
SRP1[ ]	/* SetRefPoint1 */
IP[ ]	/* InterpolatePts */
IUP[1]	/* InterpolateUntPts */
SVTCA[0]	/* SetFreedomAndProjectionVectorToAxis */
MDAP[1]	/* MoveDirectAbsPt */
ALIGNRP[ ]	/* AlignRelativePt */
MIRP[10100]	/* MoveIndirectRelPt */
MIRP[01100]	/* MoveIndirectRelPt */
MDRP[10100]	/* MoveDirectRelPt */
MIRP[01100]	/* MoveIndirectRelPt */
SRP2[ ]	/* SetRefPoint2 */
IP[ ]	/* InterpolatePts */
SRP2[ ]	/* SetRefPoint2 */
IP[ ]	/* InterpolatePts */
SRP2[ ]	/* SetRefPoint2 */
IP[ ]	/* InterpolatePts */
IUP[0]	/* InterpolateUntPts */
MPPEM[ ]	/* MeasurePixelPerEm */
GTEQ[ ]	/* GreaterThanOrEqual */
IF[ ]	/* If */
SPVTL[1]	/* SetPVectorToLine */
SRP0[ ]	/* SetRefPoint0 */
SFVTCA[1]	/* SetFVectorToAxis */
MIRP[01101]	/* MoveIndirectRelPt */
SPVTL[1]	/* SetPVectorToLine */
SRP0[ ]	/* SetRefPoint0 */
SFVTPV[ ]	/* SetFVectorToPVector */
MIRP[01101]	/* MoveIndirectRelPt */
SRP1[ ]	/* SetRefPoint1 */
SLOOP[ ]	/* SetLoopVariable */
IP[ ]	/* InterpolatePts */
EIF[ ]	/* EndIf */
CLEAR[ ]	/* ClearStack */";
};
width = 1233;
},
{
layerId = "281C21A4-45D9-482C-B928-385594A59359";
shapes = (
{
closed = 1;
nodes = (
(1025.333,735.667,o),
(1173,907,o),
(1173,1151,cs),
(1173,1368.333,o),
(1015,1493,o),
(739,1493,cs),
(323,1493,l),
(34,0,l),
(237,0,l),
(360,631,l),
(552,631,ls),
(698.667,631,o),
(756.333,585,o),
(815,377,cs),
(921,0,l),
(1122,0,l),
(1001,408,ls),
(965,526,o),
(932.5,602.667,o),
(903.5,638,cs),
(874.5,673.333,o),
(836,695.667,o),
(788,705,c)
);
},
{
closed = 1;
nodes = (
(889.333,1327,o),
(970,1259.333,o),
(970,1110,cs),
(970,920.667,o),
(829.333,797,o),
(612,797,cs),
(393,797,l),
(495,1327,l),
(708,1327,l),
(708,1327,l)
);
}
);
userData = {
assembly = "NPUSHB[ ]	/* 82 values pushed */
9 8 7 3 10 6 5 3 4 3 5 5 4 4 3 11 5 13 12 10 5 12 13 12 22 1 23 21 5 13 12 28 1 27 20 5 13 13 12 58 6 4 0 21 3 4 21 99 9 20 99 13 81 11 4 4 17 28 22 21 20 5 10 9 6 8 25 11 13 12 3 17 14 0 13 25 25 17 13 1 12 29
SRP0[ ]	/* SetRefPoint0 */
MDRP[10100]	/* MoveDirectRelPt */
MIRP[00100]	/* MoveIndirectRelPt */
MDRP[10100]	/* MoveDirectRelPt */
MIRP[01100]	/* MoveIndirectRelPt */
SRP1[ ]	/* SetRefPoint1 */
IP[ ]	/* InterpolatePts */
IP[ ]	/* InterpolatePts */
SRP1[ ]	/* SetRefPoint1 */
IP[ ]	/* InterpolatePts */
SRP1[ ]	/* SetRefPoint1 */
SRP2[ ]	/* SetRefPoint2 */
IP[ ]	/* InterpolatePts */
SRP1[ ]	/* SetRefPoint1 */
SLOOP[ ]	/* SetLoopVariable */
IP[ ]	/* InterpolatePts */
SRP2[ ]	/* SetRefPoint2 */
IP[ ]	/* InterpolatePts */
IUP[1]	/* InterpolateUntPts */
SVTCA[0]	/* SetFreedomAndProjectionVectorToAxis */
MDAP[1]	/* MoveDirectAbsPt */
ALIGNRP[ ]	/* AlignRelativePt */
MIRP[10100]	/* MoveIndirectRelPt */
MIRP[01100]	/* MoveIndirectRelPt */
MDRP[10100]	/* MoveDirectRelPt */
MIRP[01100]	/* MoveIndirectRelPt */
SRP2[ ]	/* SetRefPoint2 */
IP[ ]	/* InterpolatePts */
SRP2[ ]	/* SetRefPoint2 */
IP[ ]	/* InterpolatePts */
SRP2[ ]	/* SetRefPoint2 */
IP[ ]	/* InterpolatePts */
IUP[0]	/* InterpolateUntPts */
MPPEM[ ]	/* MeasurePixelPerEm */
GTEQ[ ]	/* GreaterThanOrEqual */
IF[ ]	/* If */
SPVTL[1]	/* SetPVectorToLine */
SRP0[ ]	/* SetRefPoint0 */
SFVTCA[1]	/* SetFVectorToAxis */
MIRP[01101]	/* MoveIndirectRelPt */
SRP1[ ]	/* SetRefPoint1 */
SLOOP[ ]	/* SetLoopVariable */
IP[ ]	/* InterpolatePts */
SPVTL[1]	/* SetPVectorToLine */
SFVTCA[1]	/* SetFVectorToAxis */
MIRP[01101]	/* MoveIndirectRelPt */
SRP1[ ]	/* SetRefPoint1 */
SLOOP[ ]	/* SetLoopVariable */
IP[ ]	/* InterpolatePts */
SPVTL[1]	/* SetPVectorToLine */
SRP0[ ]	/* SetRefPoint0 */
SFVTCA[1]	/* SetFVectorToAxis */
MIRP[01101]	/* MoveIndirectRelPt */
SPVTL[1]	/* SetPVectorToLine */
SFVTCA[1]	/* SetFVectorToAxis */
MIRP[01101]	/* MoveIndirectRelPt */
SPVTL[1]	/* SetPVectorToLine */
SRP0[ ]	/* SetRefPoint0 */
SFVTCA[1]	/* SetFVectorToAxis */
MIRP[01101]	/* MoveIndirectRelPt */
SPVTL[1]	/* SetPVectorToLine */
SRP0[ ]	/* SetRefPoint0 */
SFVTCA[1]	/* SetFVectorToAxis */
MIRP[01101]	/* MoveIndirectRelPt */
SRP1[ ]	/* SetRefPoint1 */
SLOOP[ ]	/* SetLoopVariable */
IP[ ]	/* InterpolatePts */
EIF[ ]	/* EndIf */
CLEAR[ ]	/* ClearStack */";
};
width = 1233;
}
);
note = R;
unicode = 82;
},
{
glyphname = S;
lastChange = "2026-05-20 11:40:44 +0000";
layers = (
{
layerId = m01;
shapes = (
{
closed = 1;
nodes = (
(872,1494,o),
(745.667,1520,o),
(631,1520,cs),
(333.667,1520,o),
(139,1345.667,o),
(139,1079,cs),
(139,865.667,o),
(257.667,744.667,o),
(535,682,cs),
(643,657,ls),
(836.333,614.333,o),
(905,544.333,o),
(905,395,cs),
(905,231,o),
(786,135,o),
(582,135,cs),
(443.333,135,o),
(311.333,178.667,o),
(158,276,c),
(158,61,l),
(300.667,1,o),
(442,-29,o),
(582,-29,cs),
(918,-29,o),
(1098,124,o),
(1098,408,cs),
(1098,649.333,o),
(976,782.667,o),
(696,848,cs),
(590,872,ls),
(391.333,918.667,o),
(332,978,o),
(332,1110,cs),
(332,1260.667,o),
(450.333,1356,o),
(641,1356,cs),
(766.333,1356,o),
(889.333,1315.667,o),
(1012,1237,c),
(1012,1442,l),
(1012,1442,l)
);
}
);
userData = {
assembly = "NPUSHB[ ]	/* 61 values pushed */
13 12 2 14 11 37 30 31 30 8 9 2 7 10 37 31 31 30 66 10 11 30 31 4 1 21 179 20 167 24 151 17 1 179 0 167 4 151 37 150 17 153 40 30 10 11 31 27 7 0 38 27 57 14 49 20 7 57 34 48 40
SRP0[ ]	/* SetRefPoint0 */
MIRP[11100]	/* MoveIndirectRelPt */
MIRP[01100]	/* MoveIndirectRelPt */
MDRP[00100]	/* MoveDirectRelPt */
MIRP[11100]	/* MoveIndirectRelPt */
MIRP[01100]	/* MoveIndirectRelPt */
MIRP[00100]	/* MoveIndirectRelPt */
SRP1[ ]	/* SetRefPoint1 */
SRP2[ ]	/* SetRefPoint2 */
IP[ ]	/* InterpolatePts */
IP[ ]	/* InterpolatePts */
IP[ ]	/* InterpolatePts */
IP[ ]	/* InterpolatePts */
IUP[1]	/* InterpolateUntPts */
SVTCA[0]	/* SetFreedomAndProjectionVectorToAxis */
SRP0[ ]	/* SetRefPoint0 */
MIRP[00100]	/* MoveIndirectRelPt */
MIRP[10100]	/* MoveIndirectRelPt */
MIRP[01100]	/* MoveIndirectRelPt */
MIRP[10100]	/* MoveIndirectRelPt */
MIRP[01100]	/* MoveIndirectRelPt */
SRP0[ ]	/* SetRefPoint0 */
MIRP[01110]	/* MoveIndirectRelPt */
MIRP[10110]	/* MoveIndirectRelPt */
MIRP[01110]	/* MoveIndirectRelPt */
SRP1[ ]	/* SetRefPoint1 */
SLOOP[ ]	/* SetLoopVariable */
IP[ ]	/* InterpolatePts */
IUP[0]	/* InterpolateUntPts */
MPPEM[ ]	/* MeasurePixelPerEm */
GTEQ[ ]	/* GreaterThanOrEqual */
IF[ ]	/* If */
SPVTL[1]	/* SetPVectorToLine */
SRP0[ ]	/* SetRefPoint0 */
SFVTPV[ ]	/* SetFVectorToPVector */
MIRP[01101]	/* MoveIndirectRelPt */
SRP1[ ]	/* SetRefPoint1 */
SLOOP[ ]	/* SetLoopVariable */
IP[ ]	/* InterpolatePts */
SPVTL[1]	/* SetPVectorToLine */
SRP0[ ]	/* SetRefPoint0 */
SFVTPV[ ]	/* SetFVectorToPVector */
MIRP[01101]	/* MoveIndirectRelPt */
SRP1[ ]	/* SetRefPoint1 */
SLOOP[ ]	/* SetLoopVariable */
IP[ ]	/* InterpolatePts */
EIF[ ]	/* EndIf */
CLEAR[ ]	/* ClearStack */
PUSHB[ ]	/* 3 values pushed */
8 2 1
SVTCA[1]	/* SetFreedomAndProjectionVectorToAxis */
DELTAP1[ ]	/* DeltaExceptionP1 */
NPUSHB[ ]	/* 10 values pushed */
7 0 7 1 7 2 3 7 2 1
DELTAP1[ ]	/* DeltaExceptionP1 */
SVTCA[0]	/* SetFreedomAndProjectionVectorToAxis */
DELTAP1[ ]	/* DeltaExceptionP1 */";
};
width = 1233;
},
{
layerId = "281C21A4-45D9-482C-B928-385594A59359";
shapes = (
{
closed = 1;
nodes = (
(1057.333,1492.667,o),
(934.667,1520,o),
(828,1520,cs),
(473.333,1520,o),
(232,1312.667,o),
(232,1018,cs),
(232,856.667,o),
(317.667,769.333,o),
(563,692,cs),
(664,659,ls),
(841.333,604.333,o),
(885,555.333,o),
(885,446,cs),
(885,266,o),
(734,135,o),
(514,135,cs),
(364.667,135,o),
(233.667,178,o),
(103,270,c),
(62,61,l),
(195.333,1,o),
(328.333,-29,o),
(467,-29,cs),
(849.667,-29,o),
(1086,167.667,o),
(1086,481,cs),
(1086,653,o),
(989.333,760.333,o),
(772,827,cs),
(651,866,ls),
(479,919.333,o),
(424,970.333,o),
(424,1065,cs),
(424,1234.333,o),
(577,1356,o),
(797,1356,cs),
(921,1356,o),
(1037,1315.667,o),
(1145,1237,c),
(1184,1442,l),
(1184,1442,l)
);
}
);
userData = {
assembly = "NPUSHB[ ]	/* 58 values pushed */
13 12 2 14 11 17 30 31 30 8 9 2 7 10 17 31 31 30 58 10 11 30 31 4 1 21 124 20 113 24 99 17 1 124 0 113 4 99 37 97 17 101 40 30 10 31 11 27 7 1 0 27 18 14 7 18 34 40
SRP0[ ]	/* SetRefPoint0 */
MDRP[10100]	/* MoveDirectRelPt */
MIRP[01100]	/* MoveIndirectRelPt */
MDRP[10100]	/* MoveDirectRelPt */
MIRP[01100]	/* MoveIndirectRelPt */
MDRP[00000]	/* MoveDirectRelPt */
MDRP[00000]	/* MoveDirectRelPt */
SRP1[ ]	/* SetRefPoint1 */
SRP2[ ]	/* SetRefPoint2 */
IP[ ]	/* InterpolatePts */
IP[ ]	/* InterpolatePts */
IP[ ]	/* InterpolatePts */
IP[ ]	/* InterpolatePts */
IUP[1]	/* InterpolateUntPts */
SVTCA[0]	/* SetFreedomAndProjectionVectorToAxis */
SRP0[ ]	/* SetRefPoint0 */
MIRP[00100]	/* MoveIndirectRelPt */
MIRP[10100]	/* MoveIndirectRelPt */
MIRP[01100]	/* MoveIndirectRelPt */
MIRP[10100]	/* MoveIndirectRelPt */
MIRP[01100]	/* MoveIndirectRelPt */
SRP0[ ]	/* SetRefPoint0 */
MIRP[01110]	/* MoveIndirectRelPt */
MIRP[10110]	/* MoveIndirectRelPt */
MIRP[01110]	/* MoveIndirectRelPt */
SRP1[ ]	/* SetRefPoint1 */
SLOOP[ ]	/* SetLoopVariable */
IP[ ]	/* InterpolatePts */
IUP[0]	/* InterpolateUntPts */
MPPEM[ ]	/* MeasurePixelPerEm */
GTEQ[ ]	/* GreaterThanOrEqual */
IF[ ]	/* If */
SPVTL[1]	/* SetPVectorToLine */
SRP0[ ]	/* SetRefPoint0 */
SFVTPV[ ]	/* SetFVectorToPVector */
MIRP[01101]	/* MoveIndirectRelPt */
SRP1[ ]	/* SetRefPoint1 */
SLOOP[ ]	/* SetLoopVariable */
IP[ ]	/* InterpolatePts */
SPVTL[1]	/* SetPVectorToLine */
SRP0[ ]	/* SetRefPoint0 */
SFVTPV[ ]	/* SetFVectorToPVector */
MIRP[01101]	/* MoveIndirectRelPt */
SRP1[ ]	/* SetRefPoint1 */
SLOOP[ ]	/* SetLoopVariable */
IP[ ]	/* InterpolatePts */
EIF[ ]	/* EndIf */
CLEAR[ ]	/* ClearStack */
PUSHB[ ]	/* 3 values pushed */
56 2 1
SVTCA[1]	/* SetFreedomAndProjectionVectorToAxis */
DELTAP1[ ]	/* DeltaExceptionP1 */
NPUSHB[ ]	/* 60 values pushed */
39 0 39 1 39 2 41 19 41 20 41 21 41 22 55 0 55 1 55 2 10 10 0 10 1 10 2 25 0 25 1 25 2 40 0 40 1 40 2 37 19 37 20 37 21 37 22 56 0 56 1 86 19 86 20 86 21 86 22 19
DELTAP1[ ]	/* DeltaExceptionP1 */
SVTCA[0]	/* SetFreedomAndProjectionVectorToAxis */
DELTAP1[ ]	/* DeltaExceptionP1 */";
};
width = 1233;
}
);
note = S;
unicode = 83;
},
{
glyphname = T;
lastChange = "2026-05-20 11:40:44 +0000";
layers = (
{
layerId = m01;
shapes = (
{
closed = 1;
nodes = (
(516,1323,l),
(516,0,l),
(719,0,l),
(719,1323,l),
(1186,1323,l),
(1186,1493,l),
(47,1493,l),
(47,1323,l),
(47,1323,l)
);
}
);
userData = {
assembly = "NPUSHB[ ]	/* 14 values pushed */
6 2 151 0 136 4 1 58 3 30 0 58 5 8
SRP0[ ]	/* SetRefPoint0 */
MDRP[10100]	/* MoveDirectRelPt */
MIRP[01100]	/* MoveIndirectRelPt */
MIRP[11100]	/* MoveIndirectRelPt */
MIRP[01100]	/* MoveIndirectRelPt */
IUP[1]	/* InterpolateUntPts */
SVTCA[0]	/* SetFreedomAndProjectionVectorToAxis */
MDAP[1]	/* MoveDirectAbsPt */
MIRP[10100]	/* MoveIndirectRelPt */
MIRP[01100]	/* MoveIndirectRelPt */
SHP[0]	/* ShiftPointByLastPoint */
IUP[0]	/* InterpolateUntPts */";
};
width = 1233;
},
{
layerId = "281C21A4-45D9-482C-B928-385594A59359";
shapes = (
{
closed = 1;
nodes = (
(665,1323,l),
(407,0,l),
(611,0,l),
(867,1323,l),
(1336,1323,l),
(1369,1493,l),
(229,1493,l),
(196,1323,l),
(196,1323,l)
);
}
);
userData = {
assembly = "NPUSHB[ ]	/* 30 values pushed */
4 5 5 6 5 3 5 6 6 5 58 6 2 99 0 81 4 0 7 4 5 3 2 6 1 7 6 1 5 8
SRP0[ ]	/* SetRefPoint0 */
MDRP[10100]	/* MoveDirectRelPt */
MIRP[10100]	/* MoveIndirectRelPt */
MDRP[10100]	/* MoveDirectRelPt */
MDRP[00100]	/* MoveDirectRelPt */
SRP1[ ]	/* SetRefPoint1 */
IP[ ]	/* InterpolatePts */
IP[ ]	/* InterpolatePts */
SRP2[ ]	/* SetRefPoint2 */
IP[ ]	/* InterpolatePts */
SRP1[ ]	/* SetRefPoint1 */
IP[ ]	/* InterpolatePts */
IUP[1]	/* InterpolateUntPts */
SVTCA[0]	/* SetFreedomAndProjectionVectorToAxis */
MDAP[1]	/* MoveDirectAbsPt */
MIRP[10100]	/* MoveIndirectRelPt */
MIRP[01100]	/* MoveIndirectRelPt */
SHP[0]	/* ShiftPointByLastPoint */
IUP[0]	/* InterpolateUntPts */
MPPEM[ ]	/* MeasurePixelPerEm */
GTEQ[ ]	/* GreaterThanOrEqual */
IF[ ]	/* If */
SPVTL[1]	/* SetPVectorToLine */
SRP0[ ]	/* SetRefPoint0 */
SFVTCA[1]	/* SetFVectorToAxis */
MIRP[01101]	/* MoveIndirectRelPt */
SPVTL[1]	/* SetPVectorToLine */
SRP0[ ]	/* SetRefPoint0 */
SFVTCA[1]	/* SetFVectorToAxis */
MIRP[01101]	/* MoveIndirectRelPt */
EIF[ ]	/* EndIf */
CLEAR[ ]	/* ClearStack */";
};
width = 1233;
}
);
note = T;
unicode = 84;
},
{
glyphname = U;
lastChange = "2026-05-20 11:40:44 +0000";
layers = (
{
layerId = m01;
shapes = (
{
closed = 1;
nodes = (
(147,422.333,o),
(156.667,314.167,o),
(176,248.5,cs),
(195.333,182.833,o),
(228,129.333,o),
(274,88,cs),
(363.333,9.333,o),
(476,-29,o),
(616,-29,cs),
(757.333,-29,o),
(870,9.333,o),
(958,88,cs),
(1004.667,130,o),
(1037.5,183.167,o),
(1056.5,247.5,cs),
(1075.5,311.833,o),
(1085,420.333,o),
(1085,573,cs),
(1085,1493,l),
(883,1493,l),
(883,573,l),
(883,479,ls),
(883,407,o),
(881,355.667,o),
(877,325,cs),
(873,294.333,o),
(866,270.667,o),
(856,254,cs),
(812,175.333,o),
(732,135,o),
(616,135,cs),
(501.333,135,o),
(419.667,175.333,o),
(377,254,cs),
(367,270.667,o),
(360,294.5,o),
(356,325.5,cs),
(352,356.5,o),
(350,408.333,o),
(350,481,cs),
(350,1493,l),
(147,1493,l),
(147,573,l),
(147,573,l)
);
}
);
userData = {
assembly = "NPUSHB[ ]	/* 24 values pushed */
15 3 19 16 0 3 1 9 151 25 153 17 1 136 31 15 30 18 49 2 30 0 48 31
SRP0[ ]	/* SetRefPoint0 */
MIRP[11100]	/* MoveIndirectRelPt */
MIRP[01100]	/* MoveIndirectRelPt */
MIRP[11100]	/* MoveIndirectRelPt */
MIRP[01100]	/* MoveIndirectRelPt */
IUP[1]	/* InterpolateUntPts */
SVTCA[0]	/* SetFreedomAndProjectionVectorToAxis */
SRP0[ ]	/* SetRefPoint0 */
MIRP[00100]	/* MoveIndirectRelPt */
SHP[0]	/* ShiftPointByLastPoint */
MIRP[10100]	/* MoveIndirectRelPt */
MIRP[01100]	/* MoveIndirectRelPt */
SRP1[ ]	/* SetRefPoint1 */
SLOOP[ ]	/* SetLoopVariable */
IP[ ]	/* InterpolatePts */
IP[ ]	/* InterpolatePts */
IP[ ]	/* InterpolatePts */
IUP[0]	/* InterpolateUntPts */";
};
width = 1233;
},
{
layerId = "281C21A4-45D9-482C-B928-385594A59359";
shapes = (
{
closed = 1;
nodes = (
(126,449,o),
(115,366.333,o),
(115,317,cs),
(115,95.667,o),
(258,-29,o),
(514,-29,cs),
(655.333,-29,o),
(778.333,11.333,o),
(873,86,cs),
(977,170,o),
(1032,281,o),
(1088,573,cs),
(1266,1493,l),
(1063,1493,l),
(885,573,ls),
(867,481.667,o),
(850.5,410.833,o),
(835.5,360.5,cs),
(820.5,310.167,o),
(805.667,274.667,o),
(791,254,cs),
(731,171.333,o),
(651.667,135,o),
(533,135,cs),
(386.333,135,o),
(314,196.333,o),
(314,319,cs),
(314,358.333,o),
(324,429.333,o),
(344,532,cs),
(348,550.667,o),
(350.667,564.333,o),
(352,573,cs),
(531,1493,l),
(328,1493,l),
(150,573,l),
(150,573,l)
);
}
);
userData = {
assembly = "NPUSHB[ ]	/* 75 values pushed */
17 5 18 19 18 8 9 10 11 12 13 14 15 8 7 16 5 19 19 18 15 14 13 12 11 10 9 8 7 6 5 4 12 16 3 5 0 1 0 2 5 1 1 0 58 19 16 3 0 4 1 10 99 25 101 17 1 81 31 0 28 17 16 3 2 1 5 18 19 18 7 7 25 28 31
SRP0[ ]	/* SetRefPoint0 */
MDRP[10100]	/* MoveDirectRelPt */
MIRP[01100]	/* MoveIndirectRelPt */
SRP0[ ]	/* SetRefPoint0 */
MDRP[00000]	/* MoveDirectRelPt */
MDRP[00000]	/* MoveDirectRelPt */
SRP2[ ]	/* SetRefPoint2 */
SLOOP[ ]	/* SetLoopVariable */
IP[ ]	/* InterpolatePts */
SRP2[ ]	/* SetRefPoint2 */
IP[ ]	/* InterpolatePts */
IUP[1]	/* InterpolateUntPts */
SVTCA[0]	/* SetFreedomAndProjectionVectorToAxis */
SRP0[ ]	/* SetRefPoint0 */
MIRP[00100]	/* MoveIndirectRelPt */
SHP[0]	/* ShiftPointByLastPoint */
MIRP[10100]	/* MoveIndirectRelPt */
MIRP[01100]	/* MoveIndirectRelPt */
SRP1[ ]	/* SetRefPoint1 */
SLOOP[ ]	/* SetLoopVariable */
IP[ ]	/* InterpolatePts */
IUP[0]	/* InterpolateUntPts */
MPPEM[ ]	/* MeasurePixelPerEm */
GTEQ[ ]	/* GreaterThanOrEqual */
IF[ ]	/* If */
SPVTL[1]	/* SetPVectorToLine */
SRP0[ ]	/* SetRefPoint0 */
SFVTCA[1]	/* SetFVectorToAxis */
MIRP[01101]	/* MoveIndirectRelPt */
SPVTL[1]	/* SetPVectorToLine */
SRP0[ ]	/* SetRefPoint0 */
SFVTCA[1]	/* SetFVectorToAxis */
MIRP[01101]	/* MoveIndirectRelPt */
SRP1[ ]	/* SetRefPoint1 */
SLOOP[ ]	/* SetLoopVariable */
IP[ ]	/* InterpolatePts */
SPVTL[1]	/* SetPVectorToLine */
SRP0[ ]	/* SetRefPoint0 */
SFVTCA[1]	/* SetFVectorToAxis */
MIRP[01101]	/* MoveIndirectRelPt */
SRP1[ ]	/* SetRefPoint1 */
SLOOP[ ]	/* SetLoopVariable */
IP[ ]	/* InterpolatePts */
SPVTL[1]	/* SetPVectorToLine */
SRP0[ ]	/* SetRefPoint0 */
SFVTCA[1]	/* SetFVectorToAxis */
MIRP[01101]	/* MoveIndirectRelPt */
EIF[ ]	/* EndIf */
CLEAR[ ]	/* ClearStack */";
};
width = 1233;
}
);
note = U;
unicode = 85;
},
{
glyphname = V;
lastChange = "2026-05-20 11:40:44 +0000";
layers = (
{
layerId = m01;
shapes = (
{
closed = 1;
nodes = (
(57,1493,l),
(494,0,l),
(739,0,l),
(1176,1493,l),
(967,1493,l),
(616,170,l),
(266,1493,l),
(266,1493,l)
);
}
);
userData = {
assembly = "NPUSHB[ ]	/* 41 values pushed */
1 37 2 3 2 0 37 6 0 3 3 2 0 37 1 0 4 5 4 6 37 5 5 4 66 0 5 1 180 3 6 4 3 1 0 5 2 47 5 48 7
SRP0[ ]	/* SetRefPoint0 */
MIRP[11100]	/* MoveIndirectRelPt */
MIRP[01100]	/* MoveIndirectRelPt */
SLOOP[ ]	/* SetLoopVariable */
IP[ ]	/* InterpolatePts */
IUP[1]	/* InterpolateUntPts */
SVTCA[0]	/* SetFreedomAndProjectionVectorToAxis */
MDAP[1]	/* MoveDirectAbsPt */
MIRP[01100]	/* MoveIndirectRelPt */
SHP[0]	/* ShiftPointByLastPoint */
IP[ ]	/* InterpolatePts */
IUP[0]	/* InterpolateUntPts */
MPPEM[ ]	/* MeasurePixelPerEm */
GTEQ[ ]	/* GreaterThanOrEqual */
IF[ ]	/* If */
SPVTL[1]	/* SetPVectorToLine */
SRP0[ ]	/* SetRefPoint0 */
SFVTCA[1]	/* SetFVectorToAxis */
MIRP[01101]	/* MoveIndirectRelPt */
SPVTL[1]	/* SetPVectorToLine */
SRP0[ ]	/* SetRefPoint0 */
SFVTL[0]	/* SetFVectorToLine */
MIRP[01101]	/* MoveIndirectRelPt */
SPVTL[1]	/* SetPVectorToLine */
SRP0[ ]	/* SetRefPoint0 */
SFVTL[0]	/* SetFVectorToLine */
MIRP[01101]	/* MoveIndirectRelPt */
SPVTL[1]	/* SetPVectorToLine */
SRP0[ ]	/* SetRefPoint0 */
SFVTCA[1]	/* SetFVectorToAxis */
MIRP[01101]	/* MoveIndirectRelPt */
EIF[ ]	/* EndIf */
CLEAR[ ]	/* ClearStack */";
};
width = 1233;
},
{
layerId = "281C21A4-45D9-482C-B928-385594A59359";
shapes = (
{
closed = 1;
nodes = (
(233,1493,l),
(380,0,l),
(638,0,l),
(1357,1493,l),
(1142,1493,l),
(544,190,l),
(431,1493,l),
(431,1493,l)
);
}
);
userData = {
assembly = "NPUSHB[ ]	/* 39 values pushed */
1 5 2 3 2 0 5 6 0 3 3 2 0 5 1 0 4 5 4 6 5 5 5 4 58 0 5 1 125 3 6 4 3 1 0 5 2 5 7
SRP0[ ]	/* SetRefPoint0 */
MDRP[10100]	/* MoveDirectRelPt */
MDRP[00100]	/* MoveDirectRelPt */
SLOOP[ ]	/* SetLoopVariable */
IP[ ]	/* InterpolatePts */
IUP[1]	/* InterpolateUntPts */
SVTCA[0]	/* SetFreedomAndProjectionVectorToAxis */
MDAP[1]	/* MoveDirectAbsPt */
MIRP[01100]	/* MoveIndirectRelPt */
SHP[0]	/* ShiftPointByLastPoint */
IP[ ]	/* InterpolatePts */
IUP[0]	/* InterpolateUntPts */
MPPEM[ ]	/* MeasurePixelPerEm */
GTEQ[ ]	/* GreaterThanOrEqual */
IF[ ]	/* If */
SPVTL[1]	/* SetPVectorToLine */
SRP0[ ]	/* SetRefPoint0 */
SFVTCA[1]	/* SetFVectorToAxis */
MIRP[01101]	/* MoveIndirectRelPt */
SPVTL[1]	/* SetPVectorToLine */
SRP0[ ]	/* SetRefPoint0 */
SFVTL[0]	/* SetFVectorToLine */
MIRP[01101]	/* MoveIndirectRelPt */
SPVTL[1]	/* SetPVectorToLine */
SRP0[ ]	/* SetRefPoint0 */
SFVTL[0]	/* SetFVectorToLine */
MIRP[01101]	/* MoveIndirectRelPt */
SPVTL[1]	/* SetPVectorToLine */
SRP0[ ]	/* SetRefPoint0 */
SFVTCA[1]	/* SetFVectorToAxis */
MIRP[01101]	/* MoveIndirectRelPt */
EIF[ ]	/* EndIf */
CLEAR[ ]	/* ClearStack */";
};
width = 1233;
}
);
note = V;
unicode = 86;
},
{
glyphname = W;
lastChange = "2026-05-20 11:40:44 +0000";
layers = (
{
layerId = m01;
shapes = (
{
closed = 1;
nodes = (
(414,0,l),
(616,887,l),
(819,0,l),
(1010,0,l),
(1233,1493,l),
(1036,1493,l),
(893,279,l),
(721,1083,l),
(510,1083,l),
(340,281,l),
(197,1493,l),
(0,1493,l),
(223,0,l),
(223,0,l)
);
}
);
userData = {
assembly = "NPUSHB[ ]	/* 68 values pushed */
5 6 5 9 10 9 4 10 9 3 10 11 10 2 1 2 11 11 10 6 37 7 8 7 5 37 4 5 8 8 7 2 37 3 2 12 0 12 1 37 0 12 66 10 5 2 3 8 3 6 0 180 11 8 12 11 10 9 8 6 5 4 3 2 1 11 7 0
MDAP[1]	/* MoveDirectAbsPt */
MDRP[01100]	/* MoveDirectRelPt */
SLOOP[ ]	/* SetLoopVariable */
IP[ ]	/* InterpolatePts */
IUP[1]	/* InterpolateUntPts */
SVTCA[0]	/* SetFreedomAndProjectionVectorToAxis */
MDAP[1]	/* MoveDirectAbsPt */
ALIGNRP[ ]	/* AlignRelativePt */
MIRP[11100]	/* MoveIndirectRelPt */
ALIGNRP[ ]	/* AlignRelativePt */
MDRP[00100]	/* MoveDirectRelPt */
SRP1[ ]	/* SetRefPoint1 */
SLOOP[ ]	/* SetLoopVariable */
IP[ ]	/* InterpolatePts */
IUP[0]	/* InterpolateUntPts */
MPPEM[ ]	/* MeasurePixelPerEm */
GTEQ[ ]	/* GreaterThanOrEqual */
IF[ ]	/* If */
SPVTL[1]	/* SetPVectorToLine */
SFVTCA[1]	/* SetFVectorToAxis */
MIRP[01101]	/* MoveIndirectRelPt */
SPVTL[1]	/* SetPVectorToLine */
SRP0[ ]	/* SetRefPoint0 */
SFVTL[0]	/* SetFVectorToLine */
MIRP[01101]	/* MoveIndirectRelPt */
SPVTL[1]	/* SetPVectorToLine */
SRP0[ ]	/* SetRefPoint0 */
SFVTL[0]	/* SetFVectorToLine */
MIRP[01101]	/* MoveIndirectRelPt */
SPVTL[1]	/* SetPVectorToLine */
SRP0[ ]	/* SetRefPoint0 */
SFVTCA[1]	/* SetFVectorToAxis */
MIRP[01101]	/* MoveIndirectRelPt */
SPVTL[1]	/* SetPVectorToLine */
SRP0[ ]	/* SetRefPoint0 */
SFVTL[0]	/* SetFVectorToLine */
MDRP[01001]	/* MoveDirectRelPt */
SPVTL[1]	/* SetPVectorToLine */
SRP0[ ]	/* SetRefPoint0 */
SFVTCA[1]	/* SetFVectorToAxis */
MDRP[01001]	/* MoveDirectRelPt */
SPVTL[1]	/* SetPVectorToLine */
SFVTCA[1]	/* SetFVectorToAxis */
MDRP[01001]	/* MoveDirectRelPt */
SPVTL[1]	/* SetPVectorToLine */
SRP0[ ]	/* SetRefPoint0 */
SFVTL[0]	/* SetFVectorToLine */
MDRP[01001]	/* MoveDirectRelPt */
EIF[ ]	/* EndIf */
CLEAR[ ]	/* ClearStack */
PUSHB[ ]	/* 3 values pushed */
24 9 1
SVTCA[1]	/* SetFreedomAndProjectionVectorToAxis */
DELTAP1[ ]	/* DeltaExceptionP1 */
NPUSHB[ ]	/* 94 values pushed */
31 3 31 4 31 10 47 3 47 4 43 10 63 3 63 4 56 10 90 2 90 5 11 23 11 38 2 42 3 37 4 42 5 40 8 43 9 37 11 38 12 53 2 58 3 53 4 58 5 59 8 58 9 52 11 54 12 84 0 84 1 90 2 88 3 87 4 86 5 91 6 91 7 82 8 87 9 88 11 93 12 103 8 104 12 121 3 118 4 121 9 118 11 35
DELTAP1[ ]	/* DeltaExceptionP1 */
SVTCA[0]	/* SetFreedomAndProjectionVectorToAxis */
DELTAP1[ ]	/* DeltaExceptionP1 */";
};
width = 1233;
},
{
layerId = "281C21A4-45D9-482C-B928-385594A59359";
shapes = (
{
closed = 1;
nodes = (
(305,0,l),
(676,870,l),
(707,0,l),
(901,0,l),
(1411,1493,l),
(1213,1493,l),
(836,281,l),
(821,1083,l),
(610,1083,l),
(281,283,l),
(371,1493,l),
(180,1493,l),
(117,0,l),
(117,0,l)
);
}
);
userData = {
assembly = "NPUSHB[ ]	/* 74 values pushed */
11 27 2 3 2 10 27 9 10 3 3 2 10 27 11 10 4 5 4 9 27 5 5 4 6 4 7 8 7 5 4 4 5 8 8 7 2 4 3 2 12 0 12 1 4 0 12 58 10 5 2 3 8 3 6 0 125 11 8 11 10 9 8 6 5 4 3 2 1 0 11 7 12 13
SRP0[ ]	/* SetRefPoint0 */
MDRP[10100]	/* MoveDirectRelPt */
MDRP[00100]	/* MoveDirectRelPt */
SLOOP[ ]	/* SetLoopVariable */
IP[ ]	/* InterpolatePts */
IUP[1]	/* InterpolateUntPts */
SVTCA[0]	/* SetFreedomAndProjectionVectorToAxis */
MDAP[1]	/* MoveDirectAbsPt */
ALIGNRP[ ]	/* AlignRelativePt */
MIRP[11100]	/* MoveIndirectRelPt */
ALIGNRP[ ]	/* AlignRelativePt */
MDRP[00100]	/* MoveDirectRelPt */
SRP1[ ]	/* SetRefPoint1 */
SLOOP[ ]	/* SetLoopVariable */
IP[ ]	/* InterpolatePts */
IUP[0]	/* InterpolateUntPts */
MPPEM[ ]	/* MeasurePixelPerEm */
GTEQ[ ]	/* GreaterThanOrEqual */
IF[ ]	/* If */
SPVTL[1]	/* SetPVectorToLine */
SFVTCA[1]	/* SetFVectorToAxis */
MIRP[01101]	/* MoveIndirectRelPt */
SPVTL[1]	/* SetPVectorToLine */
SRP0[ ]	/* SetRefPoint0 */
SFVTL[0]	/* SetFVectorToLine */
MIRP[01101]	/* MoveIndirectRelPt */
SPVTL[1]	/* SetPVectorToLine */
SRP0[ ]	/* SetRefPoint0 */
SFVTL[0]	/* SetFVectorToLine */
MIRP[01101]	/* MoveIndirectRelPt */
SPVTL[1]	/* SetPVectorToLine */
SRP0[ ]	/* SetRefPoint0 */
SFVTCA[1]	/* SetFVectorToAxis */
MIRP[01101]	/* MoveIndirectRelPt */
SPVTL[1]	/* SetPVectorToLine */
SRP0[ ]	/* SetRefPoint0 */
SFVTCA[1]	/* SetFVectorToAxis */
MIRP[01101]	/* MoveIndirectRelPt */
SPVTL[1]	/* SetPVectorToLine */
SRP0[ ]	/* SetRefPoint0 */
SFVTL[0]	/* SetFVectorToLine */
MIRP[01101]	/* MoveIndirectRelPt */
SPVTL[1]	/* SetPVectorToLine */
SRP0[ ]	/* SetRefPoint0 */
SFVTL[0]	/* SetFVectorToLine */
MIRP[01101]	/* MoveIndirectRelPt */
SPVTL[1]	/* SetPVectorToLine */
SRP0[ ]	/* SetRefPoint0 */
SFVTCA[1]	/* SetFVectorToAxis */
MIRP[01101]	/* MoveIndirectRelPt */
EIF[ ]	/* EndIf */
CLEAR[ ]	/* ClearStack */
PUSHB[ ]	/* 3 values pushed */
7 11 1
SVTCA[1]	/* SetFreedomAndProjectionVectorToAxis */
DELTAP1[ ]	/* DeltaExceptionP1 */
NPUSHB[ ]	/* 92 values pushed */
15 10 31 10 59 5 117 10 143 10 143 10 159 10 159 10 8 11 9 5 11 27 9 24 10 20 11 41 3 37 8 38 11 56 3 54 4 55 5 51 8 54 11 70 4 70 5 67 8 69 11 90 3 86 5 84 8 85 11 107 3 102 5 99 8 104 10 101 11 122 3 118 4 118 8 121 9 117 11 132 8 137 10 131 11 147 8 153 10 148 11 37
DELTAP1[ ]	/* DeltaExceptionP1 */
SVTCA[0]	/* SetFreedomAndProjectionVectorToAxis */
DELTAP1[ ]	/* DeltaExceptionP1 */";
};
width = 1233;
}
);
note = W;
unicode = 87;
},
{
glyphname = X;
lastChange = "2026-05-20 11:40:44 +0000";
layers = (
{
layerId = m01;
shapes = (
{
closed = 1;
nodes = (
(18,0,l),
(236,0,l),
(631,643,l),
(997,0,l),
(1214,0,l),
(735,791,l),
(1182,1493,l),
(965,1493,l),
(631,930,l),
(303,1493,l),
(86,1493,l),
(518,791,l),
(518,791,l)
);
}
);
userData = {
assembly = "NPUSHB[ ]	/* 75 values pushed */
9 37 10 11 10 8 37 7 8 11 11 10 8 37 9 8 5 6 5 7 37 6 6 5 3 37 4 5 4 2 37 1 2 5 5 4 2 37 3 2 11 0 11 1 37 0 0 11 66 11 8 5 2 4 3 0 180 9 6 11 8 7 5 2 5 0 4 59 6 47 0 59 10 48 12
SRP0[ ]	/* SetRefPoint0 */
MIRP[11100]	/* MoveIndirectRelPt */
MIRP[00100]	/* MoveIndirectRelPt */
MIRP[11100]	/* MoveIndirectRelPt */
MIRP[00100]	/* MoveIndirectRelPt */
SRP1[ ]	/* SetRefPoint1 */
SLOOP[ ]	/* SetLoopVariable */
IP[ ]	/* InterpolatePts */
IUP[1]	/* InterpolateUntPts */
SVTCA[0]	/* SetFreedomAndProjectionVectorToAxis */
MDAP[1]	/* MoveDirectAbsPt */
ALIGNRP[ ]	/* AlignRelativePt */
MIRP[01100]	/* MoveIndirectRelPt */
SHP[0]	/* ShiftPointByLastPoint */
SLOOP[ ]	/* SetLoopVariable */
IP[ ]	/* InterpolatePts */
IUP[0]	/* InterpolateUntPts */
MPPEM[ ]	/* MeasurePixelPerEm */
GTEQ[ ]	/* GreaterThanOrEqual */
IF[ ]	/* If */
SPVTL[1]	/* SetPVectorToLine */
SRP0[ ]	/* SetRefPoint0 */
SFVTCA[1]	/* SetFVectorToAxis */
MIRP[01101]	/* MoveIndirectRelPt */
SPVTL[1]	/* SetPVectorToLine */
SRP0[ ]	/* SetRefPoint0 */
SFVTL[0]	/* SetFVectorToLine */
MIRP[01101]	/* MoveIndirectRelPt */
SPVTL[1]	/* SetPVectorToLine */
SRP0[ ]	/* SetRefPoint0 */
SFVTL[0]	/* SetFVectorToLine */
MIRP[01101]	/* MoveIndirectRelPt */
SPVTL[1]	/* SetPVectorToLine */
SRP0[ ]	/* SetRefPoint0 */
SFVTCA[1]	/* SetFVectorToAxis */
MIRP[01101]	/* MoveIndirectRelPt */
SPVTL[1]	/* SetPVectorToLine */
SRP0[ ]	/* SetRefPoint0 */
SFVTCA[1]	/* SetFVectorToAxis */
MIRP[01101]	/* MoveIndirectRelPt */
SPVTL[1]	/* SetPVectorToLine */
SRP0[ ]	/* SetRefPoint0 */
SFVTL[0]	/* SetFVectorToLine */
MIRP[01101]	/* MoveIndirectRelPt */
SPVTL[1]	/* SetPVectorToLine */
SRP0[ ]	/* SetRefPoint0 */
SFVTL[0]	/* SetFVectorToLine */
MIRP[01101]	/* MoveIndirectRelPt */
SPVTL[1]	/* SetPVectorToLine */
SRP0[ ]	/* SetRefPoint0 */
SFVTCA[1]	/* SetFVectorToAxis */
MIRP[01101]	/* MoveIndirectRelPt */
EIF[ ]	/* EndIf */
CLEAR[ ]	/* ClearStack */
PUSHB[ ]	/* 3 values pushed */
55 2 1
SVTCA[0]	/* SetFreedomAndProjectionVectorToAxis */
DELTAP1[ ]	/* DeltaExceptionP1 */
NPUSHB[ ]	/* 56 values pushed */
13 5 4 11 24 5 39 1 40 3 41 5 38 11 88 11 120 2 121 5 119 11 11 0 2 0 2 15 8 15 8 20 2 26 8 33 2 37 5 43 8 37 11 53 2 85 2 89 8 88 11 101 2 115 2 16
DELTAP1[ ]	/* DeltaExceptionP1 */
SVTCA[1]	/* SetFreedomAndProjectionVectorToAxis */
DELTAP1[ ]	/* DeltaExceptionP1 */";
};
width = 1233;
},
{
layerId = "281C21A4-45D9-482C-B928-385594A59359";
shapes = (
{
closed = 1;
nodes = (
(-86,0,l),
(145,0,l),
(651,612,l),
(905,0,l),
(1106,0,l),
(782,774,l),
(1378,1493,l),
(1147,1493,l),
(707,961,l),
(483,1493,l),
(283,1493,l),
(571,797,l),
(571,797,l)
);
}
);
userData = {
assembly = "NPUSHB[ ]	/* 72 values pushed */
9 5 10 11 10 8 5 7 8 11 11 10 8 5 9 8 5 6 5 7 5 6 6 5 3 5 4 5 4 2 5 1 2 5 5 4 2 5 3 2 11 0 11 1 5 0 0 11 58 11 8 5 2 4 3 0 125 9 6 11 8 7 6 5 2 1 0 8 12 4 10 12
SRP0[ ]	/* SetRefPoint0 */
MDRP[10100]	/* MoveDirectRelPt */
MDRP[01100]	/* MoveDirectRelPt */
SRP1[ ]	/* SetRefPoint1 */
SLOOP[ ]	/* SetLoopVariable */
IP[ ]	/* InterpolatePts */
IUP[1]	/* InterpolateUntPts */
SVTCA[0]	/* SetFreedomAndProjectionVectorToAxis */
MDAP[1]	/* MoveDirectAbsPt */
ALIGNRP[ ]	/* AlignRelativePt */
MIRP[01100]	/* MoveIndirectRelPt */
SHP[0]	/* ShiftPointByLastPoint */
SLOOP[ ]	/* SetLoopVariable */
IP[ ]	/* InterpolatePts */
IUP[0]	/* InterpolateUntPts */
MPPEM[ ]	/* MeasurePixelPerEm */
GTEQ[ ]	/* GreaterThanOrEqual */
IF[ ]	/* If */
SPVTL[1]	/* SetPVectorToLine */
SRP0[ ]	/* SetRefPoint0 */
SFVTCA[1]	/* SetFVectorToAxis */
MIRP[01101]	/* MoveIndirectRelPt */
SPVTL[1]	/* SetPVectorToLine */
SRP0[ ]	/* SetRefPoint0 */
SFVTL[0]	/* SetFVectorToLine */
MIRP[01101]	/* MoveIndirectRelPt */
SPVTL[1]	/* SetPVectorToLine */
SRP0[ ]	/* SetRefPoint0 */
SFVTL[0]	/* SetFVectorToLine */
MIRP[01101]	/* MoveIndirectRelPt */
SPVTL[1]	/* SetPVectorToLine */
SRP0[ ]	/* SetRefPoint0 */
SFVTCA[1]	/* SetFVectorToAxis */
MIRP[01101]	/* MoveIndirectRelPt */
SPVTL[1]	/* SetPVectorToLine */
SRP0[ ]	/* SetRefPoint0 */
SFVTCA[1]	/* SetFVectorToAxis */
MIRP[01101]	/* MoveIndirectRelPt */
SPVTL[1]	/* SetPVectorToLine */
SRP0[ ]	/* SetRefPoint0 */
SFVTL[0]	/* SetFVectorToLine */
MIRP[01101]	/* MoveIndirectRelPt */
SPVTL[1]	/* SetPVectorToLine */
SRP0[ ]	/* SetRefPoint0 */
SFVTL[0]	/* SetFVectorToLine */
MIRP[01101]	/* MoveIndirectRelPt */
SPVTL[1]	/* SetPVectorToLine */
SRP0[ ]	/* SetRefPoint0 */
SFVTCA[1]	/* SetFVectorToAxis */
MIRP[01101]	/* MoveIndirectRelPt */
EIF[ ]	/* EndIf */
CLEAR[ ]	/* ClearStack */";
};
width = 1233;
}
);
note = X;
unicode = 88;
},
{
glyphname = Y;
lastChange = "2026-05-20 11:40:44 +0000";
layers = (
{
layerId = m01;
shapes = (
{
closed = 1;
nodes = (
(514,0,l),
(717,0,l),
(717,670,l),
(1196,1493,l),
(979,1493,l),
(616,834,l),
(252,1493,l),
(37,1493,l),
(514,670,l),
(514,670,l)
);
}
);
userData = {
assembly = "NPUSHB[ ]	/* 46 values pushed */
3 37 4 5 4 2 37 1 2 5 5 4 2 37 3 2 8 0 8 1 37 0 0 8 66 2 3 0 180 6 2 7 3 5 4 1 7 0 4 60 5 30 0 60 7 9
SRP0[ ]	/* SetRefPoint0 */
MDRP[10100]	/* MoveDirectRelPt */
MIRP[01100]	/* MoveIndirectRelPt */
MIRP[11100]	/* MoveIndirectRelPt */
MIRP[01100]	/* MoveIndirectRelPt */
SRP1[ ]	/* SetRefPoint1 */
SRP2[ ]	/* SetRefPoint2 */
IP[ ]	/* InterpolatePts */
SRP1[ ]	/* SetRefPoint1 */
SRP2[ ]	/* SetRefPoint2 */
IP[ ]	/* InterpolatePts */
SRP1[ ]	/* SetRefPoint1 */
IP[ ]	/* InterpolatePts */
IUP[1]	/* InterpolateUntPts */
SVTCA[0]	/* SetFreedomAndProjectionVectorToAxis */
MDAP[1]	/* MoveDirectAbsPt */
MIRP[01100]	/* MoveIndirectRelPt */
SHP[0]	/* ShiftPointByLastPoint */
IP[ ]	/* InterpolatePts */
IUP[0]	/* InterpolateUntPts */
MPPEM[ ]	/* MeasurePixelPerEm */
GTEQ[ ]	/* GreaterThanOrEqual */
IF[ ]	/* If */
SPVTL[1]	/* SetPVectorToLine */
SRP0[ ]	/* SetRefPoint0 */
SFVTCA[1]	/* SetFVectorToAxis */
MIRP[01101]	/* MoveIndirectRelPt */
SPVTL[1]	/* SetPVectorToLine */
SRP0[ ]	/* SetRefPoint0 */
SFVTL[0]	/* SetFVectorToLine */
MIRP[01101]	/* MoveIndirectRelPt */
SPVTL[1]	/* SetPVectorToLine */
SRP0[ ]	/* SetRefPoint0 */
SFVTL[0]	/* SetFVectorToLine */
MIRP[01101]	/* MoveIndirectRelPt */
SPVTL[1]	/* SetPVectorToLine */
SRP0[ ]	/* SetRefPoint0 */
SFVTCA[1]	/* SetFVectorToAxis */
MIRP[01101]	/* MoveIndirectRelPt */
EIF[ ]	/* EndIf */
CLEAR[ ]	/* ClearStack */";
};
width = 1233;
},
{
layerId = "281C21A4-45D9-482C-B928-385594A59359";
shapes = (
{
closed = 1;
nodes = (
(403,0,l),
(610,0,l),
(739,670,l),
(1374,1493,l),
(1156,1493,l),
(659,842,l),
(423,1493,l),
(221,1493,l),
(534,670,l),
(534,670,l)
);
}
);
userData = {
assembly = "NPUSHB[ ]	/* 53 values pushed */
3 5 4 5 4 2 5 1 2 5 5 4 2 5 3 2 8 0 8 1 5 0 0 8 6 5 7 8 7 5 5 4 5 8 8 7 58 2 3 0 125 6 1 7 6 2 8 4 0 8 4 7 9
SRP0[ ]	/* SetRefPoint0 */
MDRP[10100]	/* MoveDirectRelPt */
MDRP[00100]	/* MoveDirectRelPt */
MDRP[00100]	/* MoveDirectRelPt */
MDRP[00100]	/* MoveDirectRelPt */
SRP1[ ]	/* SetRefPoint1 */
SRP2[ ]	/* SetRefPoint2 */
IP[ ]	/* InterpolatePts */
IP[ ]	/* InterpolatePts */
SRP1[ ]	/* SetRefPoint1 */
IP[ ]	/* InterpolatePts */
IUP[1]	/* InterpolateUntPts */
SVTCA[0]	/* SetFreedomAndProjectionVectorToAxis */
MDAP[1]	/* MoveDirectAbsPt */
MIRP[01100]	/* MoveIndirectRelPt */
SHP[0]	/* ShiftPointByLastPoint */
IP[ ]	/* InterpolatePts */
IUP[0]	/* InterpolateUntPts */
MPPEM[ ]	/* MeasurePixelPerEm */
GTEQ[ ]	/* GreaterThanOrEqual */
IF[ ]	/* If */
SPVTL[1]	/* SetPVectorToLine */
SRP0[ ]	/* SetRefPoint0 */
SFVTL[0]	/* SetFVectorToLine */
MIRP[01101]	/* MoveIndirectRelPt */
SPVTL[1]	/* SetPVectorToLine */
SRP0[ ]	/* SetRefPoint0 */
SFVTCA[1]	/* SetFVectorToAxis */
MIRP[01101]	/* MoveIndirectRelPt */
SPVTL[1]	/* SetPVectorToLine */
SRP0[ ]	/* SetRefPoint0 */
SFVTCA[1]	/* SetFVectorToAxis */
MIRP[01101]	/* MoveIndirectRelPt */
SPVTL[1]	/* SetPVectorToLine */
SRP0[ ]	/* SetRefPoint0 */
SFVTL[0]	/* SetFVectorToLine */
MIRP[01101]	/* MoveIndirectRelPt */
SPVTL[1]	/* SetPVectorToLine */
SRP0[ ]	/* SetRefPoint0 */
SFVTL[0]	/* SetFVectorToLine */
MIRP[01101]	/* MoveIndirectRelPt */
SPVTL[1]	/* SetPVectorToLine */
SRP0[ ]	/* SetRefPoint0 */
SFVTCA[1]	/* SetFVectorToAxis */
MIRP[01101]	/* MoveIndirectRelPt */
EIF[ ]	/* EndIf */
CLEAR[ ]	/* ClearStack */";
};
width = 1233;
}
);
note = Y;
unicode = 89;
},
{
glyphname = Z;
lastChange = "2026-05-20 11:40:44 +0000";
layers = (
{
layerId = m01;
shapes = (
{
closed = 1;
nodes = (
(915,1323,l),
(156,154,l),
(156,0,l),
(1169,0,l),
(1169,170,l),
(367,170,l),
(1147,1339,l),
(1147,1493,l),
(178,1493,l),
(178,1323,l),
(178,1323,l)
);
}
);
userData = {
assembly = "NPUSHB[ ]	/* 28 values pushed */
8 37 2 3 2 3 37 7 8 7 66 8 151 0 136 3 151 5 8 3 0 1 4 47 0 6 48 10
SRP0[ ]	/* SetRefPoint0 */
MIRP[11100]	/* MoveIndirectRelPt */
MDRP[00100]	/* MoveDirectRelPt */
MIRP[11100]	/* MoveIndirectRelPt */
MDRP[00100]	/* MoveDirectRelPt */
SRP1[ ]	/* SetRefPoint1 */
IP[ ]	/* InterpolatePts */
IP[ ]	/* InterpolatePts */
IUP[1]	/* InterpolateUntPts */
SVTCA[0]	/* SetFreedomAndProjectionVectorToAxis */
MDAP[1]	/* MoveDirectAbsPt */
MIRP[01100]	/* MoveIndirectRelPt */
MIRP[10100]	/* MoveIndirectRelPt */
MIRP[01100]	/* MoveIndirectRelPt */
IUP[0]	/* InterpolateUntPts */
MPPEM[ ]	/* MeasurePixelPerEm */
GTEQ[ ]	/* GreaterThanOrEqual */
IF[ ]	/* If */
SPVTL[1]	/* SetPVectorToLine */
SRP0[ ]	/* SetRefPoint0 */
SFVTCA[1]	/* SetFVectorToAxis */
MIRP[01101]	/* MoveIndirectRelPt */
SPVTL[1]	/* SetPVectorToLine */
SRP0[ ]	/* SetRefPoint0 */
SFVTCA[1]	/* SetFVectorToAxis */
MIRP[01101]	/* MoveIndirectRelPt */
EIF[ ]	/* EndIf */
CLEAR[ ]	/* ClearStack */
PUSHB[ ]	/* 3 values pushed */
8 8 1
SVTCA[1]	/* SetFreedomAndProjectionVectorToAxis */
DELTAP1[ ]	/* DeltaExceptionP1 */
PUSHB[ ]	/* 3 values pushed */
7 3 1
DELTAP1[ ]	/* DeltaExceptionP1 */";
};
width = 1233;
},
{
layerId = "281C21A4-45D9-482C-B928-385594A59359";
shapes = (
{
closed = 1;
nodes = (
(1045,1323,l),
(69,154,l),
(40,0,l),
(1052,0,l),
(1086,170,l),
(312,170,l),
(1291,1339,l),
(1320,1493,l),
(351,1493,l),
(318,1323,l),
(318,1323,l)
);
}
);
userData = {
assembly = "NPUSHB[ ]	/* 29 values pushed */
8 5 2 3 2 3 5 7 8 7 58 8 99 0 81 3 99 5 9 8 5 4 3 0 6 10 1 6 10
SRP0[ ]	/* SetRefPoint0 */
MDRP[10100]	/* MoveDirectRelPt */
MDRP[00100]	/* MoveDirectRelPt */
SRP1[ ]	/* SetRefPoint1 */
SLOOP[ ]	/* SetLoopVariable */
IP[ ]	/* InterpolatePts */
IUP[1]	/* InterpolateUntPts */
SVTCA[0]	/* SetFreedomAndProjectionVectorToAxis */
MDAP[1]	/* MoveDirectAbsPt */
MIRP[01100]	/* MoveIndirectRelPt */
MIRP[10100]	/* MoveIndirectRelPt */
MIRP[01100]	/* MoveIndirectRelPt */
IUP[0]	/* InterpolateUntPts */
MPPEM[ ]	/* MeasurePixelPerEm */
GTEQ[ ]	/* GreaterThanOrEqual */
IF[ ]	/* If */
SPVTL[1]	/* SetPVectorToLine */
SRP0[ ]	/* SetRefPoint0 */
SFVTCA[1]	/* SetFVectorToAxis */
MIRP[01101]	/* MoveIndirectRelPt */
SPVTL[1]	/* SetPVectorToLine */
SRP0[ ]	/* SetRefPoint0 */
SFVTCA[1]	/* SetFVectorToAxis */
MIRP[01101]	/* MoveIndirectRelPt */
EIF[ ]	/* EndIf */
CLEAR[ ]	/* ClearStack */";
};
width = 1233;
}
);
note = Z;
unicode = 90;
},
{
glyphname = bracketleft;
lastChange = "2026-05-20 11:40:44 +0000";
layers = (
{
layerId = m01;
shapes = (
{
closed = 1;
nodes = (
(887,-270,l),
(887,-127,l),
(647,-127,l),
(647,1413,l),
(887,1413,l),
(887,1556,l),
(463,1556,l),
(463,-270,l),
(463,-270,l)
);
}
);
userData = {
assembly = "NPUSHB[ ]	/* 15 values pushed */
4 182 6 183 2 182 0 181 8 5 1 3 61 0 8
SRP0[ ]	/* SetRefPoint0 */
MDRP[10100]	/* MoveDirectRelPt */
MIRP[11100]	/* MoveIndirectRelPt */
MDRP[00100]	/* MoveDirectRelPt */
SHP[0]	/* ShiftPointByLastPoint */
IUP[1]	/* InterpolateUntPts */
SVTCA[0]	/* SetFreedomAndProjectionVectorToAxis */
SRP0[ ]	/* SetRefPoint0 */
MIRP[11100]	/* MoveIndirectRelPt */
MIRP[01100]	/* MoveIndirectRelPt */
MIRP[10100]	/* MoveIndirectRelPt */
MIRP[01100]	/* MoveIndirectRelPt */
IUP[0]	/* InterpolateUntPts */";
};
width = 1233;
},
{
layerId = "281C21A4-45D9-482C-B928-385594A59359";
shapes = (
{
closed = 1;
nodes = (
(726,-270,l),
(753,-127,l),
(513,-127,l),
(812,1413,l),
(1052,1413,l),
(1080,1556,l),
(657,1556,l),
(300,-270,l),
(300,-270,l)
);
}
);
userData = {
assembly = "NPUSHB[ ]	/* 34 values pushed */
4 5 7 0 7 3 5 0 0 7 58 4 126 6 127 2 126 0 103 8 3 5 2 4 7 0 5 6 2 1 0 6 7 8
SRP0[ ]	/* SetRefPoint0 */
MDRP[10100]	/* MoveDirectRelPt */
MDRP[00100]	/* MoveDirectRelPt */
MDRP[10100]	/* MoveDirectRelPt */
MDRP[10100]	/* MoveDirectRelPt */
MDRP[00100]	/* MoveDirectRelPt */
SRP0[ ]	/* SetRefPoint0 */
MDRP[00110]	/* MoveDirectRelPt */
SRP1[ ]	/* SetRefPoint1 */
SRP2[ ]	/* SetRefPoint2 */
IP[ ]	/* InterpolatePts */
SRP1[ ]	/* SetRefPoint1 */
SRP2[ ]	/* SetRefPoint2 */
IP[ ]	/* InterpolatePts */
IUP[1]	/* InterpolateUntPts */
SVTCA[0]	/* SetFreedomAndProjectionVectorToAxis */
SRP0[ ]	/* SetRefPoint0 */
MIRP[11100]	/* MoveIndirectRelPt */
MIRP[01100]	/* MoveIndirectRelPt */
MIRP[10100]	/* MoveIndirectRelPt */
MIRP[01100]	/* MoveIndirectRelPt */
IUP[0]	/* InterpolateUntPts */
MPPEM[ ]	/* MeasurePixelPerEm */
GTEQ[ ]	/* GreaterThanOrEqual */
IF[ ]	/* If */
SPVTL[1]	/* SetPVectorToLine */
SRP0[ ]	/* SetRefPoint0 */
SFVTCA[1]	/* SetFVectorToAxis */
MIRP[01101]	/* MoveIndirectRelPt */
SPVTL[1]	/* SetPVectorToLine */
SRP0[ ]	/* SetRefPoint0 */
SFVTCA[1]	/* SetFVectorToAxis */
MIRP[01101]	/* MoveIndirectRelPt */
EIF[ ]	/* EndIf */
CLEAR[ ]	/* ClearStack */";
};
width = 1233;
}
);
note = bracketleft;
unicode = 91;
},
